SplineFontDB: 3.2
FontName: Vyentei
FullName: Vyentei
FamilyName: Vyentei
Weight: Book
Copyright: Copyright (c) 2003 by Bitstream, Inc. All Rights Reserved.\nCopyright (c) 2006 by Tavmjong Bah. All Rights Reserved.\nDejaVu changes are in public domain\nVyentei changes are in public domain
Version: 1.0.0
ItalicAngle: 0
UnderlinePosition: -85
UnderlineWidth: 90
Ascent: 1556
Descent: 492
InvalidEm: 0
LayerCount: 2
Layer: 0 1 "Back" 1
Layer: 1 1 "Fore" 0
FSType: 0
OS2Version: 0
OS2_WeightWidthSlopeOnly: 0
OS2_UseTypoMetrics: 0
PfmFamily: 17
TTFWeight: 400
TTFWidth: 5
LineGap: 0
VLineGap: 0
Panose: 2 11 6 3 3 8 4 2 2 4
OS2TypoAscent: 1556
OS2TypoAOffset: 0
OS2TypoDescent: -492
OS2TypoDOffset: 0
OS2TypoLinegap: 410
OS2WinAscent: 1901
OS2WinAOffset: 0
OS2WinDescent: 483
OS2WinDOffset: 0
HheadAscent: 1901
HheadAOffset: 0
HheadDescent: -483
HheadDOffset: 0
OS2Vendor: 'PfEd'
OS2CodePages: 600001ff.dfff0000
Lookup: 4 0 0 "Standard Ligatures" { "Standard Ligatures"  } ['liga' ('DFLT' <'dflt' > 'arab' <'KUR ' 'SND ' 'URD ' 'dflt' > 'armn' <'dflt' > 'brai' <'dflt' > 'cans' <'dflt' > 'cher' <'dflt' > 'copt' <'dflt' > 'cyrl' <'MKD ' 'SRB ' 'dflt' > 'geor' <'dflt' > 'grek' <'dflt' > 'hebr' <'dflt' > 'ital' <'dflt' > 'kana' <'dflt' > 'lao ' <'dflt' > 'latn' <'CAT ' 'ESP ' 'GAL ' 'ISM ' 'KSM ' 'LSM ' 'MOL ' 'NSM ' 'ROM ' 'SKS ' 'SSM ' 'dflt' > 'lisu' <'dflt' > 'nko ' <'dflt' > 'ogam' <'dflt' > 'runr' <'dflt' > 'tfng' <'dflt' > ) ]
Lookup: 1 0 0 "'case' Case-Sensitive Forms" { "'case' Case-Sensitive Forms" ("case") } ['case' ('DFLT' <'dflt' > 'latn' <'CAT ' 'ESP ' 'GAL ' 'dflt' > ) ]
Lookup: 6 9 0 "Required Feature in N'Ko" { "Required Feature in N'Ko"  } [' RQD' ('DFLT' <'dflt' > 'nko ' <'dflt' > ) ]
Lookup: 6 1 0 "'ccmp' in RTL" { "'ccmp' in RTL"  } ['ccmp' ('arab' <'KUR ' 'SND ' 'URD ' 'dflt' > 'hebr' <'dflt' > 'nko ' <'dflt' > ) ]

StartChar: .notdef
Encoding: 0 -1 0
Width: 1229
Flags: W
LayerCount: 2
Fore
SplineSet
102 -362 m 1,0,-1
 102 1444 l 1,1,-1
 1126 1444 l 1,2,-1
 1126 -362 l 1,3,-1
 102 -362 l 1,0,-1
217 -248 m 1,4,-1
 1012 -248 l 1,5,-1
 1012 1329 l 1,6,-1
 217 1329 l 1,7,-1
 217 -248 l 1,4,-1
EndSplineSet
EndChar
StartChar: exclam
Encoding: 33 33 33
Width: 585
Flags: W
LayerCount: 2
Fore
SplineSet
186 254 m 1,0,-1
 389 254 l 1,1,-1
 389 0 l 1,2,-1
 186 0 l 1,3,-1
 186 254 l 1,0,-1
186 1493 m 1,4,-1
 389 1493 l 1,5,-1
 389 838 l 1,6,-1
 369 481 l 1,7,-1
 207 481 l 1,8,-1
 186 838 l 1,9,-1
 186 1493 l 1,4,-1
EndSplineSet
EndChar
StartChar: quotedbl
Encoding: 34 34 34
Width: 920
Flags: W
LayerCount: 2
Fore
SplineSet
356 1493 m 1,0,-1
 356 938 l 1,1,-1
 186 938 l 1,2,-1
 186 1493 l 1,3,-1
 356 1493 l 1,0,-1
734 1493 m 1,4,-1
 734 938 l 1,5,-1
 564 938 l 1,6,-1
 564 1493 l 1,7,-1
 734 1493 l 1,4,-1
EndSplineSet
EndChar
StartChar: numbersign
Encoding: 35 35 35
Width: 1654
Flags: W
LayerCount: 2
Fore
SplineSet
1016 901 m 1,0,-1
 725 901 l 1,1,-1
 641 567 l 1,2,-1
 934 567 l 1,3,-1
 1016 901 l 1,0,-1
866 1470 m 1,4,-1
 762 1055 l 1,5,-1
 1054 1055 l 1,6,-1
 1159 1470 l 1,7,-1
 1319 1470 l 1,8,-1
 1216 1055 l 1,9,-1
 1528 1055 l 1,10,-1
 1528 901 l 1,11,-1
 1177 901 l 1,12,-1
 1095 567 l 1,13,-1
 1413 567 l 1,14,-1
 1413 414 l 1,15,-1
 1056 414 l 1,16,-1
 952 0 l 1,17,-1
 792 0 l 1,18,-1
 895 414 l 1,19,-1
 602 414 l 1,20,-1
 499 0 l 1,21,-1
 338 0 l 1,22,-1
 442 414 l 1,23,-1
 127 414 l 1,24,-1
 127 567 l 1,25,-1
 479 567 l 1,26,-1
 563 901 l 1,27,-1
 241 901 l 1,28,-1
 241 1055 l 1,29,-1
 602 1055 l 1,30,-1
 704 1470 l 1,31,-1
 866 1470 l 1,4,-1
EndSplineSet
EndChar
StartChar: dollar
Encoding: 36 36 36
Width: 1233
Flags: W
LayerCount: 2
Fore
SplineSet
985 1289 m 1,0,-1
 985 1128 l 1,1,2
 889 1173 889 1173 807 1195 c 0,3,4
 752 1209 752 1209 701 1215 c 1,5,-1
 701 803 l 1,6,7
 883 767 883 767 970 679 c 0,8,9
 1058 592 1058 592 1058 441 c 0,10,11
 1058 262 1058 262 940 171 c 0,12,13
 852 102 852 102 701 84 c 1,14,-1
 701 -128 l 1,15,-1
 560 -128 l 1,16,-1
 560 79 l 1,17,18
 485 82 485 82 402 98 c 0,19,20
 302 118 302 118 199 157 c 1,21,-1
 199 328 l 1,22,23
 301 272 301 272 399 242 c 0,24,25
 482 218 482 218 560 214 c 1,26,-1
 560 664 l 1,27,-1
 547 666 l 2,28,29
 361 703 361 703 278.5 782.5 c 128,-1,30
 196 862 196 862 196 1002 c 0,31,32
 194 1165 194 1165 308 1258 c 0,33,34
 404 1336 404 1336 560 1349 c 1,35,-1
 560 1556 l 1,36,-1
 701 1556 l 1,37,-1
 701 1349 l 1,38,39
 750 1345 750 1345 801 1336 c 0,40,41
 891 1320 891 1320 985 1289 c 1,0,-1
560 1211 m 1,42,43
 485 1201 485 1201 436 1165 c 0,44,45
 361 1112 361 1112 361 1015 c 0,46,47
 361 932 361 932 412 892 c 0,48,49
 453 856 453 856 560 832 c 1,50,-1
 560 1211 l 1,42,43
701 223 m 1,51,52
 765 237 765 237 808 269 c 0,53,54
 886 325 886 325 886 428 c 0,55,56
 888 518 888 518 831 570 c 0,57,58
 788 609 788 609 701 634 c 1,59,-1
 701 223 l 1,51,52
EndSplineSet
EndChar
StartChar: percent
Encoding: 37 37 37
Width: 1233
Flags: W
LayerCount: 2
Fore
SplineSet
748.5 451 m 128,-1,1
 696 398 696 398 696 319.5 c 128,-1,2
 696 241 696 241 748.5 188 c 128,-1,3
 801 135 801 135 878.5 135 c 128,-1,4
 956 135 956 135 1009.5 188.5 c 128,-1,5
 1063 242 1063 242 1063 319 c 128,-1,6
 1063 396 1063 396 1009 450 c 128,-1,7
 955 504 955 504 878 504 c 128,-1,0
 801 504 801 504 748.5 451 c 128,-1,1
652 91.5 m 128,-1,9
 561 183 561 183 561 318.5 c 128,-1,10
 561 454 561 454 653 546.5 c 128,-1,11
 745 639 745 639 877.5 639 c 128,-1,12
 1010 639 1010 639 1105 542.956521739 c 128,-1,13
 1200 446.913043478 1200 446.913043478 1200 316.456521739 c 128,-1,14
 1200 186 1200 186 1107 93 c 128,-1,15
 1014 0 1014 0 878.5 0 c 128,-1,8
 743 0 743 0 652 91.5 c 128,-1,9
137 215 m 1,16,-1
 70 311 l 1,17,-1
 1112 1229 l 1,18,-1
 1185 1133 l 1,19,-1
 137 215 l 1,16,-1
221.5 1243 m 128,-1,21
 168 1190 168 1190 168 1111.5 c 128,-1,22
 168 1033 168 1033 220.5 980.5 c 128,-1,23
 273 928 273 928 351 928 c 128,-1,24
 429 928 429 928 483 981.5 c 128,-1,25
 537 1035 537 1035 537 1112 c 128,-1,26
 537 1189 537 1189 483 1242.5 c 128,-1,27
 429 1296 429 1296 352 1296 c 128,-1,20
 275 1296 275 1296 221.5 1243 c 128,-1,21
33 1112 m 128,-1,29
 33 1247 33 1247 125 1339.5 c 128,-1,30
 217 1432 217 1432 351 1432 c 128,-1,31
 485 1432 485 1432 578.5 1338.5 c 128,-1,32
 672 1245 672 1245 672 1111.5 c 128,-1,33
 672 978 672 978 579 885.5 c 128,-1,34
 486 793 486 793 351.5 793 c 128,-1,35
 217 793 217 793 125 885 c 128,-1,28
 33 977 33 977 33 1112 c 128,-1,29
EndSplineSet
EndChar
StartChar: ampersand
Encoding: 38 38 38
Width: 1597
Flags: W
LayerCount: 2
Fore
SplineSet
498 803 m 1,0,1
 407 722 407 722 364.5 641.5 c 128,-1,2
 322 561 322 561 322 473 c 0,3,4
 322 327 322 327 428 230 c 128,-1,5
 534 133 534 133 694 133 c 0,6,7
 789 133 789 133 872 164.5 c 128,-1,8
 955 196 955 196 1028 260 c 1,9,-1
 498 803 l 1,0,1
639 915 m 2,10,-1
 1147 395 l 1,11,12
 1206 484 1206 484 1239 585.5 c 128,-1,13
 1272 687 1272 687 1278 801 c 1,14,-1
 1464 801 l 1,15,16
 1452 669 1452 669 1400 540 c 128,-1,17
 1348 411 1348 411 1255 285 c 1,18,-1
 1534 0 l 1,19,-1
 1282 0 l 1,20,-1
 1139 147 l 1,21,22
 1035 58 1035 58 921 14.5 c 128,-1,23
 807 -29 807 -29 676 -29 c 0,24,25
 435 -29 435 -29 282 108.5 c 128,-1,26
 129 246 129 246 129 461 c 0,27,28
 129 589 129 589 196 701.5 c 128,-1,29
 263 814 263 814 397 913 c 1,30,31
 349 976 349 976 324 1038.5 c 128,-1,32
 299 1101 299 1101 299 1161 c 0,33,34
 299 1323 299 1323 410 1421.5 c 128,-1,35
 521 1520 521 1520 705 1520 c 0,36,37
 788 1520 788 1520 870.5 1502 c 128,-1,38
 953 1484 953 1484 1038 1448 c 1,39,-1
 1038 1266 l 1,40,41
 951 1313 951 1313 872 1337.5 c 128,-1,42
 793 1362 793 1362 725 1362 c 0,43,44
 620 1362 620 1362 554.5 1306.5 c 128,-1,45
 489 1251 489 1251 489 1163 c 0,46,47
 489 1112 489 1112 518.5 1060.5 c 128,-1,48
 548 1009 548 1009 639 915 c 2,10,-1
EndSplineSet
EndChar
StartChar: quotesingle
Encoding: 39 39 39
Width: 542
Flags: W
LayerCount: 2
Fore
SplineSet
356 1493 m 1,0,-1
 356 938 l 1,1,-1
 186 938 l 1,2,-1
 186 1493 l 1,3,-1
 356 1493 l 1,0,-1
EndSplineSet
EndChar
StartChar: parenleft
Encoding: 40 40 40
Width: 799
Flags: W
GlyphCompositionVertical: 3  uni239D%0,0,40,2421 uni239C%1,40,40,2445 uni239B%0,40,0,2454
LayerCount: 2
Fore
SplineSet
635 1554 m 1,0,1
 501 1324 501 1324 436 1099 c 128,-1,2
 371 874 371 874 371 643 c 128,-1,3
 371 412 371 412 436.5 185.5 c 128,-1,4
 502 -41 502 -41 635 -270 c 1,5,-1
 475 -270 l 1,6,7
 325 -35 325 -35 250.5 192 c 128,-1,8
 176 419 176 419 176 643 c 0,9,10
 176 866 176 866 250 1092 c 128,-1,11
 324 1318 324 1318 475 1554 c 1,12,-1
 635 1554 l 1,0,1
EndSplineSet
EndChar
StartChar: parenright
Encoding: 41 41 41
Width: 799
Flags: W
GlyphCompositionVertical: 3  uni23A0%0,0,40,2421 uni239F%1,40,40,2445 uni239E%0,40,0,2454
LayerCount: 2
Fore
SplineSet
164 1554 m 1,0,-1
 324 1554 l 1,1,2
 474 1318 474 1318 548.5 1092 c 128,-1,3
 623 866 623 866 623 643 c 0,4,5
 623 419 623 419 548.5 192 c 128,-1,6
 474 -35 474 -35 324 -270 c 1,7,-1
 164 -270 l 1,8,9
 297 -41 297 -41 362.5 185.5 c 128,-1,10
 428 412 428 412 428 643 c 128,-1,11
 428 874 428 874 362.5 1099 c 128,-1,12
 297 1324 297 1324 164 1554 c 1,0,-1
EndSplineSet
EndChar
StartChar: asterisk
Encoding: 42 42 42
Width: 1024
Flags: W
LayerCount: 2
Fore
SplineSet
963 1247 m 1,0,-1
 604 1053 l 1,1,-1
 963 858 l 1,2,-1
 905 760 l 1,3,-1
 569 963 l 1,4,-1
 569 586 l 1,5,-1
 455 586 l 1,6,-1
 455 963 l 1,7,-1
 119 760 l 1,8,-1
 61 858 l 1,9,-1
 420 1053 l 1,10,-1
 61 1247 l 1,11,-1
 119 1346 l 1,12,-1
 455 1143 l 1,13,-1
 455 1520 l 1,14,-1
 569 1520 l 1,15,-1
 569 1143 l 1,16,-1
 905 1346 l 1,17,-1
 963 1247 l 1,0,-1
EndSplineSet
EndChar
StartChar: plus
Encoding: 43 43 43
Width: 1300
Flags: W
LayerCount: 2
Fore
SplineSet
734 1107 m 1,0,-1
 734 727 l 1,1,-1
 1114 727 l 1,2,-1
 1114 557 l 1,3,-1
 734 557 l 1,4,-1
 734 177 l 1,5,-1
 566 177 l 1,6,-1
 566 557 l 1,7,-1
 186 557 l 1,8,-1
 186 727 l 1,9,-1
 566 727 l 1,10,-1
 566 1107 l 1,11,-1
 734 1107 l 1,0,-1
EndSplineSet
EndChar
StartChar: comma
Encoding: 44 44 44
Width: 585
Flags: W
LayerCount: 2
Fore
SplineSet
207 254 m 1,0,-1
 418 254 l 1,1,-1
 418 82 l 1,2,-1
 254 -238 l 1,3,-1
 125 -238 l 1,4,-1
 207 82 l 1,5,-1
 207 254 l 1,0,-1
EndSplineSet
EndChar
StartChar: hyphen
Encoding: 45 45 45
Width: 1300
Flags: W
LayerCount: 2
Fore
SplineSet
1114 727 m 1,0,-1
 1114 557 l 1,1,-1
 186 557 l 1,2,-1
 186 727 l 1,3,-1
 1114 727 l 1,0,-1
EndSplineSet
EndChar
StartChar: period
Encoding: 46 46 46
Width: 585
Flags: W
LayerCount: 2
Fore
SplineSet
186 254 m 1,0,-1
 397 254 l 1,1,-1
 397 0 l 1,2,-1
 186 0 l 1,3,-1
 186 254 l 1,0,-1
EndSplineSet
EndChar
StartChar: slash
Encoding: 47 47 47
Width: 690
Flags: W
LayerCount: 2
Fore
SplineSet
520 1493 m 1,0,-1
 690 1493 l 1,1,-1
 170 -190 l 1,2,-1
 0 -190 l 1,3,-1
 520 1493 l 1,0,-1
EndSplineSet
EndChar
StartChar: zero
Encoding: 48 48 48
Width: 1233
Flags: W
LayerCount: 2
Fore
SplineSet
616 1360 m 0,0,1
 475 1360 475 1360 405.5 1208 c 128,-1,2
 336 1056 336 1056 336 745 c 0,3,4
 336 435 336 435 405.5 283 c 128,-1,5
 475 131 475 131 616 131 c 0,6,7
 758 131 758 131 827.5 283 c 128,-1,8
 897 435 897 435 897 745 c 0,9,10
 897 1056 897 1056 827.5 1208 c 128,-1,11
 758 1360 758 1360 616 1360 c 0,0,1
616 1520 m 128,-1,13
 855 1520 855 1520 977.5 1324 c 128,-1,14
 1100 1128 1100 1128 1100 745 c 0,15,16
 1100 363 1100 363 977.5 167 c 128,-1,17
 855 -29 855 -29 616 -29 c 128,-1,18
 377 -29 377 -29 255 167 c 128,-1,19
 133 363 133 363 133 745 c 0,20,21
 133 1128 133 1128 255 1324 c 128,-1,12
 377 1520 377 1520 616 1520 c 128,-1,13
EndSplineSet
EndChar
StartChar: one
Encoding: 49 49 49
Width: 1233
Flags: W
LayerCount: 2
Fore
SplineSet
270 170 m 1,0,-1
 584 170 l 1,1,-1
 584 1311 l 1,2,-1
 246 1235 l 1,3,-1
 246 1419 l 1,4,-1
 582 1493 l 1,5,-1
 784 1493 l 1,6,-1
 784 170 l 1,7,-1
 1094 170 l 1,8,-1
 1094 0 l 1,9,-1
 270 0 l 1,10,-1
 270 170 l 1,0,-1
EndSplineSet
EndChar
StartChar: two
Encoding: 50 50 50
Width: 1233
Flags: W
LayerCount: 2
Fore
SplineSet
373 170 m 1,0,-1
 1059 170 l 1,1,-1
 1059 0 l 1,2,-1
 152 0 l 1,3,-1
 152 170 l 1,4,5
 339 367 339 367 479 518 c 128,-1,6
 619 669 619 669 672 731 c 1,7,8
 772 853 772 853 807 928.5 c 128,-1,9
 842 1004 842 1004 842 1083 c 0,10,11
 842 1208 842 1208 768.5 1279 c 128,-1,12
 695 1350 695 1350 567 1350 c 0,13,14
 476 1350 476 1350 376 1317 c 128,-1,15
 276 1284 276 1284 164 1217 c 1,16,-1
 164 1421 l 1,17,18
 267 1470 267 1470 366.5 1495 c 128,-1,19
 466 1520 466 1520 563 1520 c 0,20,21
 782 1520 782 1520 915.5 1403.5 c 128,-1,22
 1049 1287 1049 1287 1049 1098 c 0,23,24
 1049 1002 1049 1002 1004.5 906 c 128,-1,25
 960 810 960 810 860 694 c 0,26,27
 804 629 804 629 697.5 514 c 128,-1,28
 591 399 591 399 373 170 c 1,0,-1
EndSplineSet
EndChar
StartChar: three
Encoding: 51 51 51
Width: 1233
Flags: W
LayerCount: 2
Fore
SplineSet
776 799 m 1,0,1
 923 760 923 760 1001 660.5 c 128,-1,2
 1079 561 1079 561 1079 412 c 0,3,4
 1079 206 1079 206 940.5 88.5 c 128,-1,5
 802 -29 802 -29 557 -29 c 0,6,7
 454 -29 454 -29 347 -10 c 128,-1,8
 240 9 240 9 137 45 c 1,9,-1
 137 246 l 1,10,11
 239 193 239 193 338 167 c 128,-1,12
 437 141 437 141 535 141 c 0,13,14
 701 141 701 141 790 216 c 128,-1,15
 879 291 879 291 879 432 c 0,16,17
 879 562 879 562 790 638.5 c 128,-1,18
 701 715 701 715 549 715 c 2,19,-1
 395 715 l 1,20,-1
 395 881 l 1,21,-1
 549 881 l 2,22,23
 688 881 688 881 766 942 c 128,-1,24
 844 1003 844 1003 844 1112 c 0,25,26
 844 1227 844 1227 771.5 1288.5 c 128,-1,27
 699 1350 699 1350 565 1350 c 0,28,29
 476 1350 476 1350 381 1330 c 128,-1,30
 286 1310 286 1310 182 1270 c 1,31,-1
 182 1456 l 1,32,33
 303 1488 303 1488 397.5 1504 c 128,-1,34
 492 1520 492 1520 565 1520 c 0,35,36
 783 1520 783 1520 913.5 1410.5 c 128,-1,37
 1044 1301 1044 1301 1044 1120 c 0,38,39
 1044 997 1044 997 975.5 915 c 128,-1,40
 907 833 907 833 776 799 c 1,0,1
EndSplineSet
EndChar
StartChar: four
Encoding: 52 52 52
Width: 1233
Flags: W
LayerCount: 2
Fore
SplineSet
735 1309 m 1,0,-1
 264 520 l 1,1,-1
 735 520 l 1,2,-1
 735 1309 l 1,0,-1
702 1493 m 1,3,-1
 936 1493 l 1,4,-1
 936 520 l 1,5,-1
 1135 520 l 1,6,-1
 1135 356 l 1,7,-1
 936 356 l 1,8,-1
 936 0 l 1,9,-1
 735 0 l 1,10,-1
 735 356 l 1,11,-1
 102 356 l 1,12,-1
 102 547 l 1,13,-1
 702 1493 l 1,3,-1
EndSplineSet
EndChar
StartChar: five
Encoding: 53 53 53
Width: 1233
Flags: W
LayerCount: 2
Fore
SplineSet
207 1493 m 1,0,-1
 963 1493 l 1,1,-1
 963 1323 l 1,2,-1
 391 1323 l 1,3,-1
 391 956 l 1,4,5
 434 972 434 972 477.5 979.5 c 128,-1,6
 521 987 521 987 565 987 c 0,7,8
 797 987 797 987 933 850 c 128,-1,9
 1069 713 1069 713 1069 479 c 0,10,11
 1069 243 1069 243 926.5 107 c 128,-1,12
 784 -29 784 -29 537 -29 c 0,13,14
 418 -29 418 -29 319.5 -13 c 128,-1,15
 221 3 221 3 143 35 c 1,16,-1
 143 240 l 1,17,18
 235 190 235 190 328 165.5 c 128,-1,19
 421 141 421 141 518 141 c 0,20,21
 685 141 685 141 775.5 229 c 128,-1,22
 866 317 866 317 866 479 c 0,23,24
 866 639 866 639 772.5 728 c 128,-1,25
 679 817 679 817 512 817 c 0,26,27
 431 817 431 817 354 798.5 c 128,-1,28
 277 780 277 780 207 743 c 1,29,-1
 207 1493 l 1,0,-1
EndSplineSet
EndChar
StartChar: six
Encoding: 54 54 54
Width: 1233
Flags: W
LayerCount: 2
Fore
SplineSet
991 1460 m 1,0,-1
 991 1274 l 1,1,2
 928 1311 928 1311 857 1330.5 c 128,-1,3
 786 1350 786 1350 709 1350 c 0,4,5
 517 1350 517 1350 418 1205.5 c 128,-1,6
 319 1061 319 1061 319 780 c 1,7,8
 367 880 367 880 452 933.5 c 128,-1,9
 537 987 537 987 647 987 c 0,10,11
 863 987 863 987 981.5 854.5 c 128,-1,12
 1100 722 1100 722 1100 479 c 0,13,14
 1100 237 1100 237 978 104 c 128,-1,15
 856 -29 856 -29 635 -29 c 0,16,17
 375 -29 375 -29 254 157.5 c 128,-1,18
 133 344 133 344 133 745 c 0,19,20
 133 1123 133 1123 278.5 1321.5 c 128,-1,21
 424 1520 424 1520 700 1520 c 0,22,23
 774 1520 774 1520 848 1504.5 c 128,-1,24
 922 1489 922 1489 991 1460 c 1,0,-1
631 829 m 0,25,26
 502 829 502 829 428 736 c 128,-1,27
 354 643 354 643 354 479 c 128,-1,29
 354 315 354 315 428 222 c 128,-1,30
 502 129 502 129 631 129 c 0,31,32
 765 129 765 129 833 217.5 c 128,-1,33
 901 306 901 306 901 479 c 0,34,35
 901 653 901 653 833 741 c 128,-1,36
 765 829 765 829 631 829 c 0,25,26
EndSplineSet
EndChar
StartChar: seven
Encoding: 55 55 55
Width: 1233
Flags: W
LayerCount: 2
Fore
SplineSet
139 1493 m 1,0,-1
 1079 1493 l 1,1,-1
 1079 1407 l 1,2,-1
 545 0 l 1,3,-1
 334 0 l 1,4,-1
 854 1323 l 1,5,-1
 139 1323 l 1,6,-1
 139 1493 l 1,0,-1
EndSplineSet
EndChar
StartChar: eight
Encoding: 56 56 56
Width: 1233
Flags: W
LayerCount: 2
Fore
SplineSet
616 709 m 0,0,1
 481 709 481 709 407.5 633.5 c 128,-1,2
 334 558 334 558 334 420 c 0,3,4
 334 282 334 282 408.5 205.5 c 128,-1,5
 483 129 483 129 616 129 c 0,6,7
 752 129 752 129 825.5 204.5 c 128,-1,8
 899 280 899 280 899 420 c 0,9,10
 899 557 899 557 824.5 633 c 128,-1,11
 750 709 750 709 616 709 c 0,0,1
440 793 m 1,12,13
 311 826 311 826 238.5 916 c 128,-1,14
 166 1006 166 1006 166 1133 c 0,15,16
 166 1311 166 1311 287 1415.5 c 128,-1,17
 408 1520 408 1520 616 1520 c 0,18,19
 825 1520 825 1520 946 1415.5 c 128,-1,20
 1067 1311 1067 1311 1067 1133 c 0,21,22
 1067 1006 1067 1006 994.5 916 c 128,-1,23
 922 826 922 826 793 793 c 1,24,25
 943 760 943 760 1022.5 660 c 128,-1,26
 1102 560 1102 560 1102 401 c 0,27,28
 1102 199 1102 199 973 85 c 128,-1,29
 844 -29 844 -29 616 -29 c 0,30,31
 388 -29 388 -29 259.5 84.5 c 128,-1,32
 131 198 131 198 131 399 c 0,33,34
 131 559 131 559 210.5 659.5 c 128,-1,35
 290 760 290 760 440 793 c 1,12,13
367 1114 m 0,36,37
 367 994 367 994 431 931 c 128,-1,38
 495 868 495 868 616 868 c 0,39,40
 738 868 738 868 802 931 c 128,-1,41
 866 994 866 994 866 1114 c 0,42,43
 866 1236 866 1236 802.5 1300 c 128,-1,44
 739 1364 739 1364 616 1364 c 0,45,46
 495 1364 495 1364 431 1299.5 c 128,-1,47
 367 1235 367 1235 367 1114 c 0,36,37
EndSplineSet
EndChar
StartChar: nine
Encoding: 57 57 57
Width: 1233
Flags: W
LayerCount: 2
Fore
SplineSet
596 662 m 0,0,1
 725 662 725 662 798.5 755 c 128,-1,2
 872 848 872 848 872 1012 c 0,3,4
 872 1176 872 1176 798.5 1269 c 128,-1,5
 725 1362 725 1362 596 1362 c 0,6,7
 462 1362 462 1362 394 1273.5 c 128,-1,8
 326 1185 326 1185 326 1012 c 0,9,10
 326 838 326 838 393.5 750 c 128,-1,11
 461 662 461 662 596 662 c 0,0,1
236 31 m 1,12,-1
 236 217 l 1,13,14
 299 180 299 180 370 160.5 c 128,-1,15
 441 141 441 141 518 141 c 0,16,17
 710 141 710 141 808.5 285.5 c 128,-1,18
 907 430 907 430 907 711 c 1,19,20
 860 611 860 611 775 557.5 c 128,-1,21
 690 504 690 504 580 504 c 0,22,23
 364 504 364 504 245.5 637 c 128,-1,24
 127 770 127 770 127 1014 c 0,25,26
 127 1255 127 1255 248.5 1387.5 c 128,-1,27
 370 1520 370 1520 592 1520 c 0,28,29
 852 1520 852 1520 973 1333 c 128,-1,30
 1094 1146 1094 1146 1094 745 c 0,31,32
 1094 368 1094 368 948.5 169.5 c 128,-1,33
 803 -29 803 -29 526 -29 c 0,34,35
 453 -29 453 -29 379 -13.5 c 128,-1,36
 305 2 305 2 236 31 c 1,12,-1
EndSplineSet
EndChar
StartChar: colon
Encoding: 58 58 58
Width: 585
Flags: W
LayerCount: 2
Fore
SplineSet
186 254 m 1,0,-1
 397 254 l 1,1,-1
 397 0 l 1,2,-1
 186 0 l 1,3,-1
 186 254 l 1,0,-1
186 1059 m 1,4,-1
 397 1059 l 1,5,-1
 397 805 l 1,6,-1
 186 805 l 1,7,-1
 186 1059 l 1,4,-1
EndSplineSet
EndChar
StartChar: semicolon
Encoding: 59 59 59
Width: 585
Flags: W
LayerCount: 2
Fore
SplineSet
186 1059 m 1,0,-1
 397 1059 l 1,1,-1
 397 805 l 1,2,-1
 186 805 l 1,3,-1
 186 1059 l 1,0,-1
186 254 m 1,4,-1
 397 254 l 1,5,-1
 397 82 l 1,6,-1
 233 -238 l 1,7,-1
 104 -238 l 1,8,-1
 186 82 l 1,9,-1
 186 254 l 1,4,-1
EndSplineSet
EndChar
StartChar: less
Encoding: 60 60 60
Width: 1300
Flags: W
LayerCount: 2
Fore
SplineSet
1114 1008 m 1,0,-1
 436 641 l 1,1,-1
 1114 276 l 1,2,-1
 1114 94 l 1,3,-1
 186 559 l 1,4,-1
 186 725 l 1,5,-1
 1114 1190 l 1,6,-1
 1114 1008 l 1,0,-1
EndSplineSet
EndChar
StartChar: equal
Encoding: 61 61 61
Width: 1300
Flags: W
GlyphCompositionHorizontal: 2  equal%0,0,40,1282 equal%1,40,0,1282
LayerCount: 2
Fore
SplineSet
1114 496 m 1,0,-1
 1114 326 l 1,1,-1
 186 326 l 1,2,-1
 186 496 l 1,3,-1
 1114 496 l 1,0,-1
1114 958 m 1,4,-1
 1114 788 l 1,5,-1
 186 788 l 1,6,-1
 186 958 l 1,7,-1
 1114 958 l 1,4,-1
EndSplineSet
EndChar
StartChar: greater
Encoding: 62 62 62
Width: 1300
Flags: W
LayerCount: 2
Fore
SplineSet
186 1008 m 1,0,-1
 186 1190 l 1,1,-1
 1114 725 l 1,2,-1
 1114 559 l 1,3,-1
 186 94 l 1,4,-1
 186 276 l 1,5,-1
 862 641 l 1,6,-1
 186 1008 l 1,0,-1
EndSplineSet
EndChar
StartChar: question
Encoding: 63 63 63
Width: 1021
Flags: W
LayerCount: 2
Fore
SplineSet
358 254 m 1,0,-1
 561 254 l 1,1,-1
 561 0 l 1,2,-1
 358 0 l 1,3,-1
 358 254 l 1,0,-1
555 401 m 1,4,-1
 364 401 l 1,5,-1
 364 555 l 2,6,7
 364 656 364 656 392 721 c 128,-1,8
 420 786 420 786 510 872 c 1,9,-1
 600 961 l 1,10,11
 657 1014 657 1014 682.5 1061 c 128,-1,12
 708 1108 708 1108 708 1157 c 0,13,14
 708 1246 708 1246 642.5 1301 c 128,-1,15
 577 1356 577 1356 469 1356 c 0,16,17
 390 1356 390 1356 300.5 1321 c 128,-1,18
 211 1286 211 1286 114 1219 c 1,19,-1
 114 1407 l 1,20,21
 208 1464 208 1464 304.5 1492 c 128,-1,22
 401 1520 401 1520 504 1520 c 0,23,24
 688 1520 688 1520 799.5 1423 c 128,-1,25
 911 1326 911 1326 911 1167 c 0,26,27
 911 1091 911 1091 875 1022.5 c 128,-1,28
 839 954 839 954 749 868 c 2,29,-1
 661 782 l 2,30,31
 614 735 614 735 594.5 708.5 c 128,-1,32
 575 682 575 682 567 657 c 0,33,34
 561 636 561 636 558 606 c 128,-1,35
 555 576 555 576 555 524 c 2,36,-1
 555 401 l 1,4,-1
EndSplineSet
EndChar
StartChar: at
Encoding: 64 64 64
Width: 2040
Flags: W
AnchorPoint: "half" 526.5 1327.8 basechar 0
LayerCount: 2
Fore
SplineSet
1496 -69 m 1,0,1
 1311 -213 1311 -213 1038 -213 c 0,2,3
 717 -213 717 -213 496.5 3.5 c 128,-1,4
 276 220 276 220 276 543 c 0,5,6
 276 736 276 736 364.5 901.5 c 128,-1,7
 453 1067 453 1067 610 1169 c 1,8,9
 804 1298 804 1298 1055 1298 c 0,10,11
 1231 1298 1231 1298 1380.5 1228.5 c 128,-1,12
 1530 1159 1530 1159 1634 1028 c 0,13,14
 1760 868 1760 868 1760 672 c 0,15,16
 1760 366 1760 366 1636 270 c 0,17,18
 1588 233 1588 233 1520 230 c 1,19,20
 1435 242 1435 242 1433 276 c 1,21,22
 1433 276 1433 276 1433 597 c 0,23,24
 1433 1044 1433 1044 1007 1044 c 0,25,26
 850 1044 850 1044 672 976 c 1,27,28
 672 976 672 976 672 826 c 1,29,30
 819 908 819 908 971.5 908 c 128,-1,31
 1124 908 1124 908 1197 846.5 c 128,-1,32
 1270 785 1270 785 1270 673 c 2,33,34
 1270 673 1270 673 1270 657 c 1,35,-1
 1044 657 l 2,36,37
 602 657 602 657 600 322 c 0,38,39
 599 180 599 180 689.5 94 c 128,-1,40
 780 8 780 8 930 10 c 0,41,42
 1157 13 1157 13 1270 196 c 1,43,44
 1309 52 1309 52 1579 77 c 0,45,46
 1632 82 1632 82 1677 106 c 0,47,48
 1706 121 1706 121 1789 222 c 0,49,50
 1905 362 1905 362 1905 634.5 c 128,-1,51
 1905 907 1905 907 1751 1108 c 0,52,53
 1628 1268 1628 1268 1446 1355 c 128,-1,54
 1264 1442 1264 1442 1064 1442 c 0,55,56
 662 1442 662 1442 397 1180 c 0,57,58
 271 1055 271 1055 203 890 c 128,-1,59
 135 725 135 725 135 539.5 c 128,-1,60
 135 354 135 354 202 189.5 c 128,-1,61
 269 25 269 25 397 -100 c 0,62,63
 659 -356 659 -356 1038 -356 c 0,64,65
 1359 -356 1359 -356 1586 -180 c 1,66,67
 1586 -180 1586 -180 1496 -69 c 1,0,1
1110 530 m 2,68,69
 1110 530 1110 530 1270 530 c 1,70,-1
 1270 494 l 2,71,72
 1270 336 1270 336 1188.5 240.5 c 128,-1,73
 1107 145 1107 145 973 145 c 0,74,75
 875 145 875 145 818.5 195.5 c 128,-1,76
 762 246 762 246 762 343.5 c 128,-1,77
 762 441 762 441 838 485.5 c 128,-1,78
 914 530 914 530 1110 530 c 2,68,69
EndSplineSet
EndChar
StartChar: A
Encoding: 65 65 65
Width: 1456
Flags: W
AnchorPoint: "ogonek" 1252 0 basechar 0
AnchorPoint: "half" 0 1520 basechar 0
AnchorPoint: "cedilla" 1291 0 basechar 0
AnchorPoint: "below" 728 0 basechar 0
AnchorPoint: "above" 727 1520 basechar 0
LayerCount: 2
Fore
SplineSet
728 1294 m 1,0,-1
 453 551 l 1,1,-1
 1003 551 l 1,2,-1
 728 1294 l 1,0,-1
613 1493 m 1,3,-1
 843 1493 l 1,4,-1
 1396 0 l 1,5,-1
 1186 0 l 1,6,-1
 1056 383 l 1,7,-1
 400 383 l 1,8,-1
 270 0 l 1,9,-1
 60 0 l 1,10,-1
 613 1493 l 1,3,-1
EndSplineSet
EndChar
StartChar: B
Encoding: 66 66 66
Width: 1390
Flags: W
AnchorPoint: "half" 0 1520 basechar 0
AnchorPoint: "below" 639 0 basechar 0
AnchorPoint: "above" 639 1453 basechar 0
LayerCount: 2
Fore
SplineSet
186 1493 m 1,0,-1
 715 1493 l 2,1,2
 950 1493 950 1493 1076.5 1387 c 128,-1,3
 1203 1281 1203 1281 1185.5 1084 c 128,-1,4
 1168 887 1168 887 1034 791 c 1,5,6
 1231 677 1231 677 1253 431 c 0,7,8
 1291 0 1291 0 749 0 c 2,9,-1
 186 0 l 1,10,-1
 186 1493 l 1,0,-1
388 166 m 1,11,-1
 749 166 l 2,12,13
 906 166 906 166 983 231.5 c 128,-1,14
 1060 297 1060 297 1056 416.5 c 128,-1,15
 1052 536 1052 536 975 616.5 c 128,-1,16
 898 697 898 697 749 697 c 2,17,-1
 715 697 l 1,18,-1
 388 697 l 1,19,-1
 388 166 l 1,11,-1
715 863 m 2,20,21
 848 863 848 863 925 943.5 c 128,-1,22
 1002 1024 1002 1024 1002 1110 c 128,-1,23
 1002 1196 1002 1196 925 1261.5 c 128,-1,24
 848 1327 848 1327 715 1327 c 2,25,-1
 388 1327 l 1,26,-1
 388 863 l 1,27,-1
 715 863 l 2,20,21
EndSplineSet
EndChar
StartChar: C
Encoding: 67 67 67
Width: 1390
Flags: W
AnchorPoint: "half" 0 1520 basechar 0
AnchorPoint: "cedilla" 807 0 basechar 0
AnchorPoint: "below" 807 0 basechar 0
AnchorPoint: "above" 807 1520 basechar 0
LayerCount: 2
Fore
SplineSet
115 746 m 1,0,1
 116 1084 116 1084 304 1310 c 0,2,3
 476 1518 476 1518 807 1520 c 0,4,5
 1144 1522 1144 1522 1278 1387 c 1,6,-1
 1278 1191 l 1,7,8
 1071 1354 1071 1354 807 1356 c 0,9,10
 590 1358 590 1358 458 1192 c 0,11,12
 328 1028 328 1028 328 746 c 128,-1,13
 328 464 328 464 458.5 298.5 c 128,-1,14
 589 133 589 133 807 135 c 0,15,16
 1071 137 1071 137 1278 300 c 1,17,-1
 1278 104 l 1,18,19
 1143 -32 1143 -32 807 -29 c 0,20,21
 476 -26 476 -26 304 182 c 0,22,23
 116 408 116 408 115 745 c 1,24,-1
 115 745.5 l 0,25,26
 115 746 115 746 115 746 c 1,0,1
EndSplineSet
EndChar
StartChar: D
Encoding: 68 68 68
Width: 1475
Flags: W
AnchorPoint: "cedilla" 503 0 basechar 0
AnchorPoint: "half" 0 1520 basechar 0
AnchorPoint: "below" 687 0 basechar 0
AnchorPoint: "above" 687 1520 basechar 0
LayerCount: 2
Fore
SplineSet
388 1327 m 1,0,-1
 388 166 l 1,1,-1
 574 166 l 2,2,3
 883 166 883 166 1026.5 306 c 128,-1,4
 1170 446 1170 446 1170 748 c 0,5,6
 1170 1048 1170 1048 1026.5 1187.5 c 128,-1,7
 883 1327 883 1327 574 1327 c 2,8,-1
 388 1327 l 1,0,-1
186 1493 m 1,9,-1
 543 1493 l 2,10,11
 977 1493 977 1493 1180 1312.5 c 128,-1,12
 1383 1132 1383 1132 1383 748 c 0,13,14
 1383 362 1383 362 1179 181 c 128,-1,15
 975 0 975 0 543 0 c 2,16,-1
 186 0 l 1,17,-1
 186 1493 l 1,9,-1
EndSplineSet
EndChar
StartChar: E
Encoding: 69 69 69
Width: 1310
Flags: W
AnchorPoint: "ogonek" 945 0 basechar 0
AnchorPoint: "half" 0 1520 basechar 0
AnchorPoint: "cedilla" 655 0 basechar 0
AnchorPoint: "below" 655 0 basechar 0
AnchorPoint: "above" 655 1520 basechar 0
LayerCount: 2
Fore
SplineSet
186 1493 m 1,0,-1
 1128 1493 l 1,1,-1
 1128 1323 l 1,2,-1
 388 1323 l 1,3,-1
 388 863 l 1,4,-1
 1128 863 l 1,5,-1
 1128 697 l 1,6,-1
 388 697 l 1,7,-1
 388 170 l 1,8,-1
 1177 170 l 1,9,-1
 1177 0 l 1,10,-1
 186 0 l 1,11,-1
 186 1493 l 1,0,-1
EndSplineSet
EndChar
StartChar: F
Encoding: 70 70 70
Width: 1172
Flags: W
AnchorPoint: "half" 0 1520 basechar 0
AnchorPoint: "below" 655 0 basechar 0
AnchorPoint: "above" 655 1520 basechar 0
LayerCount: 2
Fore
SplineSet
186 1493 m 1,0,-1
 1112 1493 l 1,1,-1
 1112 1323 l 1,2,-1
 388 1323 l 1,3,-1
 388 863 l 1,4,-1
 1048 863 l 1,5,-1
 1048 697 l 1,6,-1
 388 697 l 1,7,-1
 388 0 l 1,8,-1
 186 0 l 1,9,-1
 186 1493 l 1,0,-1
EndSplineSet
EndChar
StartChar: G
Encoding: 71 71 71
Width: 1519
Flags: W
AnchorPoint: "cedilla" 777 0 basechar 0
AnchorPoint: "half" 0 1520 basechar 0
AnchorPoint: "below" 786 0 basechar 0
AnchorPoint: "above" 786 1520 basechar 0
LayerCount: 2
Fore
SplineSet
328 746 m 1024,0,-1
788 135 m 0,1,2
 1014 135 1014 135 1133 241 c 1,3,-1
 1133 630 l 1,4,-1
 812 630 l 1,5,-1
 812 796 l 1,6,-1
 1333 796 l 1,7,-1
 1333 166 l 1,8,9
 1162 -29 1162 -29 801 -29 c 2,10,11
 801 -29 801 -29 777 -29 c 0,12,13
 446 -26 446 -26 281 191 c 128,-1,14
 116 408 116 408 115 745 c 1,15,-1
 115 746 l 1,16,17
 116 1084 116 1084 282 1302 c 128,-1,18
 448 1520 448 1520 777 1520 c 2,19,20
 777 1520 777 1520 800 1520 c 0,21,22
 1162 1522 1162 1522 1308 1375 c 1,23,-1
 1308 1179 l 1,24,25
 1086 1354 1086 1354 786 1356 c 1,26,27
 786 1356 786 1356 777 1356 c 0,28,29
 560 1358 560 1358 444 1193 c 128,-1,30
 328 1028 328 1028 328 746 c 128,-1,31
 328 464 328 464 442.5 299.5 c 128,-1,32
 557 135 557 135 777 135 c 2,33,34
 777 135 777 135 788 135 c 0,1,2
115 742 m 1,35,-1
 115 746 l 1025,36,-1
EndSplineSet
EndChar
StartChar: H
Encoding: 72 72 72
Width: 1519
Flags: W
AnchorPoint: "cedilla" 287 0 basechar 0
AnchorPoint: "half" 0 1520 basechar 0
AnchorPoint: "below" 777 0 basechar 0
AnchorPoint: "above" 777 1520 basechar 0
LayerCount: 2
Fore
SplineSet
186 1493 m 1,0,-1
 388 1493 l 1,1,-1
 388 863 l 1,2,-1
 1121 863 l 1,3,-1
 1121 1493 l 1,4,-1
 1323 1493 l 1,5,-1
 1323 0 l 1,6,-1
 1121 0 l 1,7,-1
 1121 697 l 1,8,-1
 388 697 l 1,9,-1
 388 0 l 1,10,-1
 186 0 l 1,11,-1
 186 1493 l 1,0,-1
EndSplineSet
EndChar
StartChar: I
Encoding: 73 73 73
Width: 866
Flags: W
AnchorPoint: "ogonek" 475 0 basechar 0
AnchorPoint: "half" 0 1520 basechar 0
AnchorPoint: "cedilla" 434 0 basechar 0
AnchorPoint: "below" 434 0 basechar 0
AnchorPoint: "above" 434 1520 basechar 0
LayerCount: 2
Fore
SplineSet
131 1493 m 1,0,-1
 735 1493 l 1,1,-1
 735 1323 l 1,2,-1
 534 1323 l 1,3,-1
 534 170 l 1,4,-1
 735 170 l 1,5,-1
 735 0 l 1,6,-1
 131 0 l 1,7,-1
 131 170 l 1,8,-1
 332 170 l 1,9,-1
 332 1323 l 1,10,-1
 131 1323 l 1,11,-1
 131 1493 l 1,0,-1
EndSplineSet
AlternateSubs2: "'aalt' Access All Alternates in Latin lookup 29" I.alt
Substitution2: "'salt' Stylistic Alternatives in Latin lookup 28" I.alt
EndChar
StartChar: J
Encoding: 74 74 74
Width: 1181
Flags: W
AnchorPoint: "half" 42 1520 basechar 0
AnchorPoint: "below" 631 -20 basechar 0
AnchorPoint: "above" 631 1520 basechar 0
LayerCount: 2
Fore
SplineSet
141 1493 m 1,0,-1
 1121 1493 l 1,1,-1
 1121 1323 l 1,2,-1
 732 1323 l 1,3,-1
 732 641 l 2,4,5
 732 339 732 339 577.5 169.5 c 128,-1,6
 423 0 423 0 217 0 c 2,7,-1
 92 0 l 1,8,-1
 92 170 l 1,9,-1
 203 170 l 2,10,11
 314 170 314 170 422 295.5 c 128,-1,12
 530 421 530 421 530 641 c 2,13,-1
 530 1323 l 1,14,-1
 141 1323 l 1,15,-1
 141 1493 l 1,0,-1
EndSplineSet
AlternateSubs2: "'aalt' Access All Alternates in Latin lookup 29" J.alt
Substitution2: "'salt' Stylistic Alternatives in Latin lookup 28" J.alt
EndChar
StartChar: K
Encoding: 75 75 75
Width: 1328
Flags: W
AnchorPoint: "half" 0 1520 basechar 0
AnchorPoint: "below" 655 0 basechar 0
AnchorPoint: "above" 655 1520 basechar 0
LayerCount: 2
Fore
SplineSet
186 1493 m 1,0,-1
 388 1493 l 1,1,-1
 388 863 l 1,2,-1
 947 1493 l 1,3,-1
 1207 1493 l 1,4,-1
 577 786 l 1,5,-1
 1260 0 l 1,6,-1
 994 0 l 1,7,-1
 388 697 l 1,8,-1
 388 0 l 1,9,-1
 186 0 l 1,10,-1
 186 1493 l 1,0,-1
EndSplineSet
EndChar
StartChar: L
Encoding: 76 76 76
Width: 1126
Flags: W
AnchorPoint: "half" 0 1520 basechar 0
AnchorPoint: "below" 650 0 basechar 0
AnchorPoint: "above" 283 1520 basechar 0
LayerCount: 2
Fore
SplineSet
186 1493 m 1,0,-1
 388 1493 l 1,1,-1
 388 170 l 1,2,-1
 1066 170 l 1,3,-1
 1066 0 l 1,4,-1
 186 0 l 1,5,-1
 186 1493 l 1,0,-1
EndSplineSet
EndChar
StartChar: M
Encoding: 77 77 77
Width: 1698
Flags: W
AnchorPoint: "cedilla" 284 0 basechar 0
AnchorPoint: "half" 0 1520 basechar 0
AnchorPoint: "below" 849 0 basechar 0
AnchorPoint: "above" 849 1520 basechar 0
LayerCount: 2
Fore
SplineSet
186 1493 m 1,0,-1
 486 1493 l 1,1,-1
 849 477 l 1,2,-1
 1212 1493 l 1,3,-1
 1512 1493 l 1,4,-1
 1512 0 l 1,5,-1
 1316 0 l 1,6,-1
 1316 1311 l 1,7,-1
 951 287 l 1,8,-1
 747 287 l 1,9,-1
 382 1311 l 1,10,-1
 382 0 l 1,11,-1
 186 0 l 1,12,-1
 186 1493 l 1,0,-1
EndSplineSet
EndChar
StartChar: N
Encoding: 78 78 78
Width: 1502
Flags: W
AnchorPoint: "cedilla" 284 0 basechar 0
AnchorPoint: "half" 0 1520 basechar 0
AnchorPoint: "below" 742 0 basechar 0
AnchorPoint: "above" 742 1520 basechar 0
LayerCount: 2
Fore
SplineSet
186 1493 m 1,0,-1
 458 1493 l 1,1,-1
 1120 244 l 1,2,-1
 1120 1493 l 1,3,-1
 1316 1493 l 1,4,-1
 1316 0 l 1,5,-1
 1044 0 l 1,6,-1
 382 1249 l 1,7,-1
 382 0 l 1,8,-1
 186 0 l 1,9,-1
 186 1493 l 1,0,-1
EndSplineSet
EndChar
StartChar: O
Encoding: 79 79 79
Width: 1612
Flags: W
AnchorPoint: "ogonek" 808 0 basechar 0
AnchorPoint: "half" 0 1520 basechar 0
AnchorPoint: "cedilla" 807 0 basechar 0
AnchorPoint: "below" 807 0 basechar 0
AnchorPoint: "above" 807 1520 basechar 0
LayerCount: 2
Fore
SplineSet
807 1356 m 128,-1,1
 587 1356 587 1356 457.5 1192 c 128,-1,2
 328 1028 328 1028 328 745 c 0,3,4
 328 463 328 463 457.5 299 c 128,-1,5
 587 135 587 135 807 135 c 128,-1,6
 1027 135 1027 135 1155.5 299 c 128,-1,7
 1284 463 1284 463 1284 745 c 0,8,9
 1284 1028 1284 1028 1155.5 1192 c 128,-1,0
 1027 1356 1027 1356 807 1356 c 128,-1,1
807 1520 m 0,10,11
 1121 1520 1121 1520 1309 1309.5 c 128,-1,12
 1497 1099 1497 1099 1497 745 c 0,13,14
 1497 392 1497 392 1309 181.5 c 128,-1,15
 1121 -29 1121 -29 807 -29 c 0,16,17
 492 -29 492 -29 303.5 181 c 128,-1,18
 115 391 115 391 115 745 c 128,-1,19
 115 1099 115 1099 303.5 1309.5 c 128,-1,20
 492 1520 492 1520 807 1520 c 0,10,11
EndSplineSet
EndChar
StartChar: P
Encoding: 80 80 80
Width: 1288
Flags: W
AnchorPoint: "half" 0 1520 basechar 0
AnchorPoint: "below" 685 0 basechar 0
AnchorPoint: "above" 685 1520 basechar 0
LayerCount: 2
Fore
SplineSet
388 1327 m 1,0,-1
 388 796 l 1,1,-1
 710 796 l 2,2,3
 851 796 851 796 928 876.5 c 128,-1,4
 1005 957 1005 957 1005 1062 c 0,5,6
 1005 1196 1005 1196 928 1261.5 c 128,-1,7
 851 1327 851 1327 710 1327 c 2,8,-1
 388 1327 l 1,0,-1
186 1493 m 1,9,-1
 710 1493 l 2,10,11
 961 1493 961 1493 1089.5 1387 c 128,-1,12
 1218 1281 1218 1281 1218 1062 c 0,13,14
 1218 841 1218 841 1089.5 735.5 c 128,-1,15
 961 630 961 630 710 630 c 2,16,-1
 388 630 l 1,17,-1
 388 0 l 1,18,-1
 186 0 l 1,19,-1
 186 1493 l 1,9,-1
EndSplineSet
EndChar
StartChar: Q
Encoding: 81 81 81
Width: 1612
Flags: W
AnchorPoint: "half" 0 1520 basechar 0
AnchorPoint: "below" 807 0 basechar 0
AnchorPoint: "above" 807 1520 basechar 0
LayerCount: 2
Fore
SplineSet
983 572 m 1,0,-1
 1502 58 l 1,1,-1
 1366 -53 l 1,2,-1
 847 461 l 1,3,-1
 983 572 l 1,0,-1
EndSplineSet
Refer: 79 79 N 1 0 0 1 0 0 2
EndChar
StartChar: R
Encoding: 82 82 82
Width: 1390
Flags: W
AnchorPoint: "above" 655 1520 basechar 0
AnchorPoint: "below" 655 0 basechar 0
AnchorPoint: "half" 0 1520 basechar 0
LayerCount: 2
Fore
SplineSet
186 1493 m 1,0,-1
 710 1493 l 2,1,2
 961 1493 961 1493 1089.5 1387 c 128,-1,3
 1218 1281 1218 1281 1218 1062 c 128,-1,4
 1218 843 1218 843 1090 736 c 0,5,6
 1066 716 1066 716 1000 685 c 1,7,-1
 1330 0 l 1,8,-1
 1104 0 l 1,9,-1
 794 634 l 1,10,11
 750 630 750 630 710 630 c 2,12,-1
 388 630 l 1,13,-1
 388 0 l 1,14,-1
 186 0 l 1,15,-1
 186 1493 l 1,0,-1
388 1327 m 1,16,-1
 388 796 l 1,17,-1
 710 796 l 2,18,19
 851 796 851 796 928 876.5 c 128,-1,20
 1005 957 1005 957 1005 1062 c 0,21,22
 1005 1196 1005 1196 928 1261.5 c 128,-1,23
 851 1327 851 1327 710 1327 c 2,24,-1
 388 1327 l 1,16,-1
EndSplineSet
EndChar
StartChar: S
Encoding: 83 83 83
Width: 1300
Flags: W
AnchorPoint: "half" 0 1520 basechar 0
AnchorPoint: "cedilla" 674 0 basechar 0
AnchorPoint: "below" 659 0 basechar 0
AnchorPoint: "above" 659 1520 basechar 0
LayerCount: 2
Fore
SplineSet
1096 1444 m 1,0,-1
 1096 1247 l 1,1,2
 981 1302 981 1302 879 1329 c 128,-1,3
 777 1356 777 1356 682 1356 c 0,4,5
 517 1356 517 1356 427.5 1292 c 128,-1,6
 338 1228 338 1228 338 1110 c 0,7,8
 338 1011 338 1011 397.5 960.5 c 128,-1,9
 457 910 457 910 623 879 c 1,10,-1
 745 854 l 1,11,12
 971 811 971 811 1078.5 702.5 c 128,-1,13
 1186 594 1186 594 1186 412 c 0,14,15
 1186 195 1186 195 1040.5 83 c 128,-1,16
 895 -29 895 -29 614 -29 c 0,17,18
 508 -29 508 -29 388.5 -5 c 128,-1,19
 269 19 269 19 141 66 c 1,20,-1
 141 274 l 1,21,22
 264 205 264 205 382 170 c 128,-1,23
 500 135 500 135 614 135 c 0,24,25
 787 135 787 135 881 203 c 128,-1,26
 975 271 975 271 975 397 c 0,27,28
 975 507 975 507 907.5 569 c 128,-1,29
 840 631 840 631 686 662 c 2,30,-1
 563 686 l 2,31,32
 337 731 337 731 236 827 c 128,-1,33
 135 923 135 923 135 1094 c 0,34,35
 135 1292 135 1292 274.5 1406 c 128,-1,36
 414 1520 414 1520 659 1520 c 0,37,38
 764 1520 764 1520 873 1501 c 128,-1,39
 982 1482 982 1482 1096 1444 c 1,0,-1
EndSplineSet
EndChar
StartChar: T
Encoding: 84 84 84
Width: 1250
Flags: W
AnchorPoint: "half" 0 1520 basechar 0
AnchorPoint: "below" 627 0 basechar 0
AnchorPoint: "above" 627 1520 basechar 0
LayerCount: 2
Fore
SplineSet
60 1493 m 1,0,-1
 1190 1493 l 1,1,-1
 1190 1323 l 1,2,-1
 727 1323 l 1,3,-1
 727 0 l 1,4,-1
 523 0 l 1,5,-1
 523 1323 l 1,6,-1
 60 1323 l 1,7,-1
 60 1493 l 1,0,-1
EndSplineSet
EndChar
StartChar: U
Encoding: 85 85 85
Width: 1499
Flags: W
AnchorPoint: "ogonek" 750 0 basechar 0
AnchorPoint: "half" 0 1520 basechar 0
AnchorPoint: "cedilla" 750 0 basechar 0
AnchorPoint: "below" 750 0 basechar 0
AnchorPoint: "above" 750 1520 basechar 0
LayerCount: 2
Fore
SplineSet
178 1493 m 1,0,-1
 381 1493 l 1,1,-1
 381 586 l 2,2,3
 381 346 381 346 468 240.5 c 128,-1,4
 555 135 555 135 750 135 c 0,5,6
 944 135 944 135 1031 240.5 c 128,-1,7
 1118 346 1118 346 1118 586 c 2,8,-1
 1118 1493 l 1,9,-1
 1321 1493 l 1,10,-1
 1321 561 l 2,11,12
 1321 269 1321 269 1176.5 120 c 128,-1,13
 1032 -29 1032 -29 750 -29 c 0,14,15
 467 -29 467 -29 322.5 120 c 128,-1,16
 178 269 178 269 178 561 c 2,17,-1
 178 1493 l 1,0,-1
EndSplineSet
EndChar
StartChar: V
Encoding: 86 86 86
Width: 1448
Flags: W
AnchorPoint: "half" 0 1520 basechar 0
AnchorPoint: "below" 724 0 basechar 0
AnchorPoint: "above" 724 1520 basechar 0
LayerCount: 2
Fore
SplineSet
610 0 m 1,0,-1
 60 1493 l 1,1,-1
 270 1493 l 1,2,-1
 724 236 l 1,3,-1
 1178 1493 l 1,4,-1
 1388 1493 l 1,5,-1
 838 0 l 1,6,-1
 610 0 l 1,0,-1
EndSplineSet
EndChar
StartChar: W
Encoding: 87 87 87
Width: 1916
Flags: W
AnchorPoint: "half" 0 1520 basechar 0
AnchorPoint: "below" 957 0 basechar 0
AnchorPoint: "above" 957 1520 basechar 0
LayerCount: 2
Fore
SplineSet
60 1493 m 1,0,-1
 265 1493 l 1,1,-1
 558 231 l 1,2,-1
 828 1493 l 1,3,-1
 1088 1493 l 1,4,-1
 1358 231 l 1,5,-1
 1651 1493 l 1,6,-1
 1856 1493 l 1,7,-1
 1506 0 l 1,8,-1
 1252 0 l 1,9,-1
 958 1296 l 1,10,-1
 664 0 l 1,11,-1
 410 0 l 1,12,-1
 60 1493 l 1,0,-1
EndSplineSet
EndChar
StartChar: X
Encoding: 88 88 88
Width: 1403
Flags: W
AnchorPoint: "half" 0 1520 basechar 0
AnchorPoint: "below" 717 0 basechar 0
AnchorPoint: "above" 717 1520 basechar 0
LayerCount: 2
Fore
SplineSet
129 1493 m 1,0,-1
 346 1493 l 1,1,-1
 717 938 l 1,2,-1
 1090 1493 l 1,3,-1
 1307 1493 l 1,4,-1
 827 776 l 1,5,-1
 1339 0 l 1,6,-1
 1122 0 l 1,7,-1
 702 635 l 1,8,-1
 279 0 l 1,9,-1
 61 0 l 1,10,-1
 594 797 l 1,11,-1
 129 1493 l 1,0,-1
EndSplineSet
EndChar
StartChar: Y
Encoding: 89 89 89
Width: 1336
Flags: W
AnchorPoint: "ogonek" 709 0 basechar 0
AnchorPoint: "half" 0 1520 basechar 0
AnchorPoint: "below" 667 0 basechar 0
AnchorPoint: "above" 667 1520 basechar 0
LayerCount: 2
Fore
SplineSet
60 1493 m 1,0,-1
 277 1493 l 1,1,-1
 668 879 l 1,2,-1
 1059 1493 l 1,3,-1
 1276 1493 l 1,4,-1
 768 711 l 1,5,-1
 768 0 l 1,6,-1
 565 0 l 1,7,-1
 565 711 l 1,8,-1
 60 1493 l 1,0,-1
EndSplineSet
EndChar
StartChar: Z
Encoding: 90 90 90
Width: 1403
Flags: W
AnchorPoint: "cedilla" 702 0 basechar 0
AnchorPoint: "ogonek" 702 -2.60001 basechar 0
AnchorPoint: "half" 0 1520 basechar 0
AnchorPoint: "below" 702 0 basechar 0
AnchorPoint: "above" 702 1520 basechar 0
LayerCount: 2
Fore
SplineSet
115 1493 m 1,0,-1
 1288 1493 l 1,1,-1
 1288 1339 l 1,2,-1
 344 170 l 1,3,-1
 1311 170 l 1,4,-1
 1311 0 l 1,5,-1
 92 0 l 1,6,-1
 92 154 l 1,7,-1
 1036 1323 l 1,8,-1
 115 1323 l 1,9,-1
 115 1493 l 1,0,-1
EndSplineSet
EndChar
StartChar: bracketleft
Encoding: 91 91 91
Width: 796
Flags: W
GlyphCompositionVertical: 3  uni23A3%0,0,40,2421 uni23A2%1,40,40,2445 uni23A1%0,40,0,2417
LayerCount: 2
Fore
SplineSet
186 1556 m 1,0,-1
 186 -270 l 1,1,-1
 610 -270 l 1,2,-1
 610 -127 l 1,3,-1
 371 -127 l 1,4,-1
 371 1413 l 1,5,-1
 610 1413 l 1,6,-1
 610 1556 l 1,7,-1
 186 1556 l 1,0,-1
EndSplineSet
EndChar
StartChar: backslash
Encoding: 92 92 92
Width: 690
Flags: W
LayerCount: 2
Fore
SplineSet
170 1493 m 1,0,-1
 690 -190 l 1,1,-1
 520 -190 l 1,2,-1
 0 1493 l 1,3,-1
 170 1493 l 1,0,-1
EndSplineSet
EndChar
StartChar: bracketright
Encoding: 93 93 93
Width: 796
Flags: W
GlyphCompositionVertical: 3  uni23A6%0,0,40,2406 uni23A5%1,40,40,2430 uni23A4%0,40,0,2417
LayerCount: 2
Fore
SplineSet
610 1556 m 1,0,-1
 610 -270 l 1,1,-1
 186 -270 l 1,2,-1
 186 -127 l 1,3,-1
 425 -127 l 1,4,-1
 425 1413 l 1,5,-1
 186 1413 l 1,6,-1
 186 1556 l 1,7,-1
 610 1556 l 1,0,-1
EndSplineSet
EndChar
StartChar: asciicircum
Encoding: 94 94 94
Width: 962
Flags: W
LayerCount: 2
Fore
SplineSet
352 1493 m 1,0,-1
 610 1493 l 1,1,-1
 902 1127 l 1,2,-1
 710 1127 l 1,3,4
 710 1126 710 1126 481 1372 c 1,5,-1
 252 1127 l 1,6,-1
 60 1127 l 1,7,-1
 352 1493 l 1,0,-1
EndSplineSet
EndChar
StartChar: underscore
Encoding: 95 95 95
Width: 1024
Flags: W
GlyphCompositionHorizontal: 2  underscore%0,0,40,1064 underscore%1,40,0,1064
LayerCount: 2
Fore
SplineSet
1024 -77 m 1,0,-1
 1024 -220 l 1,1,-1
 0 -220 l 1,2,-1
 0 -77 l 1,3,-1
 1024 -77 l 1,0,-1
EndSplineSet
EndChar
StartChar: grave
Encoding: 96 96 96
Width: 542
Flags: W
LayerCount: 2
Fore
SplineSet
224 1638 m 1,0,-1
 506 1264 l 1,1,-1
 353 1264 l 1,2,-1
 27 1638 l 1,3,-1
 224 1638 l 1,0,-1
EndSplineSet
EndChar
StartChar: a
Encoding: 97 97 97
Width: 1260
Flags: W
AnchorPoint: "ogonek" 947 0 basechar 0
AnchorPoint: "half" 0 1520 basechar 0
AnchorPoint: "cedilla" 977 0 basechar 0
AnchorPoint: "below" 586 0 basechar 0
AnchorPoint: "above" 586 1147 basechar 0 23
LayerCount: 2
Fore
SplineSet
1069 274 m 1,0,1
 1070 180 1070 180 1142 104 c 1,2,-1
 1024 0 l 1,3,4
 992 14 992 14 948 61 c 128,-1,5
 904 108 904 108 885 174 c 1,6,7
 762 -25 762 -25 498 -29 c 0,8,9
 329 -32 329 -32 224.5 67.5 c 0,10,11
 123 164 123 164 123 326 c 0,12,13
 123 707 123 707 627 707 c 2,14,-1
 885 707 l 1,15,-1
 885 725 l 2,16,17
 885 852 885 852 801.5 921.5 c 128,-1,18
 718 991 718 991 545.5 991 c 128,-1,19
 373 991 373 991 205 899 c 1,20,-1
 205 1069 l 1,21,22
 407 1147 407 1147 586 1147 c 0,23,24
 1069 1147 1069 1147 1069 639 c 2,25,-1
 1069 274 l 1,0,1
702 563 m 2,26,27
 479 563 479 563 393 512 c 128,-1,28
 307 461 307 461 307 350.5 c 128,-1,29
 307 240 307 240 371.5 182.5 c 128,-1,30
 436 125 436 125 547 125 c 0,31,32
 700 125 700 125 792.5 233.5 c 128,-1,33
 885 342 885 342 885 522 c 2,34,-1
 885 563 l 1,35,-1
 702 563 l 2,26,27
EndSplineSet
AlternateSubs2: "'aalt' Access All Alternates in Latin lookup 29" uni0251
Substitution2: "'salt' Stylistic Alternatives in Latin lookup 28" uni0251
EndChar
StartChar: b
Encoding: 98 98 98
Width: 1300
Flags: W
AnchorPoint: "half" 0 1520 basechar 0
AnchorPoint: "below" 695 0 basechar 0
AnchorPoint: "above" 278 1520 basechar 0
LayerCount: 2
Fore
SplineSet
371 952 m 1,0,-1
 371 1556 l 1,1,-1
 186 1556 l 1,2,-1
 186 0 l 1,3,-1
 371 0 l 1,4,-1
 371 170 l 1,5,6
 429 70 429 70 517.5 21.5 c 128,-1,7
 606 -27 606 -27 729 -27 c 0,8,9
 933 -27 933 -27 1060.5 135 c 128,-1,10
 1188 297 1188 297 1188 561 c 128,-1,11
 1188 825 1188 825 1060.5 987 c 128,-1,12
 933 1149 933 1149 729 1149 c 0,13,14
 606 1149 606 1149 517.5 1100.5 c 128,-1,15
 429 1052 429 1052 371 952 c 1,0,-1
997 561 m 128,-1,17
 997 358 997 358 913.5 242.5 c 128,-1,18
 830 127 830 127 684 127 c 128,-1,19
 538 127 538 127 454.5 242.5 c 128,-1,20
 371 358 371 358 371 561 c 128,-1,21
 371 764 371 764 454.5 879.5 c 128,-1,22
 538 995 538 995 684 995 c 128,-1,23
 830 995 830 995 913.5 879.5 c 128,-1,16
 997 764 997 764 997 561 c 128,-1,17
EndSplineSet
EndChar
StartChar: c
Encoding: 99 99 99
Width: 1126
Flags: W
AnchorPoint: "half" 0 1520 basechar 0
AnchorPoint: "cedilla" 678 0 basechar 0
AnchorPoint: "below" 676 0 basechar 0
AnchorPoint: "above" 676 1147 basechar 0 23
LayerCount: 2
Fore
SplineSet
999 1077 m 1,0,-1
 999 905 l 1,1,2
 921 948 921 948 842.5 969.5 c 128,-1,3
 764 991 764 991 684 991 c 0,4,5
 505 991 505 991 406 877.5 c 128,-1,6
 307 764 307 764 307 559 c 128,-1,7
 307 354 307 354 406 240.5 c 128,-1,8
 505 127 505 127 684 127 c 0,9,10
 764 127 764 127 842.5 148.5 c 128,-1,11
 921 170 921 170 999 213 c 1,12,-1
 999 43 l 1,13,14
 922 7 922 7 839.5 -11 c 128,-1,15
 757 -29 757 -29 664 -29 c 0,16,17
 411 -29 411 -29 262 130 c 128,-1,18
 113 289 113 289 113 559 c 0,19,20
 113 833 113 833 263.5 990 c 128,-1,21
 414 1147 414 1147 676 1147 c 0,22,23
 761 1147 761 1147 842 1129.5 c 128,-1,24
 923 1112 923 1112 999 1077 c 1,0,-1
EndSplineSet
EndChar
StartChar: d
Encoding: 100 100 100
Width: 1300
Flags: W
AnchorPoint: "cedilla" 614 0 basechar 0
AnchorPoint: "half" 0 1520 basechar 0
AnchorPoint: "below" 614 0 basechar 0
AnchorPoint: "above" 1022 1520 basechar 0
LayerCount: 2
Fore
SplineSet
929 952 m 1,0,-1
 929 1556 l 1,1,-1
 1114 1556 l 1,2,-1
 1114 0 l 1,3,-1
 929 0 l 1,4,-1
 929 99 l 1,5,6
 864 22 864 22 774 -6 c 0,7,8
 676.885304265 -34.6852236966 676.885304265 -34.6852236966 571 -27 c 0,9,10
 352.683212265 -8.80925793623 352.683212265 -8.80925793623 239.5 135 c 0,11,12
 112 297 112 297 112 561 c 128,-1,13
 112 825 112 825 239.5 987 c 128,-1,14
 367 1149 367 1149 571 1149 c 0,15,16
 694 1149 694 1149 782.5 1100.5 c 128,-1,17
 871 1052 871 1052 929 952 c 1,0,-1
303 561 m 128,-1,19
 303 358 303 358 386.508802845 242.740095731 c 0,20,21
 477.351380834 116.567381278 477.351380834 116.567381278 619.75 121.75 c 0,22,23
 772 127 772 127 866 247 c 0,24,25
 933.952625249 331.821178612 933.952625249 331.821178612 932.75 555.75 c 0,26,27
 932.732959133 758.899242292 932.732959133 758.899242292 845.5 879.5 c 0,28,29
 762 995 762 995 616 995 c 128,-1,30
 470 995 470 995 386.5 879.5 c 128,-1,18
 303 764 303 764 303 561 c 128,-1,19
EndSplineSet
EndChar
StartChar: e
Encoding: 101 101 101
Width: 1260
Flags: W
AnchorPoint: "ogonek" 876 0 basechar 0
AnchorPoint: "half" 0 1520 basechar 0
AnchorPoint: "cedilla" 662 0 basechar 0
AnchorPoint: "below" 662 0 basechar 0
AnchorPoint: "above" 662 1147 basechar 0 18
LayerCount: 2
Fore
SplineSet
1151 606 m 2,0,-1
 1151 516 l 1,1,-1
 305 516 l 1,2,3
 317 326 317 326 419.5 226.5 c 128,-1,4
 522 127 522 127 705 127 c 0,5,6
 811 127 811 127 910.5 153 c 128,-1,7
 1010 179 1010 179 1108 231 c 1,8,-1
 1108 57 l 1,9,10
 1009 15 1009 15 905 -7 c 128,-1,11
 801 -29 801 -29 694 -29 c 0,12,13
 426 -29 426 -29 269.5 127 c 128,-1,14
 113 283 113 283 113 549 c 0,15,16
 113 824 113 824 261.5 985.5 c 128,-1,17
 410 1147 410 1147 662 1147 c 0,18,19
 888 1147 888 1147 1019.5 1001.5 c 128,-1,20
 1151 856 1151 856 1151 606 c 2,0,-1
967 660 m 1,21,22
 965 811 965 811 882.5 901 c 128,-1,23
 800 991 800 991 664 991 c 0,24,25
 510 991 510 991 417.5 904 c 128,-1,26
 325 817 325 817 311 659 c 1,27,-1
 967 660 l 1,21,22
EndSplineSet
EndChar
StartChar: f
Encoding: 102 102 102
Width: 833
Flags: W
AnchorPoint: "half" 0 1520 basechar 0
AnchorPoint: "below" 328 0 basechar 0
AnchorPoint: "above" 493 1520 basechar 0
LayerCount: 2
Fore
SplineSet
773 1556 m 1,0,-1
 773 1403 l 1,1,-1
 597 1403 l 2,2,3
 498 1403 498 1403 459.5 1363 c 128,-1,4
 421 1323 421 1323 421 1219 c 2,5,-1
 421 1120 l 1,6,-1
 722 1120 l 1,7,-1
 722 977 l 1,8,-1
 421 977 l 1,9,-1
 421 0 l 1,10,-1
 236 0 l 1,11,-1
 236 977 l 1,12,-1
 60 977 l 1,13,-1
 60 1120 l 1,14,-1
 236 1120 l 1,15,-1
 236 1198 l 2,16,17
 236 1385 236 1385 323 1470.5 c 128,-1,18
 410 1556 410 1556 599 1556 c 2,19,-1
 773 1556 l 1,0,-1
EndSplineSet
EndChar
StartChar: g
Encoding: 103 103 103
Width: 1300
Flags: W
AnchorPoint: "half" 0 1520 basechar 0
AnchorPoint: "below" 678 -430 basechar 0
AnchorPoint: "above" 618 1147 basechar 0
LayerCount: 2
Fore
SplineSet
930 573 m 0,0,1
 930 773 930 773 847.5 883 c 128,-1,2
 765 993 765 993 616 993 c 0,3,4
 468 993 468 993 385.5 883 c 128,-1,5
 303 773 303 773 303 573 c 0,6,7
 303 374 303 374 385.5 264 c 128,-1,8
 468 154 468 154 616 154 c 0,9,10
 765 154 765 154 847.5 264 c 128,-1,11
 930 374 930 374 930 573 c 0,0,1
1114 129 m 2,12,13
 1114 -157 1114 -157 987 -296.5 c 128,-1,14
 860 -436 860 -436 598 -436 c 0,15,16
 501 -436 501 -436 415 -421.5 c 128,-1,17
 329 -407 329 -407 248 -377 c 1,18,-1
 248 -198 l 1,19,20
 329 -242 329 -242 408 -263 c 128,-1,21
 487 -284 487 -284 569 -284 c 0,22,23
 750 -284 750 -284 840 -189.5 c 128,-1,24
 930 -95 930 -95 930 96 c 2,25,-1
 930 197 l 1,26,27
 873 98 873 98 784 49 c 128,-1,28
 695 0 695 0 571 0 c 0,29,30
 365 0 365 0 239 157 c 128,-1,31
 113 314 113 314 113 573 c 0,32,33
 113 833 113 833 239 990 c 128,-1,34
 365 1147 365 1147 571 1147 c 0,35,36
 695 1147 695 1147 784 1098 c 128,-1,37
 873 1049 873 1049 930 950 c 1,38,-1
 930 1120 l 1,39,-1
 1114 1120 l 1,40,-1
 1114 129 l 2,12,13
EndSplineSet
EndChar
StartChar: h
Encoding: 104 104 104
Width: 1298
Flags: W
AnchorPoint: "cedilla" 278 0 basechar 0
AnchorPoint: "half" 0 1520 basechar 0
AnchorPoint: "below" 678 0 basechar 0
AnchorPoint: "above" 278 1520 basechar 0
LayerCount: 2
Fore
SplineSet
1124 676 m 2,0,-1
 1124 0 l 1,1,-1
 940 0 l 1,2,-1
 940 670 l 2,3,4
 940 829 940 829 878 908 c 128,-1,5
 816 987 816 987 692 987 c 0,6,7
 543 987 543 987 457 892 c 128,-1,8
 371 797 371 797 371 633 c 2,9,-1
 371 0 l 1,10,-1
 186 0 l 1,11,-1
 186 1556 l 1,12,-1
 371 1556 l 1,13,-1
 371 946 l 1,14,15
 437 1047 437 1047 526.5 1097 c 128,-1,16
 616 1147 616 1147 733 1147 c 0,17,18
 926 1147 926 1147 1025 1027.5 c 128,-1,19
 1124 908 1124 908 1124 676 c 2,0,-1
EndSplineSet
EndChar
StartChar: i
Encoding: 105 105 105
Width: 569
Flags: W
AnchorPoint: "ogonek" 318 0 basechar 0
AnchorPoint: "half" 0 1520 basechar 0
AnchorPoint: "cedilla" 287 0 basechar 0
AnchorPoint: "below" 287 0 basechar 0
AnchorPoint: "above" 287 1583 basechar 0
LayerCount: 2
Fore
SplineSet
193 1120 m 1,0,-1
 377 1120 l 1,1,-1
 377 0 l 1,2,-1
 193 0 l 1,3,-1
 193 1120 l 1,0,-1
193 1556 m 1,4,-1
 377 1556 l 1,5,-1
 377 1323 l 1,6,-1
 193 1323 l 1,7,-1
 193 1556 l 1,4,-1
EndSplineSet
Substitution2: "Single Substitution - Dotless Form" dotlessi
EndChar
StartChar: j
Encoding: 106 106 106
Width: 569
Flags: W
AnchorPoint: "half" 0 1520 basechar 0
AnchorPoint: "below" 287 -430 basechar 0
AnchorPoint: "above" 287 1583 basechar 0
LayerCount: 2
Fore
SplineSet
193 1120 m 1,0,-1
 377 1120 l 1,1,-1
 377 -30 l 2,2,3
 377 -244 377 -244 295.5 -340 c 128,-1,4
 214 -436 214 -436 33 -436 c 2,5,-1
 -37 -436 l 1,6,-1
 -37 -280 l 1,7,-1
 12 -280 l 2,8,9
 117 -280 117 -280 155 -231.5 c 128,-1,10
 193 -183 193 -183 193 -30 c 2,11,-1
 193 1120 l 1,0,-1
193 1556 m 1,12,-1
 377 1556 l 1,13,-1
 377 1323 l 1,14,-1
 193 1323 l 1,15,-1
 193 1556 l 1,12,-1
EndSplineSet
Substitution2: "Single Substitution - Dotless Form" dotlessj
EndChar
StartChar: k
Encoding: 107 107 107
Width: 1212
Flags: W
AnchorPoint: "half" 0 1520 basechar 0
AnchorPoint: "below" 678 0 basechar 0
AnchorPoint: "above" 278 1520 basechar 0
LayerCount: 2
Fore
SplineSet
186 1556 m 1,0,-1
 371 1556 l 1,1,-1
 371 637 l 1,2,-1
 866 1120 l 1,3,-1
 1101 1120 l 1,4,-1
 561 596 l 1,5,-1
 1152 0 l 1,6,-1
 912 0 l 1,7,-1
 371 547 l 1,8,-1
 371 0 l 1,9,-1
 186 0 l 1,10,-1
 186 1556 l 1,0,-1
EndSplineSet
EndChar
StartChar: l
Encoding: 108 108 108
Width: 566
Flags: W
AnchorPoint: "half" 0 1523 basechar 0
AnchorPoint: "above" 271 1520 basechar 0
LayerCount: 2
Fore
SplineSet
371 393 m 1,0,1
 371 393 371 393 370.5 313 c 128,-1,2
 370 233 370 233 376 210 c 0,3,4
 388 164 388 164 455 154 c 1,5,-1
 455 0 l 1,6,7
 294 0 294 0 240.5 62 c 128,-1,8
 187 124 187 124 186 190 c 1,9,10
 186 190 186 190 186 1556 c 1,11,-1
 371 1556 l 1,12,-1
 371 393 l 1,0,1
EndSplineSet
AlternateSubs2: "'aalt' Access All Alternates in Latin lookup 29" l.alt
Substitution2: "'salt' Stylistic Alternatives in Latin lookup 28" l.alt
EndChar
StartChar: m
Encoding: 109 109 109
Width: 1995
Flags: W
CounterMasks: 1 1c
AnchorPoint: "cedilla" 278 0 basechar 0
AnchorPoint: "half" 0 1520 basechar 0
AnchorPoint: "below" 1001 0 basechar 0
AnchorPoint: "above" 1001 1147 basechar 0
LayerCount: 2
Fore
SplineSet
1065 905 m 1,0,1
 1134 1029 1134 1029 1230 1088 c 128,-1,2
 1326 1147 1326 1147 1456 1147 c 0,3,4
 1631 1147 1631 1147 1726 1024.5 c 128,-1,5
 1821 902 1821 902 1821 676 c 2,6,-1
 1821 0 l 1,7,-1
 1636 0 l 1,8,-1
 1636 670 l 2,9,10
 1636 831 1636 831 1579 909 c 128,-1,11
 1522 987 1522 987 1405 987 c 0,12,13
 1262 987 1262 987 1179 892 c 128,-1,14
 1096 797 1096 797 1096 633 c 2,15,-1
 1096 0 l 1,16,-1
 911 0 l 1,17,-1
 911 670 l 2,18,19
 911 832 911 832 854 909.5 c 128,-1,20
 797 987 797 987 678 987 c 0,21,22
 537 987 537 987 454 891.5 c 128,-1,23
 371 796 371 796 371 633 c 2,24,-1
 371 0 l 1,25,-1
 186 0 l 1,26,-1
 186 1120 l 1,27,-1
 371 1120 l 1,28,-1
 371 946 l 1,29,30
 434 1049 434 1049 522 1098 c 128,-1,31
 610 1147 610 1147 731 1147 c 0,32,33
 853 1147 853 1147 938.5 1085 c 128,-1,34
 1024 1023 1024 1023 1065 905 c 1,0,1
EndSplineSet
EndChar
StartChar: n
Encoding: 110 110 110
Width: 1298
Flags: W
AnchorPoint: "cedilla" 278 0 basechar 0
AnchorPoint: "half" 0 1520 basechar 0
AnchorPoint: "below" 678 0 basechar 0
AnchorPoint: "above" 649 1147 basechar 0
LayerCount: 2
Fore
SplineSet
1124 676 m 2,0,-1
 1124 0 l 1,1,-1
 940 0 l 1,2,-1
 940 670 l 2,3,4
 940 829 940 829 878 908 c 128,-1,5
 816 987 816 987 692 987 c 0,6,7
 543 987 543 987 457 892 c 128,-1,8
 371 797 371 797 371 633 c 2,9,-1
 371 0 l 1,10,-1
 186 0 l 1,11,-1
 186 1120 l 1,12,-1
 371 1120 l 1,13,-1
 371 946 l 1,14,15
 437 1047 437 1047 526.5 1097 c 128,-1,16
 616 1147 616 1147 733 1147 c 0,17,18
 926 1147 926 1147 1025 1027.5 c 128,-1,19
 1124 908 1124 908 1124 676 c 2,0,-1
EndSplineSet
EndChar
StartChar: o
Encoding: 111 111 111
Width: 1260
InSpiro: 1
Flags: W
AnchorPoint: "ogonek" 631 0 basechar 0
AnchorPoint: "half" 0 1520 basechar 0
AnchorPoint: "cedilla" 630 0 basechar 0
AnchorPoint: "below" 630 0 basechar 0
AnchorPoint: "above" 873 1147 basechar 0 12
LayerCount: 2
Fore
SplineSet
630 991 m 0,0,1
 482 991 482 991 394.5 875.5 c 128,-1,2
 307 760 307 760 307 559 c 128,-1,3
 307 358 307 358 394 242.5 c 128,-1,4
 481 127 481 127 630 127 c 0,5,6
 780 127 780 127 866 243 c 128,-1,7
 952 359 952 359 952 559 c 0,8,9
 952 758 952 758 866 874.5 c 128,-1,10
 780 991 780 991 630 991 c 0,0,1
  Spiro
    630 991 o
    497.125 962.125 o
    394.5 875.5 o
    328.875 738.625 o
    307 559 o
    328.75 379.375 o
    394 242.5 o
    496.5 155.875 o
    630 127 o
    764 156 o
    866 243 o
    930.5 380 o
    952 559 o
    930.5 737.375 o
    866 874.5 o
    764 961.875 o
    0 0 z
  EndSpiro
630 1147 m 0,11,12
 873 1147 873 1147 1010 991 c 128,-1,13
 1147 835 1147 835 1147 559 c 0,14,15
 1147 284 1147 284 1010 127.5 c 128,-1,16
 873 -29 873 -29 630 -29 c 0,17,18
 389 -29 389 -29 251 127.5 c 128,-1,19
 113 284 113 284 113 559 c 0,20,21
 113 835 113 835 251 991 c 128,-1,22
 389 1147 389 1147 630 1147 c 0,11,12
  Spiro
    630 1147 o
    846.5 1108 o
    1010 991 o
    1112.75 805 o
    1147 559 o
    1112.75 313.625 o
    1010 127.5 o
    846.5 10.125 o
    630 -29 o
    414.75 10.125 o
    251 127.5 o
    147.5 313.625 o
    113 559 o
    147.5 805 o
    251 991 o
    414.75 1108 o
    0 0 z
  EndSpiro
EndSplineSet
EndChar
StartChar: p
Encoding: 112 112 112
Width: 1300
Flags: W
AnchorPoint: "half" 0 1520 basechar 0
AnchorPoint: "below" 678 -430 basechar 0
AnchorPoint: "above" 678 1147 basechar 0
LayerCount: 2
Fore
SplineSet
371 168 m 1,0,-1
 371 -436 l 1,1,-1
 186 -436 l 1,2,-1
 186 1120 l 1,3,-1
 371 1120 l 1,4,-1
 371 950 l 1,5,6
 429 1050 429 1050 517.5 1098.5 c 128,-1,7
 606 1147 606 1147 729 1147 c 0,8,9
 933 1147 933 1147 1060.5 985 c 128,-1,10
 1188 823 1188 823 1188 559 c 128,-1,11
 1188 295 1188 295 1060.5 133 c 128,-1,12
 933 -29 933 -29 729 -29 c 0,13,14
 606 -29 606 -29 517.5 19.5 c 128,-1,15
 429 68 429 68 371 168 c 1,0,-1
997 559 m 128,-1,17
 997 762 997 762 913.5 877.5 c 128,-1,18
 830 993 830 993 684 993 c 128,-1,19
 538 993 538 993 454.5 877.5 c 128,-1,20
 371 762 371 762 371 559 c 128,-1,21
 371 356 371 356 454.5 240.5 c 128,-1,22
 538 125 538 125 684 125 c 128,-1,23
 830 125 830 125 913.5 240.5 c 128,-1,16
 997 356 997 356 997 559 c 128,-1,17
EndSplineSet
EndChar
StartChar: q
Encoding: 113 113 113
Width: 1300
Flags: W
AnchorPoint: "cedilla" 614 1120 basechar 0
AnchorPoint: "half" 0 1520 basechar 0
AnchorPoint: "below" 648 -430 basechar 0
AnchorPoint: "above" 623 1147 basechar 0
LayerCount: 2
Fore
SplineSet
929 168 m 1,0,-1
 929 -436 l 1,1,-1
 1114 -436 l 1,2,-1
 1114 1120 l 1,3,-1
 929 1120 l 1,4,-1
 929 1021 l 1,5,6
 864 1098 864 1098 774 1126 c 0,7,8
 677 1155 677 1155 571 1147 c 0,9,10
 354 1129 354 1129 240 985 c 0,11,12
 112 823 112 823 112 559 c 128,-1,13
 112 295 112 295 239.5 133 c 128,-1,14
 367 -29 367 -29 571 -29 c 0,15,16
 694 -29 694 -29 782.5 19.5 c 128,-1,17
 871 68 871 68 929 168 c 1,0,-1
303 559 m 128,-1,19
 303 762 303 762 387 877 c 0,20,21
 478 1003 478 1003 620 998 c 0,22,23
 772 993 772 993 866 873 c 0,24,25
 934 788 934 788 933 564 c 0,26,27
 934 361 934 361 846 241 c 0,28,29
 762 125 762 125 616 125 c 128,-1,30
 470 125 470 125 386.5 240.5 c 128,-1,18
 303 356 303 356 303 559 c 128,-1,19
EndSplineSet
EndChar
StartChar: r
Encoding: 114 114 114
Width: 902
Flags: W
AnchorPoint: "half" 0 1520 basechar 0
AnchorPoint: "below" 535 0 basechar 0
AnchorPoint: "above" 535 1147 basechar 0
LayerCount: 2
Fore
SplineSet
843 948 m 1,0,1
 812 966 812 966 775 974.5 c 128,-1,2
 738 983 738 983 694 983 c 0,3,4
 538 983 538 983 454.5 881.5 c 128,-1,5
 371 780 371 780 371 590 c 2,6,-1
 371 0 l 1,7,-1
 186 0 l 1,8,-1
 186 1120 l 1,9,-1
 371 1120 l 1,10,-1
 371 946 l 1,11,12
 429 1048 429 1048 522 1097.5 c 128,-1,13
 615 1147 615 1147 748 1147 c 0,14,15
 767 1147 767 1147 790.5 1144.5 c 128,-1,16
 814 1142 814 1142 842 1137 c 1,17,-1
 843 948 l 1,0,1
EndSplineSet
EndChar
StartChar: s
Encoding: 115 115 115
Width: 1067
Flags: W
AnchorPoint: "half" 0 1520 basechar 0
AnchorPoint: "cedilla" 558 0 basechar 0
AnchorPoint: "below" 549 0 basechar 0
AnchorPoint: "above" 551 1147 basechar 0
LayerCount: 2
Fore
SplineSet
907 1087 m 1,0,-1
 907 913 l 1,1,2
 829 953 829 953 745 973 c 128,-1,3
 661 993 661 993 571 993 c 0,4,5
 434 993 434 993 365.5 951 c 128,-1,6
 297 909 297 909 297 825 c 0,7,8
 297 761 297 761 346 724.5 c 128,-1,9
 395 688 395 688 543 655 c 2,10,-1
 606 641 l 2,11,12
 802 599 802 599 884.5 522.5 c 128,-1,13
 967 446 967 446 967 309 c 0,14,15
 967 153 967 153 843.5 62 c 128,-1,16
 720 -29 720 -29 504 -29 c 0,17,18
 414 -29 414 -29 316.5 -11.5 c 128,-1,19
 219 6 219 6 111 41 c 1,20,-1
 111 231 l 1,21,22
 213 178 213 178 312 151.5 c 128,-1,23
 411 125 411 125 508 125 c 0,24,25
 638 125 638 125 708 169.5 c 128,-1,26
 778 214 778 214 778 295 c 0,27,28
 778 370 778 370 727.5 410 c 128,-1,29
 677 450 677 450 506 487 c 2,30,-1
 442 502 l 1,31,32
 271 538 271 538 195 612.5 c 128,-1,33
 119 687 119 687 119 817 c 0,34,35
 119 975 119 975 231 1061 c 128,-1,36
 343 1147 343 1147 549 1147 c 0,37,38
 651 1147 651 1147 741 1132 c 128,-1,39
 831 1117 831 1117 907 1087 c 1,0,-1
EndSplineSet
EndChar
StartChar: t
Encoding: 116 116 116
Width: 819
Flags: W
AnchorPoint: "half" 5 1520 basechar 0
AnchorPoint: "below" 505 0 basechar 0
AnchorPoint: "above" 287 1520 basechar 0
LayerCount: 2
Fore
SplineSet
380 1438 m 1,0,-1
 380 1120 l 1,1,-1
 759 1120 l 1,2,-1
 759 977 l 1,3,-1
 380 977 l 1,4,-1
 380 369 l 2,5,6
 380 232 380 232 417.5 193 c 128,-1,7
 455 154 455 154 570 154 c 2,8,-1
 759 154 l 1,9,-1
 759 0 l 1,10,-1
 570 0 l 2,11,12
 357 0 357 0 276 79.5 c 128,-1,13
 195 159 195 159 195 369 c 2,14,-1
 195 977 l 1,15,-1
 60 977 l 1,16,-1
 60 1120 l 1,17,-1
 195 1120 l 1,18,-1
 195 1438 l 1,19,-1
 380 1438 l 1,0,-1
EndSplineSet
EndChar
StartChar: u
Encoding: 117 117 117
Width: 1260
Flags: W
AnchorPoint: "ogonek" 1008 0 basechar 0
AnchorPoint: "half" 0 1520 basechar 0
AnchorPoint: "cedilla" 594 0 basechar 0
AnchorPoint: "below" 594 0 basechar 0
AnchorPoint: "above" 594 1147 basechar 0 23
LayerCount: 2
Fore
SplineSet
1142 104 m 1,0,-1
 1024 0 l 1,1,2
 992 14 992 14 948 59 c 0,3,4
 900.641221374 107.435114504 900.641221374 107.435114504 884 174 c 1,5,6
 753 -27 753 -27 522 -27 c 0,7,8
 329 -27 329 -27 230 92.5 c 128,-1,9
 131 212 131 212 131 444 c 2,10,-1
 131 1120 l 1,11,-1
 315 1120 l 1,12,-1
 315 450 l 2,13,14
 315 133 315 133 563 133 c 0,15,16
 712 133 712 133 798 228 c 128,-1,17
 884 323 884 323 884 487 c 2,18,-1
 884 1120 l 1,19,-1
 1069 1120 l 1,20,-1
 1069 274 l 1,21,22
 1070 180 1070 180 1142 104 c 1,0,-1
594 1147 m 1049,23,-1
EndSplineSet
EndChar
StartChar: v
Encoding: 118 118 118
Width: 1212
Flags: W
AnchorPoint: "half" 0 1520 basechar 0
AnchorPoint: "below" 606 0 basechar 0
AnchorPoint: "above" 606 1147 basechar 0
LayerCount: 2
Fore
SplineSet
61 1120 m 1,0,-1
 256 1120 l 1,1,-1
 606 180 l 1,2,-1
 956 1120 l 1,3,-1
 1151 1120 l 1,4,-1
 731 0 l 1,5,-1
 481 0 l 1,6,-1
 61 1120 l 1,0,-1
EndSplineSet
EndChar
StartChar: w
Encoding: 119 119 119
Width: 1675
Flags: W
AnchorPoint: "half" 0 1520 basechar 0
AnchorPoint: "below" 839 0 basechar 0
AnchorPoint: "above" 839 1147 basechar 0
LayerCount: 2
Fore
SplineSet
86 1120 m 1,0,-1
 270 1120 l 1,1,-1
 500 246 l 1,2,-1
 729 1120 l 1,3,-1
 946 1120 l 1,4,-1
 1176 246 l 1,5,-1
 1405 1120 l 1,6,-1
 1589 1120 l 1,7,-1
 1296 0 l 1,8,-1
 1079 0 l 1,9,-1
 838 918 l 1,10,-1
 596 0 l 1,11,-1
 379 0 l 1,12,-1
 86 1120 l 1,0,-1
EndSplineSet
EndChar
StartChar: x
Encoding: 120 120 120
Width: 1212
Flags: W
AnchorPoint: "half" 0 1520 basechar 0
AnchorPoint: "below" 610 0 basechar 0
AnchorPoint: "above" 610 1147 basechar 0
LayerCount: 2
Fore
SplineSet
1124 1120 m 1,0,-1
 719 575 l 1,1,-1
 1145 0 l 1,2,-1
 928 0 l 1,3,-1
 602 440 l 1,4,-1
 276 0 l 1,5,-1
 59 0 l 1,6,-1
 494 586 l 1,7,-1
 96 1120 l 1,8,-1
 313 1120 l 1,9,-1
 610 721 l 1,10,-1
 907 1120 l 1,11,-1
 1124 1120 l 1,0,-1
EndSplineSet
EndChar
StartChar: y
Encoding: 121 121 121
Width: 1212
Flags: W
AnchorPoint: "ogonek" 250 -436 basechar 0
AnchorPoint: "half" 0 1520 basechar 0
AnchorPoint: "below" 608 -440 basechar 0
AnchorPoint: "above" 608 1147 basechar 0
LayerCount: 2
Fore
SplineSet
659 -114 m 1,0,1
 581 -314 581 -314 507 -375 c 128,-1,2
 433 -436 433 -436 309 -436 c 2,3,-1
 162 -436 l 1,4,-1
 162 -282 l 1,5,-1
 270 -282 l 2,6,7
 346 -282 346 -282 388 -246 c 128,-1,8
 430 -210 430 -210 481 -76 c 1,9,-1
 514 18 l 1,10,-1
 61 1120 l 1,11,-1
 256 1120 l 1,12,-1
 606 244 l 1,13,-1
 956 1120 l 1,14,-1
 1151 1120 l 1,15,-1
 659 -114 l 1,0,1
EndSplineSet
AlternateSubs2: "'aalt' Access All Alternates in Latin lookup 29" y.alt
EndChar
StartChar: z
Encoding: 122 122 122
Width: 1075
Flags: W
AnchorPoint: "cedilla" 535 0 basechar 0
AnchorPoint: "ogonek" 535 0 basechar 0
AnchorPoint: "half" 0 1520 basechar 0
AnchorPoint: "below" 535 0 basechar 0
AnchorPoint: "above" 535 1147 basechar 0
LayerCount: 2
Fore
SplineSet
113 1120 m 1,0,-1
 987 1120 l 1,1,-1
 987 952 l 1,2,-1
 295 147 l 1,3,-1
 987 147 l 1,4,-1
 987 0 l 1,5,-1
 88 0 l 1,6,-1
 88 168 l 1,7,-1
 780 973 l 1,8,-1
 113 973 l 1,9,-1
 113 1120 l 1,0,-1
EndSplineSet
EndChar
StartChar: braceleft
Encoding: 123 123 123
Width: 1163
Flags: W
GlyphCompositionVertical: 5  uni23A9%0,0,40,2418 uni23AA%1,40,40,2456 uni23A8%0,40,40,2442 uni23AA%1,40,40,2456 uni23A7%0,40,0,2435
LayerCount: 2
Fore
SplineSet
977 -190 m 1,0,-1
 977 -334 l 1,1,-1
 915 -334 l 2,2,3
 666 -334 666 -334 581.5 -260 c 128,-1,4
 497 -186 497 -186 497 35 c 2,5,-1
 497 274 l 2,6,7
 497 425 497 425 443 483 c 128,-1,8
 389 541 389 541 247 541 c 2,9,-1
 186 541 l 1,10,-1
 186 684 l 1,11,-1
 247 684 l 2,12,13
 390 684 390 684 443.5 741.5 c 128,-1,14
 497 799 497 799 497 948 c 2,15,-1
 497 1188 l 2,16,17
 497 1409 497 1409 581.5 1482.5 c 128,-1,18
 666 1556 666 1556 915 1556 c 2,19,-1
 977 1556 l 1,20,-1
 977 1413 l 1,21,-1
 909 1413 l 2,22,23
 768 1413 768 1413 725 1369 c 128,-1,24
 682 1325 682 1325 682 1184 c 2,25,-1
 682 936 l 2,26,27
 682 779 682 779 636.5 708 c 128,-1,28
 591 637 591 637 481 612 c 1,29,30
 592 585 592 585 637 514 c 128,-1,31
 682 443 682 443 682 287 c 2,32,-1
 682 39 l 2,33,34
 682 -102 682 -102 725 -146 c 128,-1,35
 768 -190 768 -190 909 -190 c 2,36,-1
 977 -190 l 1,0,-1
EndSplineSet
EndChar
StartChar: bar
Encoding: 124 124 124
Width: 690
Flags: W
GlyphCompositionVertical: 2  bar%0,0,40,2048 bar%1,40,0,2048
LayerCount: 2
Fore
SplineSet
430 1556 m 1,0,-1
 430 -492 l 1,1,-1
 260 -492 l 1,2,-1
 260 1556 l 1,3,-1
 430 1556 l 1,0,-1
EndSplineSet
EndChar
StartChar: braceright
Encoding: 125 125 125
Width: 1163
Flags: W
GlyphCompositionVertical: 5  uni23AD%0,0,40,2418 uni23AA%1,40,40,2456 uni23AC%0,40,40,2442 uni23AA%1,40,40,2456 uni23AB%0,40,0,2435
LayerCount: 2
Fore
SplineSet
186 -190 m 1,0,-1
 186 -334 l 1,1,-1
 248 -334 l 2,2,3
 497 -334 497 -334 581.5 -260 c 128,-1,4
 666 -186 666 -186 666 35 c 2,5,-1
 666 274 l 2,6,7
 666 425 666 425 720 483 c 128,-1,8
 774 541 774 541 916 541 c 2,9,-1
 977 541 l 1,10,-1
 977 684 l 1,11,-1
 916 684 l 2,12,13
 773 684 773 684 719.5 741.5 c 128,-1,14
 666 799 666 799 666 948 c 2,15,-1
 666 1188 l 2,16,17
 666 1409 666 1409 581.5 1482.5 c 128,-1,18
 497 1556 497 1556 248 1556 c 2,19,-1
 186 1556 l 1,20,-1
 186 1413 l 1,21,-1
 254 1413 l 2,22,23
 395 1413 395 1413 438 1369 c 128,-1,24
 481 1325 481 1325 481 1184 c 2,25,-1
 481 936 l 2,26,27
 481 779 481 779 526.5 708 c 128,-1,28
 572 637 572 637 682 612 c 1,29,30
 571 585 571 585 526 514 c 128,-1,31
 481 443 481 443 481 287 c 2,32,-1
 481 39 l 2,33,34
 481 -102 481 -102 438 -146 c 128,-1,35
 395 -190 395 -190 254 -190 c 2,36,-1
 186 -190 l 1,0,-1
EndSplineSet
EndChar
StartChar: asciitilde
Encoding: 126 126 126
Width: 1300
Flags: W
LayerCount: 2
Fore
SplineSet
644 480 m 1,0,-1
 564 526 l 2,1,2
 501 562 501 562 459.5 562 c 128,-1,3
 418 562 418 562 390 526.5 c 128,-1,4
 362 491 362 491 362 428 c 2,5,-1
 362 420 l 1,6,-1
 186 420 l 1,7,8
 186 562 186 562 258.5 644.5 c 128,-1,9
 331 727 331 727 452 727 c 0,10,11
 503 727 503 727 545.5 716 c 128,-1,12
 588 705 588 705 656 667 c 1,13,-1
 736 625 l 1,14,15
 798.222222222 590 798.222222222 590 840.111111111 590 c 128,-1,16
 882 590 882 590 910 625.5 c 128,-1,17
 938 661 938 661 938 719 c 2,18,-1
 938 727 l 1,19,-1
 1114 727 l 1,20,21
 1111 586 1111 586 1038.5 503 c 128,-1,22
 966 420 966 420 848 420 c 0,23,24
 800 420 800 420 758.5 431 c 128,-1,25
 717 442 717 442 644 480 c 1,0,-1
EndSplineSet
EndChar
StartChar: exclamdown
Encoding: 161 161 161
Width: 585
Flags: W
LayerCount: 2
Fore
SplineSet
186 810 m 1,0,-1
 389 810 l 1,1,-1
 389 1064 l 1,2,-1
 186 1064 l 1,3,-1
 186 810 l 1,0,-1
186 -429 m 1,4,-1
 389 -429 l 1,5,-1
 389 226 l 1,6,-1
 369 583 l 1,7,-1
 207 583 l 1,8,-1
 186 226 l 1,9,-1
 186 -429 l 1,4,-1
EndSplineSet
Substitution2: "'case' Case-Sensitive Forms" exclamdown.case
EndChar
StartChar: cent
Encoding: 162 162 162
Width: 1303
Flags: W
LayerCount: 2
Fore
SplineSet
678 131 m 1,0,-1
 678 987 l 1,1,2
 531 969 531 969 449 856 c 128,-1,3
 367 743 367 743 367 559 c 0,4,5
 367 374 367 374 449 261 c 128,-1,6
 531 148 531 148 678 131 c 1,0,-1
1059 1077 m 1,7,-1
 1059 905 l 1,8,9
 985 946 985 946 917 967 c 128,-1,10
 849 988 849 988 781 991 c 1,11,-1
 780 127 l 1,12,13
 850 132 850 132 918.5 153 c 128,-1,14
 987 174 987 174 1059 213 c 1,15,-1
 1059 43 l 1,16,17
 994 13 994 13 925.5 -4.5 c 128,-1,18
 857 -22 857 -22 780 -29 c 1,19,-1
 780 -313 l 1,20,-1
 678 -313 l 1,21,-1
 678 -25 l 1,22,23
 437 -5 437 -5 304.5 148.5 c 128,-1,24
 172 302 172 302 172 559 c 0,25,26
 172 817 172 817 304.5 970 c 128,-1,27
 437 1123 437 1123 678 1145 c 1,28,-1
 678 1432 l 1,29,-1
 780 1432 l 1,30,-1
 781 1145 l 1,31,32
 854 1141 854 1141 922.5 1124.5 c 128,-1,33
 991 1108 991 1108 1059 1077 c 1,7,-1
EndSplineSet
EndChar
StartChar: sterling
Encoding: 163 163 163
Width: 1303
Flags: W
LayerCount: 2
Fore
SplineSet
1102 1460 m 1,0,-1
 1102 1278 l 1,1,2
 1026 1319 1026 1319 958 1339.5 c 128,-1,3
 890 1360 890 1360 829 1360 c 0,4,5
 681 1360 681 1360 623 1282.5 c 128,-1,6
 565 1205 565 1205 565 993 c 2,7,-1
 565 778 l 1,8,-1
 956 778 l 1,9,-1
 956 635 l 1,10,-1
 565 635 l 1,11,-1
 565 170 l 1,12,-1
 1122 170 l 1,13,-1
 1122 0 l 1,14,-1
 129 0 l 1,15,-1
 129 170 l 1,16,-1
 365 170 l 1,17,-1
 365 635 l 1,18,-1
 166 635 l 1,19,-1
 166 778 l 1,20,-1
 365 778 l 1,21,-1
 365 1016 l 2,22,23
 365 1277 365 1277 472 1398.5 c 128,-1,24
 579 1520 579 1520 811 1520 c 0,25,26
 872 1520 872 1520 947.5 1504.5 c 128,-1,27
 1023 1489 1023 1489 1102 1460 c 1,0,-1
EndSplineSet
EndChar
StartChar: currency
Encoding: 164 164 164
Width: 1303
Flags: W
LayerCount: 2
Fore
SplineSet
891 993 m 1,0,-1
 1098 1202 l 1,1,-1
 1212 1087 l 1,2,-1
 1006 881 l 1,3,4
 1043 822 1043 822 1061 762.5 c 128,-1,5
 1079 703 1079 703 1079 641 c 0,6,7
 1079 578 1079 578 1060 520.5 c 128,-1,8
 1041 463 1041 463 1001 406 c 1,9,-1
 1210 199 l 1,10,-1
 1096 86 l 1,11,-1
 889 293 l 1,12,13
 830 253 830 253 772 234 c 128,-1,14
 714 215 714 215 653 215 c 0,15,16
 595 215 595 215 535 233.5 c 128,-1,17
 475 252 475 252 414 289 c 1,18,-1
 207 82 l 1,19,-1
 94 197 l 1,20,-1
 301 403 l 1,21,22
 264 465 264 465 245.5 524 c 128,-1,23
 227 583 227 583 227 641 c 0,24,25
 227 705 227 705 246 763 c 128,-1,26
 265 821 265 821 303 877 c 1,27,-1
 96 1083 l 1,28,-1
 211 1198 l 1,29,-1
 418 991 l 1,30,31
 473 1030 473 1030 531 1048.5 c 128,-1,32
 589 1067 589 1067 653 1067 c 0,33,34
 713 1067 713 1067 771.5 1049 c 128,-1,35
 830 1031 830 1031 891 993 c 1,0,-1
922 643 m 0,36,37
 922 755 922 755 844.5 832 c 128,-1,38
 767 909 767 909 653 909 c 0,39,40
 541 909 541 909 462 832 c 128,-1,41
 383 755 383 755 383 643 c 0,42,43
 383 529 383 529 461.5 451 c 128,-1,44
 540 373 540 373 653 373 c 128,-1,45
 766 373 766 373 844 451.5 c 128,-1,46
 922 530 922 530 922 643 c 0,36,37
EndSplineSet
EndChar
StartChar: yen
Encoding: 165 165 165
Width: 1303
Flags: W
LayerCount: 2
Fore
SplineSet
1165 455 m 1,0,-1
 752 455 l 1,1,-1
 752 0 l 1,2,-1
 551 0 l 1,3,-1
 551 455 l 1,4,-1
 135 455 l 1,5,-1
 135 578 l 1,6,-1
 551 578 l 1,7,-1
 551 629 l 1,8,-1
 467 784 l 1,9,-1
 135 784 l 1,10,-1
 135 907 l 1,11,-1
 399 907 l 1,12,-1
 82 1493 l 1,13,-1
 272 1493 l 1,14,-1
 651 793 l 1,15,-1
 1028 1493 l 1,16,-1
 1219 1493 l 1,17,-1
 901 907 l 1,18,-1
 1165 907 l 1,19,-1
 1165 784 l 1,20,-1
 834 784 l 1,21,-1
 750 629 l 1,22,-1
 750 578 l 1,23,-1
 1165 578 l 1,24,-1
 1165 455 l 1,0,-1
EndSplineSet
EndChar
StartChar: brokenbar
Encoding: 166 166 166
Width: 690
Flags: W
LayerCount: 2
Fore
SplineSet
430 399 m 1,0,-1
 430 -492 l 1,1,-1
 260 -492 l 1,2,-1
 260 399 l 1,3,-1
 430 399 l 1,0,-1
430 1556 m 1,4,-1
 430 665 l 1,5,-1
 260 665 l 1,6,-1
 260 1556 l 1,7,-1
 430 1556 l 1,4,-1
EndSplineSet
EndChar
StartChar: section
Encoding: 167 167 167
Width: 1024
Flags: W
LayerCount: 2
Fore
SplineSet
379 936 m 1,0,1
 316 890 316 890 285 845 c 128,-1,2
 254 800 254 800 254 754 c 0,3,4
 254 678 254 678 323.5 611.5 c 128,-1,5
 393 545 393 545 643 410 c 1,6,7
 706 455 706 455 737 500.5 c 128,-1,8
 768 546 768 546 768 592 c 0,9,10
 768 667 768 667 696.5 735 c 128,-1,11
 625 803 625 803 379 936 c 1,0,1
829 1462 m 1,12,-1
 829 1298 l 1,13,14
 746 1337 746 1337 674.5 1356.5 c 128,-1,15
 603 1376 603 1376 547 1376 c 0,16,17
 450 1376 450 1376 396 1336 c 128,-1,18
 342 1296 342 1296 342 1225 c 0,19,20
 342 1135 342 1135 548 1020 c 0,21,22
 574 1005 574 1005 588 997 c 0,23,24
 799 878 799 878 864.5 801 c 128,-1,25
 930 724 930 724 930 623 c 0,26,27
 930 533 930 533 884 463 c 128,-1,28
 838 393 838 393 745 340 c 1,29,30
 807 288 807 288 835.5 233.5 c 128,-1,31
 864 179 864 179 864 115 c 0,32,33
 864 -27 864 -27 762 -111 c 128,-1,34
 660 -195 660 -195 487 -195 c 0,35,36
 414 -195 414 -195 337 -180.5 c 128,-1,37
 260 -166 260 -166 172 -137 c 1,38,-1
 172 27 l 1,39,40
 259 -12 259 -12 333 -31.5 c 128,-1,41
 407 -51 407 -51 465 -51 c 0,42,43
 567 -51 567 -51 623.5 -9 c 128,-1,44
 680 33 680 33 680 109 c 0,45,46
 680 211 680 211 459 334 c 2,47,-1
 434 348 l 2,48,49
 220 468 220 468 156 544.5 c 128,-1,50
 92 621 92 621 92 723 c 0,51,52
 92 814 92 814 138.5 885.5 c 128,-1,53
 185 957 185 957 276 1006 c 1,54,55
 217 1050 217 1050 187.5 1106 c 128,-1,56
 158 1162 158 1162 158 1231 c 0,57,58
 158 1361 158 1361 258 1440.5 c 128,-1,59
 358 1520 358 1520 524 1520 c 0,60,61
 597 1520 597 1520 673.5 1505.5 c 128,-1,62
 750 1491 750 1491 829 1462 c 1,12,-1
EndSplineSet
EndChar
StartChar: dieresis
Encoding: 168 168 168
Width: 1024
Flags: W
LayerCount: 2
Fore
SplineSet
606 1552 m 1,0,-1
 809 1552 l 1,1,-1
 809 1350 l 1,2,-1
 606 1350 l 1,3,-1
 606 1552 l 1,0,-1
215 1552 m 1,4,-1
 418 1552 l 1,5,-1
 418 1350 l 1,6,-1
 215 1350 l 1,7,-1
 215 1552 l 1,4,-1
EndSplineSet
LCarets2: 1 0
EndChar
StartChar: copyright
Encoding: 169 169 169
Width: 2048
Flags: W
LayerCount: 2
Fore
SplineSet
1024 1485 m 128,-1,1
 1176 1485 1176 1485 1307.5 1430 c 128,-1,2
 1439 1375 1439 1375 1548 1266 c 128,-1,3
 1657 1157 1657 1157 1711 1026 c 128,-1,4
 1765 895 1765 895 1765 741 c 0,5,6
 1765 589 1765 589 1711 458.5 c 128,-1,7
 1657 328 1657 328 1548 219 c 128,-1,8
 1439 110 1439 110 1307.5 55 c 128,-1,9
 1176 0 1176 0 1024 0 c 128,-1,10
 872 0 872 0 740.5 55 c 128,-1,11
 609 110 609 110 500 219 c 128,-1,12
 391 328 391 328 337 458.5 c 128,-1,13
 283 589 283 589 283 741 c 0,14,15
 283 895 283 895 337 1026 c 128,-1,16
 391 1157 391 1157 500 1266 c 128,-1,17
 609 1375 609 1375 740.5 1430 c 128,-1,0
 872 1485 872 1485 1024 1485 c 128,-1,1
1024 1382 m 0,18,19
 893 1382 893 1382 780 1335 c 128,-1,20
 667 1288 667 1288 573 1194 c 128,-1,21
 479 1100 479 1100 431 985.5 c 128,-1,22
 383 871 383 871 383 741 c 0,23,24
 383 612 383 612 431 498.5 c 128,-1,25
 479 385 479 385 573 291 c 128,-1,26
 667 197 667 197 780 149.5 c 128,-1,27
 893 102 893 102 1024 102 c 0,28,29
 1156 102 1156 102 1269.5 149.5 c 128,-1,30
 1383 197 1383 197 1477 291 c 0,31,32
 1570 384 1570 384 1616.5 497 c 128,-1,33
 1663 610 1663 610 1663 741 c 0,34,35
 1663 874 1663 874 1616 987.5 c 128,-1,36
 1569 1101 1569 1101 1477 1194 c 0,37,38
 1383 1288 1383 1288 1269.5 1335 c 128,-1,39
 1156 1382 1156 1382 1024 1382 c 0,18,19
1323 1137 m 1,40,-1
 1323 1008 l 1,41,42
 1257 1041 1257 1041 1192 1057 c 128,-1,43
 1127 1073 1127 1073 1061 1073 c 0,44,45
 912 1073 912 1073 828.5 985.5 c 128,-1,46
 745 898 745 898 745 741 c 0,47,48
 745 582 745 582 830.5 495 c 128,-1,49
 916 408 916 408 1071 408 c 0,50,51
 1135 408 1135 408 1196 423.5 c 128,-1,52
 1257 439 1257 439 1323 473 c 1,53,-1
 1323 346 l 1,54,55
 1256 317 1256 317 1187.5 303 c 128,-1,56
 1119 289 1119 289 1049 289 c 0,57,58
 833 289 833 289 707.5 411 c 128,-1,59
 582 533 582 533 582 741 c 0,60,61
 582 950 582 950 707.5 1071 c 128,-1,62
 833 1192 833 1192 1049 1192 c 0,63,64
 1122 1192 1122 1192 1190 1178 c 128,-1,65
 1258 1164 1258 1164 1323 1137 c 1,40,-1
EndSplineSet
EndChar
StartChar: ordfeminine
Encoding: 170 170 170
Width: 965
Flags: W
LayerCount: 2
Fore
SplineSet
139 592 m 1,0,-1
 827 592 l 1,1,-1
 827 469 l 1,2,-1
 139 469 l 1,3,-1
 139 592 l 1,0,-1
825 1165 m 2,4,-1
 825 717 l 1,5,-1
 676 717 l 1,6,-1
 676 829 l 1,7,8
 632 766 632 766 560 732 c 128,-1,9
 488 698 488 698 395 698 c 0,10,11
 267 698 267 698 191 765.5 c 128,-1,12
 115 833 115 833 115 946 c 0,13,14
 115 1081 115 1081 210.5 1150 c 128,-1,15
 306 1219 306 1219 494 1219 c 2,16,-1
 676 1219 l 1,17,-1
 676 1223 l 2,18,19
 676 1314 676 1314 617.5 1359.5 c 128,-1,20
 559 1405 559 1405 442 1405 c 0,21,22
 380 1405 380 1405 312 1388 c 128,-1,23
 244 1371 244 1371 176 1337 c 1,24,-1
 176 1464 l 1,25,26
 249 1492 249 1492 321.5 1506 c 128,-1,27
 394 1520 394 1520 463 1520 c 0,28,29
 646 1520 646 1520 735.5 1432 c 128,-1,30
 825 1344 825 1344 825 1165 c 2,4,-1
549 1104 m 2,31,32
 388 1104 388 1104 325 1070.5 c 128,-1,33
 262 1037 262 1037 262 958 c 0,34,35
 262 894 262 894 311 855.5 c 128,-1,36
 360 817 360 817 442 817 c 0,37,38
 546 817 546 817 611 889 c 128,-1,39
 676 961 676 961 676 1075 c 2,40,-1
 676 1104 l 1,41,-1
 549 1104 l 2,31,32
EndSplineSet
EndChar
StartChar: guillemotleft
Encoding: 171 171 171
Width: 1253
Flags: W
LayerCount: 2
Fore
SplineSet
1061 1059 m 1,0,-1
 1061 868 l 1,1,-1
 760 600 l 1,2,-1
 1061 332 l 1,3,-1
 1061 141 l 1,4,-1
 592 559 l 1,5,-1
 592 641 l 1,6,-1
 1061 1059 l 1,0,-1
627 1059 m 1,7,-1
 627 868 l 1,8,-1
 326 600 l 1,9,-1
 627 332 l 1,10,-1
 627 141 l 1,11,-1
 158 559 l 1,12,-1
 158 641 l 1,13,-1
 627 1059 l 1,7,-1
EndSplineSet
EndChar
StartChar: logicalnot
Encoding: 172 172 172
Width: 1300
Flags: W
LayerCount: 2
Fore
SplineSet
946 557 m 1,0,-1
 186 557 l 1,1,-1
 186 727 l 1,2,-1
 1114 727 l 1,3,-1
 1114 152 l 1,4,-1
 946 152 l 1,5,-1
 946 557 l 1,0,-1
EndSplineSet
EndChar
StartChar: registered
Encoding: 174 174 174
Width: 2048
Flags: W
LayerCount: 2
Fore
SplineSet
1024 1382 m 0,0,1
 893 1382 893 1382 780 1335 c 128,-1,2
 667 1288 667 1288 573 1194 c 128,-1,3
 479 1100 479 1100 431 985.5 c 128,-1,4
 383 871 383 871 383 741 c 0,5,6
 383 612 383 612 431 498.5 c 128,-1,7
 479 385 479 385 573 291 c 128,-1,8
 667 197 667 197 780 149.5 c 128,-1,9
 893 102 893 102 1024 102 c 0,10,11
 1156 102 1156 102 1269.5 149.5 c 128,-1,12
 1383 197 1383 197 1477 291 c 0,13,14
 1570 384 1570 384 1616.5 497 c 128,-1,15
 1663 610 1663 610 1663 741 c 0,16,17
 1663 874 1663 874 1616 987.5 c 128,-1,18
 1569 1101 1569 1101 1477 1194 c 0,19,20
 1383 1288 1383 1288 1269.5 1335 c 128,-1,21
 1156 1382 1156 1382 1024 1382 c 0,0,1
1024 1485 m 128,-1,23
 1176 1485 1176 1485 1307.5 1430 c 128,-1,24
 1439 1375 1439 1375 1548 1266 c 128,-1,25
 1657 1157 1657 1157 1711 1026 c 128,-1,26
 1765 895 1765 895 1765 741 c 0,27,28
 1765 589 1765 589 1711 458.5 c 128,-1,29
 1657 328 1657 328 1548 219 c 128,-1,30
 1439 110 1439 110 1307.5 55 c 128,-1,31
 1176 0 1176 0 1024 0 c 128,-1,32
 872 0 872 0 740.5 55 c 128,-1,33
 609 110 609 110 500 219 c 128,-1,34
 391 328 391 328 337 458.5 c 128,-1,35
 283 589 283 589 283 741 c 0,36,37
 283 895 283 895 337 1026 c 128,-1,38
 391 1157 391 1157 500 1266 c 128,-1,39
 609 1375 609 1375 740.5 1430 c 128,-1,22
 872 1485 872 1485 1024 1485 c 128,-1,23
997 1071 m 2,40,-1
 874 1071 l 1,41,-1
 874 795 l 1,42,-1
 997 795 l 2,43,44
 1107 795 1107 795 1150.5 826 c 128,-1,45
 1194 857 1194 857 1194 932 c 0,46,47
 1194 1008 1194 1008 1150 1039.5 c 128,-1,48
 1106 1071 1106 1071 997 1071 c 2,40,-1
1004 1174 m 2,49,50
 1180 1174 1180 1174 1267 1114.5 c 128,-1,51
 1354 1055 1354 1055 1354 934 c 0,52,53
 1354 848 1354 848 1301.5 792 c 128,-1,54
 1249 736 1249 736 1153 719 c 1,55,56
 1177 711 1177 711 1210.5 672.5 c 128,-1,57
 1244 634 1244 634 1290 561 c 1,58,-1
 1427 338 l 1,59,-1
 1255 338 l 1,60,-1
 1126 547 l 2,61,62
 1067 643 1067 643 1030.5 668.5 c 128,-1,63
 994 694 994 694 940 694 c 2,64,-1
 874 694 l 1,65,-1
 874 338 l 1,66,-1
 719 338 l 1,67,-1
 719 1174 l 1,68,-1
 1004 1174 l 2,49,50
EndSplineSet
EndChar
StartChar: macron
Encoding: 175 175 175
Width: 1024
Flags: W
GlyphCompositionHorizontal: 2  macron%0,0,40,598 macron%1,40,0,598
LayerCount: 2
Fore
SplineSet
213 1526 m 1,0,-1
 811 1526 l 1,1,-1
 811 1378 l 1,2,-1
 213 1378 l 1,3,-1
 213 1526 l 1,0,-1
EndSplineSet
LCarets2: 1 0
EndChar
StartChar: degree
Encoding: 176 176 176
Width: 1024
Flags: W
LayerCount: 2
Fore
SplineSet
512 1391 m 0,0,1
 432 1391 432 1391 377 1335.5 c 128,-1,2
 322 1280 322 1280 322 1200 c 0,3,4
 322 1121 322 1121 377 1066.5 c 128,-1,5
 432 1012 432 1012 512 1012 c 128,-1,6
 592 1012 592 1012 647 1066.5 c 128,-1,7
 702 1121 702 1121 702 1200 c 128,-1,8
 702 1279 702 1279 646.5 1335 c 128,-1,9
 591 1391 591 1391 512 1391 c 0,0,1
512 1520 m 0,10,11
 576 1520 576 1520 635 1495.5 c 128,-1,12
 694 1471 694 1471 737 1425 c 1,13,14
 783 1380 783 1380 806 1323 c 128,-1,15
 829 1266 829 1266 829 1200 c 0,16,17
 829 1068 829 1068 736.5 976.5 c 128,-1,18
 644 885 644 885 510 885 c 0,19,20
 375 885 375 885 285 975 c 128,-1,21
 195 1065 195 1065 195 1200 c 0,22,23
 195 1334 195 1334 287 1427 c 128,-1,24
 379 1520 379 1520 512 1520 c 0,10,11
EndSplineSet
EndChar
StartChar: plusminus
Encoding: 177 177 177
Width: 1300
Flags: W
LayerCount: 2
Fore
SplineSet
1114 264 m 1,0,-1
 1114 94 l 1,1,-1
 186 94 l 1,2,-1
 186 264 l 1,3,-1
 1114 264 l 1,0,-1
734 1386 m 1,4,-1
 734 1006 l 1,5,-1
 1114 1006 l 1,6,-1
 1114 836 l 1,7,-1
 734 836 l 1,8,-1
 734 456 l 1,9,-1
 566 456 l 1,10,-1
 566 836 l 1,11,-1
 186 836 l 1,12,-1
 186 1006 l 1,13,-1
 566 1006 l 1,14,-1
 566 1386 l 1,15,-1
 734 1386 l 1,4,-1
EndSplineSet
EndChar
StartChar: twosuperior
Encoding: 178 178 178
Width: 821
Flags: W
LayerCount: 2
Fore
SplineSet
268 782 m 1,0,-1
 692 782 l 1,1,-1
 692 668 l 1,2,-1
 94 668 l 1,3,-1
 94 778 l 1,4,5
 128 809 128 809 191 865 c 0,6,7
 535 1170 535 1170 535 1264 c 0,8,9
 535 1330 535 1330 483 1370.5 c 128,-1,10
 431 1411 431 1411 346 1411 c 0,11,12
 294 1411 294 1411 233 1393.5 c 128,-1,13
 172 1376 172 1376 100 1341 c 1,14,-1
 100 1464 l 1,15,16
 177 1492 177 1492 243.5 1506 c 128,-1,17
 310 1520 310 1520 367 1520 c 0,18,19
 512 1520 512 1520 599 1454 c 128,-1,20
 686 1388 686 1388 686 1280 c 0,21,22
 686 1141 686 1141 355 857 c 0,23,24
 299 809 299 809 268 782 c 1,0,-1
EndSplineSet
EndChar
StartChar: threesuperior
Encoding: 179 179 179
Width: 821
Flags: W
LayerCount: 2
Fore
SplineSet
524 1120 m 1,0,1
 616 1102 616 1102 666.5 1047.5 c 128,-1,2
 717 993 717 993 717 911 c 0,3,4
 717 787 717 787 622 720 c 128,-1,5
 527 653 527 653 350 653 c 0,6,7
 293 653 293 653 230.5 663.5 c 128,-1,8
 168 674 168 674 98 694 c 1,9,-1
 98 815 l 1,10,11
 150 788 150 788 209.5 775 c 128,-1,12
 269 762 269 762 336 762 c 0,13,14
 445 762 445 762 505 801.5 c 128,-1,15
 565 841 565 841 565 911 c 0,16,17
 565 985 565 985 509.5 1023 c 128,-1,18
 454 1061 454 1061 346 1061 c 2,19,-1
 260 1061 l 1,20,-1
 260 1169 l 1,21,-1
 354 1169 l 2,22,23
 448 1169 448 1169 496.5 1200.5 c 128,-1,24
 545 1232 545 1232 545 1292 c 0,25,26
 545 1350 545 1350 495 1380.5 c 128,-1,27
 445 1411 445 1411 350 1411 c 0,28,29
 310 1411 310 1411 259 1402 c 128,-1,30
 208 1393 208 1393 127 1370 c 1,31,-1
 127 1485 l 1,32,33
 200 1502 200 1502 264 1511 c 128,-1,34
 328 1520 328 1520 383 1520 c 0,35,36
 527 1520 527 1520 611.5 1461 c 128,-1,37
 696 1402 696 1402 696 1303 c 0,38,39
 696 1234 696 1234 651 1186 c 128,-1,40
 606 1138 606 1138 524 1120 c 1,0,1
EndSplineSet
EndChar
StartChar: acute
Encoding: 180 180 180
Width: 542
Flags: W
LayerCount: 2
Fore
SplineSet
309 1638 m 1,0,-1
 27 1264 l 1,1,-1
 180 1264 l 1,2,-1
 506 1638 l 1,3,-1
 309 1638 l 1,0,-1
EndSplineSet
LCarets2: 1 0
EndChar
StartChar: mu
Encoding: 181 181 181
Width: 1260
Flags: W
AnchorPoint: "above" 594 1147 basechar 0 0
AnchorPoint: "below" 594 0 basechar 0
AnchorPoint: "cedilla" 594 0 basechar 0
AnchorPoint: "half" 0 1520 basechar 0
AnchorPoint: "ogonek" 1008 0 basechar 0
LayerCount: 2
Fore
SplineSet
594 1147 m 1049,0,-1
1142 104 m 1,1,-1
 1024 0 l 1,2,3
 992 14 992 14 948 59 c 0,4,5
 901 107 901 107 884 174 c 1,6,7
 752.972416632 -28.9247701386 752.972416632 -28.9247701386 522 -27 c 0,8,9
 402 -26 402 -26 315 99 c 1,10,-1
 315 -426 l 1,11,-1
 131 -426 l 1,12,-1
 131 444 l 1,13,-1
 131 1120 l 1,14,-1
 315 1120 l 1,15,-1
 315 450 l 2,16,17
 315 133 315 133 563 133 c 0,18,19
 712 133 712 133 798 228 c 128,-1,20
 884 323 884 323 884 487 c 2,21,-1
 884 1120 l 1,22,-1
 1069 1120 l 1,23,-1
 1069 274 l 2,24,25
 1069 181 1069 181 1142 104 c 1,1,-1
EndSplineSet
EndChar
StartChar: paragraph
Encoding: 182 182 182
Width: 1303
Flags: W
LayerCount: 2
Fore
SplineSet
633 1493 m 2,0,-1
 1081 1493 l 1,1,-1
 1081 -197 l 1,2,-1
 940 -197 l 1,3,-1
 940 1370 l 1,4,-1
 750 1370 l 1,5,-1
 750 -197 l 1,6,-1
 608 -197 l 1,7,-1
 608 649 l 1,8,9
 393 666 393 666 275.5 776.5 c 128,-1,10
 158 887 158 887 158 1071 c 0,11,12
 158 1261 158 1261 288 1377 c 128,-1,13
 418 1493 418 1493 633 1493 c 2,0,-1
EndSplineSet
EndChar
StartChar: periodcentered
Encoding: 183 183 183
Width: 651
Flags: W
LayerCount: 2
Fore
SplineSet
219 838 m 1,0,-1
 430 838 l 1,1,-1
 430 584 l 1,2,-1
 219 584 l 1,3,-1
 219 838 l 1,0,-1
EndSplineSet
EndChar
StartChar: cedilla
Encoding: 184 184 184
Width: 1024
Flags: W
LayerCount: 2
Fore
SplineSet
584 12 m 1,0,1
 639 -50 639 -50 672 -108.5 c 128,-1,2
 705 -167 705 -167 705 -215 c 0,3,4
 705 -304 705 -304 645 -349.5 c 128,-1,5
 585 -395 585 -395 467 -395 c 0,6,7
 421 -395 421 -395 377.5 -389 c 128,-1,8
 334 -383 334 -383 291 -371 c 1,9,-1
 291 -240 l 1,10,11
 325 -257 325 -257 362 -264.5 c 128,-1,12
 399 -272 399 -272 446 -272 c 0,13,14
 505 -272 505 -272 535 -248 c 128,-1,15
 565 -224 565 -224 565 -178 c 0,16,17
 565 -148 565 -148 537.5 -98.5 c 128,-1,18
 510 -49 510 -49 465 12 c 1,19,-1
 584 12 l 1,0,1
EndSplineSet
LCarets2: 1 0
EndChar
StartChar: onesuperior
Encoding: 185 185 185
Width: 821
Flags: W
LayerCount: 2
Fore
SplineSet
156 778 m 1,0,-1
 360 778 l 1,1,-1
 360 1389 l 1,2,-1
 137 1348 l 1,3,-1
 137 1464 l 1,4,-1
 367 1503 l 1,5,-1
 504 1503 l 1,6,-1
 504 778 l 1,7,-1
 709 778 l 1,8,-1
 709 668 l 1,9,-1
 156 668 l 1,10,-1
 156 778 l 1,0,-1
EndSplineSet
EndChar
StartChar: ordmasculine
Encoding: 186 186 186
Width: 965
Flags: W
LayerCount: 2
Fore
SplineSet
139 592 m 1,0,-1
 827 592 l 1,1,-1
 827 469 l 1,2,-1
 139 469 l 1,3,-1
 139 592 l 1,0,-1
483 1520 m 128,-1,5
 662 1520 662 1520 765 1409.5 c 128,-1,6
 868 1299 868 1299 868 1108 c 128,-1,7
 868 917 868 917 765 807.5 c 128,-1,8
 662 698 662 698 483 698 c 128,-1,9
 304 698 304 698 200 808 c 128,-1,10
 96 918 96 918 96 1108 c 0,11,12
 96 1299 96 1299 200 1409.5 c 128,-1,4
 304 1520 304 1520 483 1520 c 128,-1,5
483 1405 m 0,13,14
 378 1405 378 1405 315 1324.5 c 128,-1,15
 252 1244 252 1244 252 1108 c 0,16,17
 252 975 252 975 315.5 895 c 128,-1,18
 379 815 379 815 483 815 c 0,19,20
 588 815 588 815 650.5 895 c 128,-1,21
 713 975 713 975 713 1108 c 0,22,23
 713 1245 713 1245 651 1325 c 128,-1,24
 589 1405 589 1405 483 1405 c 0,13,14
EndSplineSet
EndChar
StartChar: guillemotright
Encoding: 187 187 187
Width: 1253
Flags: W
LayerCount: 2
Fore
SplineSet
193 1059 m 1,0,-1
 662 641 l 1,1,-1
 662 559 l 1,2,-1
 193 141 l 1,3,-1
 193 332 l 1,4,-1
 494 600 l 1,5,-1
 193 868 l 1,6,-1
 193 1059 l 1,0,-1
627 1059 m 1,7,-1
 1096 641 l 1,8,-1
 1096 559 l 1,9,-1
 627 141 l 1,10,-1
 627 332 l 1,11,-1
 928 600 l 1,12,-1
 627 868 l 1,13,-1
 627 1059 l 1,7,-1
EndSplineSet
EndChar
StartChar: questiondown
Encoding: 191 191 191
Width: 1021
Flags: W
LayerCount: 2
Fore
SplineSet
667 810 m 1,0,-1
 464 810 l 1,1,-1
 464 1064 l 1,2,-1
 667 1064 l 1,3,-1
 667 810 l 1,0,-1
470 663 m 1,4,-1
 661 663 l 1,5,-1
 661 509 l 2,6,7
 661 408 661 408 633 343 c 128,-1,8
 605 278 605 278 515 192 c 1,9,-1
 425 103 l 1,10,11
 368 50 368 50 342.5 3 c 128,-1,12
 317 -44 317 -44 317 -93 c 0,13,14
 317 -182 317 -182 382.5 -237 c 128,-1,15
 448 -292 448 -292 556 -292 c 0,16,17
 635 -292 635 -292 724.5 -257 c 128,-1,18
 814 -222 814 -222 911 -155 c 1,19,-1
 911 -343 l 1,20,21
 817 -400 817 -400 720.5 -428 c 128,-1,22
 624 -456 624 -456 521 -456 c 0,23,24
 337 -456 337 -456 225.5 -359 c 128,-1,25
 114 -262 114 -262 114 -103 c 0,26,27
 114 -27 114 -27 150 41.5 c 128,-1,28
 186 110 186 110 276 196 c 2,29,-1
 364 282 l 2,30,31
 411 329 411 329 430.5 355.5 c 128,-1,32
 450 382 450 382 458 407 c 0,33,34
 464 428 464 428 467 458 c 128,-1,35
 470 488 470 488 470 540 c 2,36,-1
 470 663 l 1,4,-1
EndSplineSet
Substitution2: "'case' Case-Sensitive Forms" questiondown.case
EndChar
StartChar: Aring
Encoding: 197 197 197
Width: 1488
Flags: W
LayerCount: 2
Fore
SplineSet
896 1626 m 128,-1,1
 896 1689 896 1689 851.5 1733.5 c 128,-1,2
 807 1778 807 1778 744 1778 c 0,3,4
 680 1778 680 1778 636.5 1734.5 c 128,-1,5
 593 1691 593 1691 593 1626 c 0,6,7
 593 1563 593 1563 637 1519 c 128,-1,8
 681 1475 681 1475 744 1475 c 128,-1,9
 807 1475 807 1475 851.5 1519 c 128,-1,0
 896 1563 896 1563 896 1626 c 128,-1,1
744 1294 m 1,10,-1
 472 551 l 1,11,-1
 1017 551 l 1,12,-1
 744 1294 l 1,10,-1
593 1397 m 1,13,14
 532 1438 532 1438 501 1495.5 c 128,-1,15
 470 1553 470 1553 470 1626 c 0,16,17
 470 1741 470 1741 549.5 1821 c 128,-1,18
 629 1901 629 1901 744 1901 c 0,19,20
 858 1901 858 1901 938.5 1820.5 c 128,-1,21
 1019 1740 1019 1740 1019 1626 c 0,22,23
 1019 1556 1019 1556 987.5 1497 c 128,-1,24
 956 1438 956 1438 896 1397 c 1,25,-1
 1428 0 l 1,26,-1
 1218 0 l 1,27,-1
 1082 383 l 1,28,-1
 409 383 l 1,29,-1
 273 0 l 1,30,-1
 60 0 l 1,31,-1
 593 1397 l 1,13,14
EndSplineSet
EndChar
StartChar: AE
Encoding: 198 198 198
Width: 2021
Flags: W
LayerCount: 2
Fore
SplineSet
824 1335 m 1,0,-1
 494 551 l 1,1,-1
 953 551 l 1,2,-1
 953 1335 l 1,3,-1
 824 1335 l 1,0,-1
953 0 m 1,4,-1
 953 383 l 1,5,-1
 425 383 l 1,6,-1
 265 0 l 1,7,-1
 60 0 l 1,8,-1
 685 1493 l 1,9,-1
 1839 1493 l 1,10,-1
 1839 1323 l 1,11,-1
 1155 1323 l 1,12,-1
 1155 863 l 1,13,-1
 1839 863 l 1,14,-1
 1839 697 l 1,15,-1
 1155 697 l 1,16,-1
 1155 170 l 1,17,-1
 1888 170 l 1,18,-1
 1888 0 l 1,19,-1
 953 0 l 1,4,-1
EndSplineSet
EndChar
StartChar: Eth
Encoding: 208 208 208
Width: 1587
Flags: W
LayerCount: 2
Fore
SplineSet
211 1493 m 1,0,-1
 627 1493 l 2,1,2
 1060 1493 1060 1493 1263 1312.5 c 128,-1,3
 1466 1132 1466 1132 1466 748 c 0,4,5
 1466 362 1466 362 1262.5 181 c 128,-1,6
 1059 0 1059 0 627 0 c 2,7,-1
 211 0 l 1,8,-1
 211 700 l 1,9,-1
 10 700 l 1,10,-1
 10 844 l 1,11,-1
 211 844 l 1,12,-1
 211 1493 l 1,0,-1
414 1327 m 1,13,-1
 414 844 l 1,14,-1
 750 844 l 1,15,-1
 750 700 l 1,16,-1
 414 700 l 1,17,-1
 414 166 l 1,18,-1
 657 166 l 2,19,20
 966 166 966 166 1109.5 306 c 128,-1,21
 1253 446 1253 446 1253 748 c 0,22,23
 1253 1048 1253 1048 1109.5 1187.5 c 128,-1,24
 966 1327 966 1327 657 1327 c 2,25,-1
 414 1327 l 1,13,-1
EndSplineSet
EndChar
StartChar: multiply
Encoding: 215 215 215
Width: 1716
Flags: W
LayerCount: 2
Fore
SplineSet
1436 1100 m 1,0,-1
 979 641 l 1,1,-1
 1436 184 l 1,2,-1
 1317 63 l 1,3,-1
 858 522 l 1,4,-1
 399 63 l 1,5,-1
 281 184 l 1,6,-1
 737 641 l 1,7,-1
 281 1100 l 1,8,-1
 399 1221 l 1,9,-1
 858 762 l 1,10,-1
 1317 1221 l 1,11,-1
 1436 1100 l 1,0,-1
EndSplineSet
EndChar
StartChar: Oslash
Encoding: 216 216 216
Width: 1612
Flags: W
AnchorPoint: "above" 807 1520 basechar 0
AnchorPoint: "below" 807 0 basechar 0
AnchorPoint: "cedilla" 807 0 basechar 0
AnchorPoint: "half" 0 1520 basechar 0
AnchorPoint: "ogonek" 808 0 basechar 0
LayerCount: 2
Fore
SplineSet
1206 1112 m 1,0,-1
 489 266 l 1,1,2
 551 202 551 202 631.5 168.5 c 128,-1,3
 712 135 712 135 807 135 c 0,4,5
 1027 135 1027 135 1155.5 299 c 128,-1,6
 1284 463 1284 463 1284 745 c 0,7,8
 1284 857 1284 857 1264.5 949 c 128,-1,9
 1245 1041 1245 1041 1206 1112 c 1,0,-1
1124 1225 m 1,10,11
 1063 1289 1063 1289 982.5 1322.5 c 128,-1,12
 902 1356 902 1356 807 1356 c 0,13,14
 587 1356 587 1356 457.5 1192 c 128,-1,15
 328 1028 328 1028 328 745 c 0,16,17
 328 633 328 633 347.5 539 c 128,-1,18
 367 445 367 445 406 377 c 1,19,-1
 1124 1225 l 1,10,11
272 219 m 1,20,21
 194 321 194 321 154.5 453 c 128,-1,22
 115 585 115 585 115 745 c 0,23,24
 115 1099 115 1099 303.5 1309.5 c 128,-1,25
 492 1520 492 1520 807 1520 c 0,26,27
 937 1520 937 1520 1047.5 1481.5 c 128,-1,28
 1158 1443 1158 1443 1245 1368 c 1,29,-1
 1407 1559 l 1,30,-1
 1509 1470 l 1,31,-1
 1339 1272 l 1,32,33
 1417 1169 1417 1169 1457 1036 c 128,-1,34
 1497 903 1497 903 1497 745 c 0,35,36
 1497 392 1497 392 1309 181.5 c 128,-1,37
 1121 -29 1121 -29 807 -29 c 0,38,39
 679 -29 679 -29 568.5 8.5 c 128,-1,40
 458 46 458 46 367 121 c 1,41,-1
 205 -70 l 1,42,-1
 102 18 l 1,43,-1
 272 219 l 1,20,21
EndSplineSet
EndChar
StartChar: Thorn
Encoding: 222 222 222
Width: 1239
Flags: W
LayerCount: 2
Fore
SplineSet
201 1493 m 1,0,-1
 403 1493 l 1,1,-1
 403 1229 l 1,2,-1
 657 1229 l 2,3,4
 908 1229 908 1229 1036.5 1116.5 c 128,-1,5
 1165 1004 1165 1004 1165 784 c 128,-1,6
 1165 564 1165 564 1036.5 451 c 128,-1,7
 908 338 908 338 657 338 c 2,8,-1
 403 338 l 1,9,-1
 403 0 l 1,10,-1
 201 0 l 1,11,-1
 201 1493 l 1,0,-1
403 1063 m 1,12,-1
 403 504 l 1,13,-1
 657 504 l 2,14,15
 798 504 798 504 875 577 c 128,-1,16
 952 650 952 650 952 784 c 128,-1,17
 952 918 952 918 875.5 990.5 c 128,-1,18
 799 1063 799 1063 657 1063 c 2,19,-1
 403 1063 l 1,12,-1
EndSplineSet
EndChar
StartChar: germandbls
Encoding: 223 223 223
Width: 1290
Flags: W
LayerCount: 2
Fore
SplineSet
186 1137 m 2,0,1
 186 1337 186 1337 305.5 1446.5 c 128,-1,2
 425 1556 425 1556 643 1556 c 0,3,4
 851 1556 851 1556 960.5 1440 c 128,-1,5
 1070 1324 1070 1324 1073 1100 c 1,6,7
 922 1092 922 1092 838 1034.5 c 128,-1,8
 754 977 754 977 754 881 c 0,9,10
 754 834 754 834 783 793.5 c 128,-1,11
 812 753 812 753 877 711 c 2,12,-1
 934 674 l 2,13,14
 1100 568 1100 568 1148 497 c 128,-1,15
 1196 426 1196 426 1196 326 c 0,16,17
 1196 154 1196 154 1083.5 62.5 c 128,-1,18
 971 -29 971 -29 760 -29 c 0,19,20
 696 -29 696 -29 628 -16.5 c 128,-1,21
 560 -4 560 -4 487 20 c 1,22,-1
 487 184 l 1,23,24
 567 154 567 154 637 139.5 c 128,-1,25
 707 125 707 125 772 125 c 0,26,27
 888 125 888 125 948 172.5 c 128,-1,28
 1008 220 1008 220 1008 311 c 0,29,30
 1008 374 1008 374 978.5 416 c 128,-1,31
 949 458 949 458 848 520 c 2,32,-1
 756 575 l 2,33,34
 660 634 660 634 616.5 701.5 c 128,-1,35
 573 769 573 769 573 860 c 0,36,37
 573 987 573 987 656.5 1073 c 128,-1,38
 740 1159 740 1159 891 1188 c 1,39,40
 883 1291 883 1291 817.5 1347 c 128,-1,41
 752 1403 752 1403 639 1403 c 0,42,43
 509 1403 509 1403 441 1333.5 c 128,-1,44
 373 1264 373 1264 373 1133 c 2,45,-1
 373 0 l 1,46,-1
 186 0 l 1,47,-1
 186 1137 l 2,0,1
EndSplineSet
EndChar
StartChar: ae
Encoding: 230 230 230
Width: 2011
Flags: W
AnchorPoint: "below" 995 0 basechar 0
AnchorPoint: "above" 995 1147 basechar 0
LayerCount: 2
Fore
SplineSet
1718 660 m 1,0,1
 1717 811 1717 811 1634.5 901 c 128,-1,2
 1552 991 1552 991 1415 991 c 0,3,4
 1262 991 1262 991 1169.5 904 c 128,-1,5
 1077 817 1077 817 1063 659 c 1,6,-1
 1718 660 l 1,0,1
995 963 m 1,7,8
 1069 1053 1069 1053 1175 1100 c 128,-1,9
 1281 1147 1281 1147 1413 1147 c 0,10,11
 1639 1147 1639 1147 1771 1001.5 c 128,-1,12
 1903 856 1903 856 1903 606 c 2,13,-1
 1903 516 l 1,14,-1
 1057 516 l 1,15,16
 1069 325 1069 325 1171 225 c 128,-1,17
 1273 125 1273 125 1456 125 c 0,18,19
 1560 125 1560 125 1660 151.5 c 128,-1,20
 1760 178 1760 178 1860 231 c 1,21,-1
 1860 57 l 1,22,23
 1760 15 1760 15 1656 -7 c 128,-1,24
 1552 -29 1552 -29 1446 -29 c 0,25,26
 1279 -29 1279 -29 1155 31.5 c 128,-1,27
 1031 92 1031 92 954 211 c 1,28,29
 881 91 881 91 773 31 c 128,-1,30
 665 -29 665 -29 522 -29 c 0,31,32
 333 -29 333 -29 228 64.5 c 128,-1,33
 123 158 123 158 123 326 c 0,34,35
 123 515 123 515 249.5 611 c 128,-1,36
 376 707 376 707 627 707 c 2,37,-1
 885 707 l 1,38,-1
 885 725 l 2,39,40
 885 852 885 852 801.5 921.5 c 128,-1,41
 718 991 718 991 567 991 c 0,42,43
 471 991 471 991 380 968 c 128,-1,44
 289 945 289 945 205 899 c 1,45,-1
 205 1069 l 1,46,47
 306 1108 306 1108 401 1127.5 c 128,-1,48
 496 1147 496 1147 586 1147 c 0,49,50
 728 1147 728 1147 834.5 1099 c 128,-1,51
 941 1051 941 1051 995 963 c 1,7,8
702 563 m 2,52,53
 479 563 479 563 393 512 c 128,-1,54
 307 461 307 461 307 338 c 0,55,56
 307 240 307 240 371.5 182.5 c 128,-1,57
 436 125 436 125 547 125 c 0,58,59
 700 125 700 125 792.5 233.5 c 128,-1,60
 885 342 885 342 885 522 c 2,61,-1
 885 563 l 1,62,-1
 702 563 l 2,52,53
EndSplineSet
EndChar
StartChar: eth
Encoding: 240 240 240
Width: 1253
Flags: W
AnchorPoint: "above" 637 1520 basechar 0
AnchorPoint: "below" 637 0 basechar 0
LayerCount: 2
Fore
SplineSet
838 915 m 1,0,1
 788 932 788 932 744 940 c 128,-1,2
 700 948 700 948 659 948 c 0,3,4
 492 948 492 948 399.5 840 c 128,-1,5
 307 732 307 732 307 537 c 0,6,7
 307 349 307 349 394 238 c 128,-1,8
 481 127 481 127 627 127 c 0,9,10
 772 127 772 127 859 238 c 128,-1,11
 946 349 946 349 946 537 c 0,12,13
 946 659 946 659 919 753 c 128,-1,14
 892 847 892 847 838 915 c 1,0,1
901 1141 m 2,15,16
 1027 998 1027 998 1084 854 c 128,-1,17
 1141 710 1141 710 1141 537 c 0,18,19
 1141 282 1141 282 999 126.5 c 128,-1,20
 857 -29 857 -29 627 -29 c 0,21,22
 396 -29 396 -29 254.5 126.5 c 128,-1,23
 113 282 113 282 113 537 c 0,24,25
 113 787 113 787 251 942.5 c 128,-1,26
 389 1098 389 1098 610 1098 c 0,27,28
 628 1098 628 1098 654 1095.5 c 128,-1,29
 680 1093 680 1093 722 1088 c 1,30,-1
 563 1268 l 1,31,-1
 244 1161 l 1,32,-1
 211 1260 l 1,33,-1
 492 1352 l 1,34,-1
 311 1556 l 1,35,-1
 539 1556 l 1,36,-1
 666 1411 l 1,37,-1
 999 1522 l 1,38,-1
 1032 1425 l 1,39,-1
 737 1327 l 1,40,-1
 901 1141 l 2,15,16
EndSplineSet
EndChar
StartChar: divide
Encoding: 247 247 247
Width: 1716
Flags: W
LayerCount: 2
Fore
SplineSet
735 1135 m 1,0,-1
 981 1135 l 1,1,-1
 981 889 l 1,2,-1
 735 889 l 1,3,-1
 735 1135 l 1,0,-1
735 395 m 1,4,-1
 981 395 l 1,5,-1
 981 150 l 1,6,-1
 735 150 l 1,7,-1
 735 395 l 1,4,-1
217 727 m 1,8,-1
 1499 727 l 1,9,-1
 1499 557 l 1,10,-1
 217 557 l 1,11,-1
 217 727 l 1,8,-1
EndSplineSet
EndChar
StartChar: oslash
Encoding: 248 248 248
Width: 1253
Flags: W
AnchorPoint: "above" 627 1147 basechar 0 26
AnchorPoint: "below" 627 0 basechar 0
AnchorPoint: "cedilla" 627 0 basechar 0
AnchorPoint: "half" 0 1520 basechar 0
AnchorPoint: "ogonek" 628 0 basechar 0
LayerCount: 2
Fore
SplineSet
905 801 m 1,0,-1
 418 209 l 1,1,2
 459 167 459 167 510.5 147 c 128,-1,3
 562 127 562 127 627 127 c 0,4,5
 774 127 774 127 860 243 c 128,-1,6
 946 359 946 359 946 559 c 0,7,8
 946 638 946 638 936 696.5 c 128,-1,9
 926 755 926 755 905 801 c 1,0,-1
834 909 m 1,10,11
 792 950 792 950 740.5 970.5 c 128,-1,12
 689 991 689 991 627 991 c 0,13,14
 476 991 476 991 391.5 873.5 c 128,-1,15
 307 756 307 756 307 545 c 0,16,17
 307 473 307 473 316.5 418 c 128,-1,18
 326 363 326 363 346 317 c 1,19,-1
 834 909 l 1,10,11
221 166 m 1,20,21
 167 243 167 243 140 341.5 c 128,-1,22
 113 440 113 440 113 559 c 0,23,24
 113 835 113 835 249.5 991 c 128,-1,25
 386 1147 386 1147 627 1147 c 0,26,27
 720 1147 720 1147 799.5 1121.5 c 128,-1,28
 879 1096 879 1096 946 1044 c 1,29,-1
 1085 1212 l 1,30,-1
 1180 1133 l 1,31,-1
 1034 954 l 1,32,33
 1087 877 1087 877 1114 778 c 128,-1,34
 1141 679 1141 679 1141 559 c 0,35,36
 1141 284 1141 284 1004 127.5 c 128,-1,37
 867 -29 867 -29 627 -29 c 0,38,39
 531 -29 531 -29 450.5 -3 c 128,-1,40
 370 23 370 23 307 74 c 1,41,-1
 168 -94 l 1,42,-1
 72 -16 l 1,43,-1
 221 166 l 1,20,21
EndSplineSet
EndChar
StartChar: thorn
Encoding: 254 254 254
Width: 1300
Flags: W
AnchorPoint: "above" 278 1520 basechar 0
LayerCount: 2
Fore
SplineSet
371 168 m 1,0,-1
 371 -426 l 1,1,-1
 186 -426 l 1,2,-1
 186 1556 l 1,3,-1
 371 1556 l 1,4,-1
 371 950 l 1,5,6
 429 1050 429 1050 517.5 1098.5 c 128,-1,7
 606 1147 606 1147 729 1147 c 0,8,9
 933 1147 933 1147 1060.5 985 c 128,-1,10
 1188 823 1188 823 1188 559 c 128,-1,11
 1188 295 1188 295 1060.5 133 c 128,-1,12
 933 -29 933 -29 729 -29 c 0,13,14
 606 -29 606 -29 517.5 19.5 c 128,-1,15
 429 68 429 68 371 168 c 1,0,-1
997 559 m 128,-1,17
 997 762 997 762 913.5 877.5 c 128,-1,18
 830 993 830 993 684 993 c 128,-1,19
 538 993 538 993 454.5 877.5 c 128,-1,20
 371 762 371 762 371 559 c 128,-1,21
 371 356 371 356 454.5 240.5 c 128,-1,22
 538 125 538 125 684 125 c 128,-1,23
 830 125 830 125 913.5 240.5 c 128,-1,16
 997 356 997 356 997 559 c 128,-1,17
EndSplineSet
EndChar
StartChar: dcroat
Encoding: 273 273 273
Width: 1300
Flags: W
LayerCount: 2
Fore
SplineSet
930 950 m 1,0,-1
 930 1284 l 1,1,-1
 604 1284 l 1,2,-1
 604 1409 l 1,3,-1
 930 1409 l 1,4,-1
 930 1556 l 1,5,-1
 1114 1556 l 1,6,-1
 1114 1409 l 1,7,-1
 1268 1409 l 1,8,-1
 1268 1284 l 1,9,-1
 1114 1284 l 1,10,-1
 1114 0 l 1,11,-1
 930 0 l 1,12,-1
 930 168 l 1,13,14
 872 68 872 68 783.5 19.5 c 128,-1,15
 695 -29 695 -29 571 -29 c 0,16,17
 368 -29 368 -29 240.5 133 c 128,-1,18
 113 295 113 295 113 559 c 128,-1,19
 113 823 113 823 240.5 985 c 128,-1,20
 368 1147 368 1147 571 1147 c 0,21,22
 695 1147 695 1147 783.5 1098.5 c 128,-1,23
 872 1050 872 1050 930 950 c 1,0,-1
303 559 m 128,-1,25
 303 356 303 356 386.5 240.5 c 128,-1,26
 470 125 470 125 616 125 c 128,-1,27
 762 125 762 125 846 240.5 c 128,-1,28
 930 356 930 356 930 559 c 128,-1,29
 930 762 930 762 846 877.5 c 128,-1,30
 762 993 762 993 616 993 c 128,-1,31
 470 993 470 993 386.5 877.5 c 128,-1,24
 303 762 303 762 303 559 c 128,-1,25
EndSplineSet
EndChar
StartChar: Hbar
Encoding: 294 294 294
Width: 1876
Flags: W
AnchorPoint: "above" 938 1520 basechar 0
AnchorPoint: "below" 938 0 basechar 0
LayerCount: 2
Fore
SplineSet
369 1493 m 1,0,-1
 571 1493 l 1,1,-1
 571 1269 l 1,2,-1
 1305 1269 l 1,3,-1
 1305 1493 l 1,4,-1
 1507 1493 l 1,5,-1
 1507 1269 l 1,6,-1
 1675 1269 l 1,7,-1
 1675 1105 l 1,8,-1
 1507 1105 l 1,9,-1
 1507 0 l 1,10,-1
 1305 0 l 1,11,-1
 1305 711 l 1,12,-1
 571 711 l 1,13,-1
 571 0 l 1,14,-1
 369 0 l 1,15,-1
 369 1105 l 1,16,-1
 201 1105 l 1,17,-1
 201 1269 l 1,18,-1
 369 1269 l 1,19,-1
 369 1493 l 1,0,-1
571 1105 m 1,20,-1
 571 881 l 1,21,-1
 1305 881 l 1,22,-1
 1305 1105 l 1,23,-1
 571 1105 l 1,20,-1
EndSplineSet
EndChar
StartChar: hbar
Encoding: 295 295 295
Width: 1423
Flags: W
AnchorPoint: "below" 720 0 basechar 0
AnchorPoint: "above" 337 1520 basechar 0
LayerCount: 2
Fore
SplineSet
1183 676 m 2,0,-1
 1183 0 l 1,1,-1
 999 0 l 1,2,-1
 999 670 l 2,3,4
 999 829 999 829 937 908 c 128,-1,5
 875 987 875 987 751 987 c 0,6,7
 602 987 602 987 516 892 c 128,-1,8
 430 797 430 797 430 633 c 2,9,-1
 430 0 l 1,10,-1
 245 0 l 1,11,-1
 245 1270 l 1,12,-1
 120 1270 l 1,13,-1
 120 1434 l 1,14,-1
 245 1434 l 1,15,-1
 245 1556 l 1,16,-1
 430 1556 l 1,17,-1
 430 1434 l 1,18,-1
 782 1434 l 1,19,-1
 782 1270 l 1,20,-1
 430 1270 l 1,21,-1
 430 946 l 1,22,23
 496 1047 496 1047 585.5 1097 c 128,-1,24
 675 1147 675 1147 792 1147 c 0,25,26
 985 1147 985 1147 1084 1027.5 c 128,-1,27
 1183 908 1183 908 1183 676 c 2,0,-1
EndSplineSet
EndChar
StartChar: dotlessi
Encoding: 305 305 305
Width: 569
Flags: W
AnchorPoint: "below" 287 0 basechar 0
AnchorPoint: "cedilla" 287 0 basechar 0
AnchorPoint: "half" 0 1520 basechar 0
AnchorPoint: "ogonek" 318 0 basechar 0
AnchorPoint: "above" 285 1147 basechar 0 4
LayerCount: 2
Fore
SplineSet
193 1120 m 1,0,-1
 377 1120 l 1,1,-1
 377 0 l 1,2,-1
 193 0 l 1,3,-1
 193 1120 l 1,0,-1
285 1147 m 1049,4,-1
EndSplineSet
EndChar
StartChar: IJ
Encoding: 306 306 306
Width: 1488
Flags: W
LayerCount: 2
Fore
SplineSet
534 1323 m 1,0,-1
 534 640 l 1,1,-1
 735 640 l 1,2,-1
 735 510 l 1,3,-1
 131 510 l 1,4,-1
 131 640 l 1,5,-1
 332 640 l 1,6,-1
 332 1323 l 1,7,-1
 131 1323 l 1,8,-1
 131 1493 l 1,9,-1
 1428 1493 l 1,10,-1
 1428 1323 l 1,11,-1
 1142 1323 l 1,12,-1
 1142 641 l 2,13,14
 1142 339 1142 339 987.5 169.5 c 128,-1,15
 833 0 833 0 627 0 c 2,16,-1
 502 0 l 1,17,-1
 502 170 l 1,18,-1
 613 170 l 2,19,20
 724 170 724 170 832 295.5 c 128,-1,21
 940 421 940 421 940 641 c 2,22,-1
 940 1323 l 1,23,-1
 534 1323 l 1,0,-1
EndSplineSet
EndChar
StartChar: ij
Encoding: 307 307 307
Width: 1138
Flags: W
LayerCount: 2
Fore
SplineSet
377 1556 m 1,0,-1
 193 1556 l 1,1,-1
 193 1323 l 1,2,-1
 377 1323 l 1,3,-1
 377 1556 l 1,0,-1
761 1556 m 1,4,-1
 945 1556 l 1,5,-1
 945 1323 l 1,6,-1
 761 1323 l 1,7,-1
 761 1556 l 1,4,-1
377 1120 m 1,8,-1
 377 406 l 2,9,10
 377 248 377 248 415 204 c 0,11,12
 457 156 457 156 558 156 c 2,13,-1
 761 156 l 1,14,-1
 761 1120 l 1,15,-1
 945 1120 l 1,16,-1
 945 -20 l 2,17,18
 945 -234 945 -234 863.5 -330 c 128,-1,19
 782 -426 782 -426 601 -426 c 2,20,-1
 531 -426 l 1,21,-1
 531 -270 l 1,22,-1
 580 -270 l 2,23,24
 685 -270 685 -270 723 -221.5 c 128,-1,25
 761 -173 761 -173 761 -20 c 2,26,-1
 761 0 l 1,27,-1
 537 0 l 2,28,29
 356 0 356 0 274.5 96 c 128,-1,30
 193 192 193 192 193 406 c 2,31,-1
 193 1120 l 1,32,-1
 377 1120 l 1,8,-1
EndSplineSet
EndChar
StartChar: kgreenlandic
Encoding: 312 312 312
Width: 1186
Flags: W
AnchorPoint: "below" 678 0 basechar 0
AnchorPoint: "above" 678 1147 basechar 0
LayerCount: 2
Fore
SplineSet
186 1120 m 1,0,-1
 371 1120 l 1,1,-1
 371 635 l 1,2,-1
 920 1120 l 1,3,-1
 1155 1120 l 1,4,-1
 561 594 l 1,5,-1
 1180 0 l 1,6,-1
 940 0 l 1,7,-1
 371 545 l 1,8,-1
 371 0 l 1,9,-1
 186 0 l 1,10,-1
 186 1120 l 1,0,-1
EndSplineSet
EndChar
StartChar: Lslash
Encoding: 321 321 321
Width: 1151
Flags: W
LayerCount: 2
Fore
SplineSet
211 1493 m 1,0,-1
 414 1493 l 1,1,-1
 414 877 l 1,2,-1
 727 1096 l 1,3,-1
 807 985 l 1,4,-1
 414 711 l 1,5,-1
 414 170 l 1,6,-1
 1141 170 l 1,7,-1
 1141 0 l 1,8,-1
 211 0 l 1,9,-1
 211 571 l 1,10,-1
 63 465 l 1,11,-1
 -14 575 l 1,12,-1
 211 733 l 1,13,-1
 211 1493 l 1,0,-1
EndSplineSet
EndChar
StartChar: lslash
Encoding: 322 322 322
Width: 582
Flags: W
LayerCount: 2
Fore
SplineSet
199 1520 m 1,0,-1
 383 1556 l 1,1,-1
 383 954 l 1,2,-1
 508 1044 l 1,3,-1
 584 938 l 1,4,-1
 383 797 l 1,5,-1
 383 0 l 1,6,-1
 199 0 l 1,7,-1
 199 666 l 1,8,-1
 76 578 l 1,9,-1
 2 684 l 1,10,-1
 199 825 l 1,11,-1
 199 1520 l 1,0,-1
EndSplineSet
EndChar
StartChar: Eng
Encoding: 330 330 330
Width: 1532
Flags: W
LayerCount: 2
Fore
SplineSet
1104 895 m 2,0,1
 1104 1323 1104 1323 797 1323 c 0,2,3
 618 1323 618 1323 510.5 1195.5 c 128,-1,4
 403 1068 403 1068 403 846 c 2,5,-1
 403 0 l 1,6,-1
 201 0 l 1,7,-1
 201 1493 l 1,8,-1
 403 1493 l 1,9,-1
 403 1252 l 1,10,11
 481 1386 481 1386 586 1453 c 0,12,13
 692 1520 692 1520 845 1520 c 0,14,15
 1072 1520 1072 1520 1188.5 1360.5 c 128,-1,16
 1305 1201 1305 1201 1305 893 c 2,17,-1
 1305 -20 l 2,18,19
 1305 -233.033 1305 -233.033 1223.51 -330 c 0,20,21
 1142.01 -426 1142.01 -426 961.015 -426 c 2,22,-1
 874 -426 l 1,23,-1
 874 -270 l 1,24,-1
 923 -270 l 2,25,26
 1025.32 -270 1025.32 -270 1064.66 -224.887 c 128,-1,27
 1104 -179.775 1104 -179.775 1104 -20 c 2,28,-1
 1104 895 l 2,0,1
EndSplineSet
AlternateSubs2: "'aalt' Access All Alternates in Latin lookup 29" Eng.alt
Substitution2: "'salt' Stylistic Alternatives in Latin lookup 28" Eng.alt
Substitution2: "'locl' Localized Forms in Latin lookup 4" Eng.alt
EndChar
StartChar: eng
Encoding: 331 331 331
Width: 1298
Flags: W
AnchorPoint: "below" 649 -430 basechar 0
AnchorPoint: "above" 649 1147 basechar 0
LayerCount: 2
Fore
SplineSet
1124 676 m 2,0,-1
 1124 -20 l 2,1,2
 1124 -234 1124 -234 1042 -330 c 0,3,4
 961 -426 961 -426 780 -426 c 2,5,-1
 526 -426 l 1,6,-1
 526 -270 l 1,7,-1
 759 -270 l 2,8,9
 864 -270 864 -270 902 -222 c 0,10,11
 940 -173 940 -173 940 -20 c 2,12,-1
 940 670 l 2,13,14
 940 829 940 829 878 908 c 128,-1,15
 816 987 816 987 692 987 c 0,16,17
 543 987 543 987 457 892 c 128,-1,18
 371 797 371 797 371 633 c 2,19,-1
 371 0 l 1,20,-1
 186 0 l 1,21,-1
 186 1120 l 1,22,-1
 371 1120 l 1,23,-1
 371 946 l 1,24,25
 437 1047 437 1047 526 1097 c 0,26,27
 616 1147 616 1147 733 1147 c 0,28,29
 926 1147 926 1147 1025 1028 c 0,30,31
 1124 908 1124 908 1124 676 c 2,0,-1
EndSplineSet
EndChar
StartChar: OE
Encoding: 338 338 338
Width: 2191
Flags: W
LayerCount: 2
Fore
SplineSet
2042 1493 m 1,0,-1
 2042 1323 l 1,1,-1
 1300 1323 l 1,2,-1
 1300 881 l 1,3,-1
 2011 881 l 1,4,-1
 2011 711 l 1,5,-1
 1300 711 l 1,6,-1
 1300 170 l 1,7,-1
 2060 170 l 1,8,-1
 2060 0 l 1,9,-1
 995 0 l 2,10,11
 562 0 562 0 338.5 190 c 128,-1,12
 115 380 115 380 115 748 c 0,13,14
 115 1113 115 1113 338.5 1303 c 128,-1,15
 562 1493 562 1493 995 1493 c 2,16,-1
 2042 1493 l 1,0,-1
1098 1323 m 1,17,-1
 969 1323 l 2,18,19
 648 1323 648 1323 488 1179.5 c 128,-1,20
 328 1036 328 1036 328 748 c 0,21,22
 328 459 328 459 488 314.5 c 128,-1,23
 648 170 648 170 969 170 c 2,24,-1
 1098 170 l 1,25,-1
 1098 1323 l 1,17,-1
EndSplineSet
EndChar
StartChar: oe
Encoding: 339 339 339
Width: 2095
Flags: W
AnchorPoint: "above" 1044 1147 basechar 0
AnchorPoint: "below" 1044 0 basechar 0
LayerCount: 2
Fore
SplineSet
1802 660 m 1,0,1
 1800 812 1800 812 1718 901.5 c 128,-1,2
 1636 991 1636 991 1499 991 c 0,3,4
 1346 991 1346 991 1253.5 904 c 128,-1,5
 1161 817 1161 817 1147 659 c 1,6,-1
 1802 660 l 1,0,1
1987 606 m 2,7,-1
 1987 516 l 1,8,-1
 1141 516 l 1,9,10
 1153 326 1153 326 1255 226.5 c 128,-1,11
 1357 127 1357 127 1540 127 c 0,12,13
 1646 127 1646 127 1746 153 c 128,-1,14
 1846 179 1846 179 1944 231 c 1,15,-1
 1944 57 l 1,16,17
 1844 15 1844 15 1740 -7 c 128,-1,18
 1636 -29 1636 -29 1530 -29 c 0,19,20
 1370 -29 1370 -29 1249 26 c 128,-1,21
 1128 81 1128 81 1047 190 c 1,22,23
 976 80 976 80 871.5 25.5 c 128,-1,24
 767 -29 767 -29 627 -29 c 0,25,26
 386 -29 386 -29 249.5 127.5 c 128,-1,27
 113 284 113 284 113 559 c 0,28,29
 113 835 113 835 249.5 991 c 128,-1,30
 386 1147 386 1147 627 1147 c 0,31,32
 767 1147 767 1147 872.5 1091.5 c 128,-1,33
 978 1036 978 1036 1044 928 c 1,34,35
 1122 1035 1122 1035 1238 1091 c 128,-1,36
 1354 1147 1354 1147 1497 1147 c 0,37,38
 1723 1147 1723 1147 1855 1001.5 c 128,-1,39
 1987 856 1987 856 1987 606 c 2,7,-1
627 991 m 0,40,41
 479 991 479 991 393 875.5 c 128,-1,42
 307 760 307 760 307 559 c 128,-1,43
 307 358 307 358 392.5 242.5 c 128,-1,44
 478 127 478 127 627 127 c 0,45,46
 774 127 774 127 860 243 c 128,-1,47
 946 359 946 359 946 559 c 0,48,49
 946 758 946 758 860 874.5 c 128,-1,50
 774 991 774 991 627 991 c 0,40,41
EndSplineSet
EndChar
StartChar: Tbar
Encoding: 358 358 358
Width: 1251
Flags: W
AnchorPoint: "above" 627 1520 basechar 0
AnchorPoint: "below" 627 0 basechar 0
AnchorPoint: "half" 0 1520 basechar 0
LayerCount: 2
Fore
SplineSet
-6 1493 m 1,0,-1
 1257 1493 l 1,1,-1
 1257 1323 l 1,2,-1
 727 1323 l 1,3,-1
 727 747 l 1,4,-1
 992 747 l 1,5,-1
 992 577 l 1,6,-1
 727 577 l 1,7,-1
 727 0 l 1,8,-1
 524 0 l 1,9,-1
 524 577 l 1,10,-1
 259 577 l 1,11,-1
 259 747 l 1,12,-1
 524 747 l 1,13,-1
 524 1323 l 1,14,-1
 -6 1323 l 1,15,-1
 -6 1493 l 1,0,-1
EndSplineSet
EndChar
StartChar: tbar
Encoding: 359 359 359
Width: 803
Flags: W
AnchorPoint: "above" 282 1520 basechar 0
AnchorPoint: "below" 500 0 basechar 0
AnchorPoint: "half" 0 1520 basechar 0
LayerCount: 2
Fore
SplineSet
375 1438 m 1,0,-1
 375 1120 l 1,1,-1
 754 1120 l 1,2,-1
 754 977 l 1,3,-1
 375 977 l 1,4,-1
 375 744 l 1,5,-1
 754 744 l 1,6,-1
 754 602 l 1,7,-1
 375 602 l 1,8,-1
 375 369 l 2,9,10
 375 232 375 232 412 193 c 0,11,12
 450 154 450 154 565 154 c 2,13,-1
 754 154 l 1,14,-1
 754 0 l 1,15,-1
 565 0 l 2,16,17
 352 0 352 0 271 80 c 0,18,19
 190 159 190 159 190 369 c 2,20,-1
 190 602 l 1,21,-1
 55 602 l 1,22,-1
 55 744 l 1,23,-1
 190 744 l 1,24,-1
 190 977 l 1,25,-1
 55 977 l 1,26,-1
 55 1120 l 1,27,-1
 190 1120 l 1,28,-1
 190 1438 l 1,29,-1
 375 1438 l 1,0,-1
EndSplineSet
EndChar
StartChar: longs
Encoding: 383 383 383
Width: 721
Flags: W
AnchorPoint: "above" 480 1520 basechar 0
AnchorPoint: "below" 315 0 basechar 0
AnchorPoint: "half" 0 1520 basechar 0
LayerCount: 2
Fore
SplineSet
408 0 m 1,0,-1
 223 0 l 1,1,-1
 223 977 l 1,2,-1
 47 977 l 1,3,-1
 47 1120 l 1,4,-1
 223 1120 l 1,5,-1
 223 1198 l 2,6,7
 223 1385 223 1385 310 1470.5 c 128,-1,8
 397 1556 397 1556 586 1556 c 2,9,-1
 760 1556 l 1,10,-1
 760 1403 l 1,11,-1
 584 1403 l 2,12,13
 485 1403 485 1403 446.5 1363 c 0,14,15
 408 1321.93 408 1321.93 408 1219 c 2,16,-1
 408 0 l 1,0,-1
EndSplineSet
EndChar
StartChar: uni0180
Encoding: 384 384 384
Width: 1300
Flags: W
AnchorPoint: "above" 278 1520 basechar 0
LayerCount: 2
Fore
SplineSet
997 559 m 128,-1,1
 997 762 997 762 913.5 877.5 c 128,-1,2
 830 993 830 993 684 993 c 128,-1,3
 538 993 538 993 454.5 877.5 c 128,-1,4
 371 762 371 762 371 559 c 128,-1,5
 371 356 371 356 454.5 240.5 c 128,-1,6
 538 125 538 125 684 125 c 128,-1,7
 830 125 830 125 913.5 240.5 c 128,-1,0
 997 356 997 356 997 559 c 128,-1,1
371 950 m 1,8,9
 429 1050.01 429 1050.01 517.5 1098.5 c 128,-1,10
 606.009 1147 606.009 1147 729 1147 c 0,11,12
 933 1147 933 1147 1060.5 985 c 128,-1,13
 1188 823 1188 823 1188 559 c 128,-1,14
 1188 295 1188 295 1060.5 133 c 128,-1,15
 933 -29 933 -29 729 -29 c 0,16,17
 606 -29 606 -29 517.5 19.5 c 128,-1,18
 429 68 429 68 371 168 c 1,19,-1
 371 0 l 1,20,-1
 186 0 l 1,21,-1
 186 1284 l 1,22,-1
 32 1284 l 1,23,-1
 32 1409 l 1,24,-1
 186 1409 l 1,25,-1
 186 1556 l 1,26,-1
 371 1556 l 1,27,-1
 371 1409 l 1,28,-1
 696 1409 l 1,29,-1
 696 1284 l 1,30,-1
 371 1284 l 1,31,-1
 371 950 l 1,8,9
EndSplineSet
EndChar
StartChar: uni0181
Encoding: 385 385 385
Width: 1505
Flags: W
LayerCount: 2
Fore
SplineSet
503 713 m 1,0,-1
 503 166 l 1,1,-1
 827 166 l 2,2,3
 990.005 166 990.005 166 1068.5 233.5 c 128,-1,4
 1147 301.009 1147 301.009 1147 440 c 0,5,6
 1147 579.992 1147 579.992 1068.5 646.5 c 128,-1,7
 990.004 713 990.004 713 827 713 c 2,8,-1
 503 713 l 1,0,-1
503 1327 m 1,9,-1
 503 877 l 1,10,-1
 802 877 l 2,11,12
 950 877 950 877 1022.5 932.5 c 128,-1,13
 1095 988.004 1095 988.004 1095 1102 c 0,14,15
 1095 1215 1095 1215 1022.5 1271 c 128,-1,16
 949.988 1327 949.988 1327 802 1327 c 2,17,-1
 503 1327 l 1,9,-1
301 1493 m 2,18,-1
 817 1493 l 2,19,20
 1048.01 1493 1048.01 1493 1173 1397 c 128,-1,21
 1298 1301 1298 1301 1298 1124 c 0,22,23
 1298 986.989 1298 986.989 1234 906 c 128,-1,24
 1169.99 824.999 1169.99 824.999 1046 805 c 1,25,26
 1195 772.998 1195 772.998 1277.5 671.5 c 128,-1,27
 1360 570 1360 570 1360 418 c 0,28,29
 1360 217.993 1360 217.993 1224 109 c 128,-1,30
 1087.99 0 1087.99 0 837 0 c 2,31,-1
 301 0 l 1,32,-1
 301.358 1327.52 l 1,33,34
 169.399 1327.52 169.399 1327.52 110.198 1280.25 c 128,-1,35
 51 1232.99 51 1232.99 51 1128 c 2,36,-1
 51 1079 l 1,37,-1
 -105 1079 l 1,38,-1
 -105 1149 l 2,39,40
 -105 1330.01 -105 1330.01 -9 1411.5 c 128,-1,41
 87.0078 1493 87.0078 1493 301 1493 c 2,18,-1
EndSplineSet
EndChar
StartChar: uni0183
Encoding: 387 387 387
Width: 1300
Flags: W
AnchorPoint: "above" 278 1520 basechar 0
AnchorPoint: "below" 695 0 basechar 0
LayerCount: 2
Fore
SplineSet
371 950 m 1,0,1
 429 1050.01 429 1050.01 517.5 1098.5 c 128,-1,2
 606.009 1147 606.009 1147 729 1147 c 0,3,4
 933 1147 933 1147 1060.5 985 c 128,-1,5
 1188 823 1188 823 1188 559 c 128,-1,6
 1188 295 1188 295 1060.5 133 c 128,-1,7
 933 -29 933 -29 729 -29 c 0,8,9
 606 -29 606 -29 517.5 19.5 c 128,-1,10
 429 68 429 68 371 168 c 1,11,-1
 371 0 l 1,12,-1
 186 0 l 1,13,-1
 186 1556 l 1,14,-1
 1032 1556 l 1,15,-1
 1032 1390 l 1,16,-1
 371 1390.55 l 1,17,-1
 371 950 l 1,0,1
997 559 m 128,-1,19
 997 762 997 762 913.5 877.5 c 128,-1,20
 830 993 830 993 684 993 c 128,-1,21
 538 993 538 993 454.5 877.5 c 128,-1,22
 371 762 371 762 371 559 c 128,-1,23
 371 356 371 356 454.5 240.5 c 128,-1,24
 538 125 538 125 684 125 c 128,-1,25
 830 125 830 125 913.5 240.5 c 128,-1,18
 997 356 997 356 997 559 c 128,-1,19
EndSplineSet
EndChar
StartChar: uni0184
Encoding: 388 388 388
Width: 1405
Flags: W
LayerCount: 2
Fore
SplineSet
1047 439 m 24,0,1
 1047 578 1047 578 968 646 c 0,2,3
 890 713 890 713 727 713 c 2,4,-1
 403 713 l 1,5,-1
 403 166 l 1,6,-1
 727 166 l 2,7,8
 890 166 890 166 968 234 c 0,9,10
 1047 301 1047 301 1047 439 c 24,0,1
403 1493 m 9,11,-1
 403 879 l 1,12,-1
 737 879 l 2,13,14
 988 879 988 879 1124 770 c 128,-1,15
 1260 661 1260 661 1260 439 c 24,16,17
 1260 218 1260 218 1124 109 c 128,-1,18
 988 0 988 0 737 0 c 2,19,-1
 201 0 l 1,20,-1
 201 1092 l 1,21,-1
 0 1092 l 1,22,-1
 312 1493 l 1,23,-1
 403 1493 l 9,11,-1
EndSplineSet
EndChar
StartChar: uni0185
Encoding: 389 389 389
Width: 1300
Flags: W
LayerCount: 2
Fore
SplineSet
371 950 m 1,0,1
 429 1050.01 429 1050.01 517.5 1098.5 c 128,-1,2
 606.009 1147 606.009 1147 729 1147 c 0,3,4
 933 1147 933 1147 1060.5 985 c 128,-1,5
 1188 823 1188 823 1188 559 c 128,-1,6
 1188 295 1188 295 1060.5 133 c 128,-1,7
 933 -29 933 -29 729 -29 c 0,8,9
 606 -29 606 -29 517.5 19.5 c 128,-1,10
 429 68 429 68 371 168 c 1,11,-1
 371 0 l 1,12,-1
 186 0 l 1,13,-1
 186 1092 l 1,14,-1
 0 1092 l 1,15,-1
 290 1556.55 l 1,16,-1
 371 1556.55 l 1,17,-1
 371 950 l 1,0,1
997 559 m 128,-1,19
 997 762 997 762 913.5 877.5 c 128,-1,20
 830 993 830 993 684 993 c 128,-1,21
 538 993 538 993 454.5 877.5 c 128,-1,22
 371 762 371 762 371 559 c 128,-1,23
 371 356 371 356 454.5 240.5 c 128,-1,24
 538 125 538 125 684 125 c 128,-1,25
 830 125 830 125 913.5 240.5 c 128,-1,18
 997 356 997 356 997 559 c 128,-1,19
EndSplineSet
EndChar
StartChar: uni0186
Encoding: 390 390 390
Width: 1440
Flags: W
AnchorPoint: "half" 0 1520 basechar 0
AnchorPoint: "below" 604 0 basechar 0
AnchorPoint: "cedilla" 604 0 basechar 0
AnchorPoint: "ogonek" 604 0 basechar 0
AnchorPoint: "above" 604 1520 basechar 0
LayerCount: 2
Fore
SplineSet
115 1378 m 1,0,1
 219 1449 219 1449 337.5 1484.5 c 128,-1,2
 456 1520 456 1520 590 1520 c 0,3,4
 929 1520 929 1520 1124 1312.5 c 128,-1,5
 1319 1105 1319 1105 1319 745 c 0,6,7
 1319 386 1319 386 1124 178.5 c 128,-1,8
 929 -29 929 -29 590 -29 c 0,9,10
 458 -29 458 -29 339.5 7 c 128,-1,11
 221 43 221 43 115 115 c 1,12,-1
 115 326 l 1,13,14
 217 231 217 231 332.5 184 c 128,-1,15
 448 137 448 137 578 137 c 0,16,17
 834 137 834 137 970 293.5 c 128,-1,18
 1106 450 1106 450 1106 745 c 0,19,20
 1106 1041 1106 1041 970 1197.5 c 128,-1,21
 834 1354 834 1354 578 1354 c 0,22,23
 448 1354 448 1354 332.5 1307 c 128,-1,24
 217 1260 217 1260 115 1165 c 1,25,-1
 115 1378 l 1,0,1
EndSplineSet
EndChar
StartChar: uni0187
Encoding: 391 391 391
Width: 1430
Flags: W
AnchorPoint: "above" 844 1520 basechar 0
LayerCount: 2
Fore
SplineSet
1319 1378 m 2,0,-1
 1319 1165 l 1,1,2
 1217 1260 1217 1260 1101.5 1307 c 128,-1,3
 986 1354 986 1354 856 1354 c 8,4,5
 600 1354 600 1354 464 1197.5 c 128,-1,6
 328 1041 328 1041 328 745 c 0,7,8
 328 450 328 450 464 293.5 c 128,-1,9
 600 137 600 137 856 137 c 0,10,11
 986 137 986 137 1101.5 184 c 128,-1,12
 1217 231 1217 231 1319 326 c 1,13,-1
 1319 115 l 1,14,15
 1213 43 1213 43 1094.5 7 c 128,-1,16
 976 -29 976 -29 844 -29 c 0,17,18
 505 -29 505 -29 310 178.5 c 128,-1,19
 115 386 115 386 115 745 c 0,20,21
 115 1105 115 1105 310 1312.5 c 128,-1,22
 505 1520 505 1520 844 1520 c 24,23,24
 940 1520 940 1520 1096 1484 c 0,25,26
 1109 1481 1109 1481 1121 1477 c 1,27,28
 1137 1672 1137 1672 1220 1770 c 0,29,30
 1322 1892 1322 1892 1549 1892 c 2,31,-1
 1626 1892 l 1,32,-1
 1626 1722 l 1,33,-1
 1563 1722 l 2,34,35
 1429 1722 1429 1722 1374 1647 c 128,-1,36
 1319 1572 1319 1572 1319 1378 c 2,0,-1
EndSplineSet
EndChar
StartChar: uni0188
Encoding: 392 392 392
Width: 1126
Flags: W
LayerCount: 2
Fore
SplineSet
999 1150 m 2,0,-1
 999 905 l 1,1,2
 921 948 921 948 842.5 969.5 c 128,-1,3
 764 991 764 991 684 991 c 0,4,5
 505 991 505 991 406 877.5 c 128,-1,6
 307 764 307 764 307 559 c 128,-1,7
 307 354 307 354 406 240.5 c 128,-1,8
 505 127 505 127 684 127 c 0,9,10
 764 127 764 127 842.5 148.5 c 128,-1,11
 921 170 921 170 999 213 c 1,12,-1
 999 43 l 1,13,14
 922 7 922 7 839.5 -11 c 128,-1,15
 757 -29 757 -29 664 -29 c 0,16,17
 411 -29 411 -29 262 130 c 128,-1,18
 113 289 113 289 113 559 c 0,19,20
 113 833 113 833 263.5 990 c 128,-1,21
 414 1147 414 1147 676 1147 c 24,22,23
 746.755 1147 746.755 1147 817 1135 c 9,24,-1
 817 1150 l 18,25,26
 817 1364 817 1364 897.5 1460 c 128,-1,27
 978 1556 978 1556 1159 1556 c 2,28,-1
 1228 1556 l 1,29,-1
 1228 1400 l 1,30,-1
 1180 1400 l 2,31,32
 1075 1400 1075 1400 1037 1351.5 c 128,-1,33
 999 1303 999 1303 999 1150 c 2,0,-1
EndSplineSet
EndChar
StartChar: uni018A
Encoding: 394 394 394
Width: 1677
Flags: W
LayerCount: 2
Fore
SplineSet
503 1327 m 1,0,-1
 503 166 l 1,1,-1
 747 166 l 2,2,3
 1055.99 166 1055.99 166 1199.5 306 c 128,-1,4
 1343 445.992 1343 445.992 1343 748 c 0,5,6
 1343 1048 1343 1048 1199.5 1187.5 c 128,-1,7
 1055.99 1327 1055.99 1327 747 1327 c 2,8,-1
 503 1327 l 1,0,-1
301 1493 m 2,9,-1
 716 1493 l 2,10,11
 1150 1493 1150 1493 1353 1312.5 c 128,-1,12
 1556 1132 1556 1132 1556 748 c 0,13,14
 1556 362 1556 362 1352 181 c 128,-1,15
 1148 0 1148 0 716 0 c 2,16,-1
 301 0 l 1,17,-1
 301.358 1327.52 l 1,18,19
 169.399 1327.52 169.399 1327.52 110.198 1280.25 c 128,-1,20
 51 1232.99 51 1232.99 51 1128 c 2,21,-1
 51 1079 l 1,22,-1
 -105 1079 l 1,23,-1
 -105 1149 l 2,24,25
 -105 1330.01 -105 1330.01 -9 1411.5 c 128,-1,26
 87.0078 1493 87.0078 1493 301 1493 c 2,9,-1
EndSplineSet
EndChar
StartChar: uni018B
Encoding: 395 395 395
Width: 1405
Flags: W
LayerCount: 2
Fore
SplineSet
414 439 m 24,0,1
 414 166 414 166 734 166 c 2,2,-1
 1058 166 l 1,3,-1
 1058 713 l 1,4,-1
 734 713 l 2,5,6
 571 713 571 713 492.5 645.5 c 128,-1,7
 414 578 414 578 414 439 c 24,0,1
414 1493 m 25,8,-1
 1260 1493 l 1,9,-1
 1260 0 l 1,10,-1
 724 0 l 2,11,12
 473 0 473 0 337 109 c 128,-1,13
 201 218 201 218 201 439.5 c 128,-1,14
 201 661 201 661 337 770 c 128,-1,15
 473 879 473 879 724 879 c 2,16,-1
 1058 879 l 1,17,-1
 1058 1327 l 1,18,-1
 414 1327 l 1,19,-1
 414 1493 l 25,8,-1
EndSplineSet
EndChar
StartChar: uni018C
Encoding: 396 396 396
Width: 1300
Flags: W
AnchorPoint: "above" 1022 1520 basechar 0
AnchorPoint: "below" 614 0 basechar 0
LayerCount: 2
Fore
SplineSet
269 1390 m 1,0,-1
 269 1556 l 1,1,-1
 1114 1556 l 1,2,-1
 1114 0 l 1,3,-1
 930 0 l 1,4,-1
 930 168 l 1,5,6
 872 68 872 68 783.5 19.5 c 128,-1,7
 695 -29 695 -29 571 -29 c 0,8,9
 368 -29 368 -29 240.5 133 c 128,-1,10
 113 295 113 295 113 559 c 128,-1,11
 113 823 113 823 240.5 985 c 128,-1,12
 368 1147 368 1147 571 1147 c 0,13,14
 695 1147 695 1147 783.5 1098.5 c 128,-1,15
 872 1050 872 1050 930 950 c 1,16,-1
 930 1391 l 1,17,-1
 269 1390 l 1,0,-1
303 559 m 128,-1,19
 303 356 303 356 386.5 240.5 c 128,-1,20
 470 125 470 125 616 125 c 128,-1,21
 762 125 762 125 846 240.5 c 128,-1,22
 930 356 930 356 930 559 c 128,-1,23
 930 762 930 762 846 877.5 c 128,-1,24
 762 993 762 993 616 993 c 128,-1,25
 470 993 470 993 386.5 877.5 c 128,-1,18
 303 762 303 762 303 559 c 128,-1,19
EndSplineSet
EndChar
StartChar: uni018D
Encoding: 397 397 397
Width: 1253
Flags: W
LayerCount: 2
Fore
SplineSet
875 66 m 1,0,1
 1032 -13 1032 -13 1032 -154 c 0,2,3
 1032 -426 1032 -426 591 -426 c 0,4,5
 370 -426 370 -426 250 -356 c 1,6,-1
 250 -203 l 17,7,8
 352 -273 352 -273 598 -273 c 128,-1,9
 844 -273 844 -273 844 -156 c 0,10,11
 844 -64 844 -64 580 -16 c 0,12,13
 372 21 372 21 255 133 c 0,14,15
 113 268 113 268 113 539 c 128,-1,16
 113 810 113 810 250 966.5 c 128,-1,17
 387 1123 387 1123 626.5 1123 c 128,-1,18
 866 1123 866 1123 1003.5 966.5 c 128,-1,19
 1141 810 1141 810 1140 535 c 24,20,21
 1140 379 1140 379 1062.5 249 c 128,-1,22
 985 119 985 119 875 66 c 1,0,1
946 535 m 24,23,24
 947 738 947 738 861.5 852.5 c 128,-1,25
 776 967 776 967 628 967 c 128,-1,26
 480 967 480 967 394 851 c 128,-1,27
 308 735 308 735 308 540.5 c 128,-1,28
 308 346 308 346 402 246.5 c 128,-1,29
 496 147 496 147 622 136 c 0,30,31
 686 130 686 130 737 116 c 1,32,33
 836 158 836 158 891 268 c 128,-1,34
 946 378 946 378 946 535 c 24,23,24
EndSplineSet
EndChar
StartChar: uni018E
Encoding: 398 398 398
Width: 1294
Flags: W
AnchorPoint: "above" 600 1520 basechar 0
LayerCount: 2
Fore
SplineSet
1093 1493 m 1,0,-1
 1093 0 l 1,1,-1
 131 0 l 1,2,-1
 131 170 l 1,3,-1
 891 170 l 1,4,-1
 891 711 l 1,5,-1
 180 711 l 1,6,-1
 180 881 l 1,7,-1
 891 881 l 1,8,-1
 891 1323 l 1,9,-1
 149 1323 l 1,10,-1
 149 1493 l 1,11,-1
 1093 1493 l 1,0,-1
EndSplineSet
EndChar
StartChar: uni018F
Encoding: 399 399 399
Width: 1612
Flags: W
AnchorPoint: "cedilla" 807 0 basechar 0
AnchorPoint: "half" 0 1520 basechar 0
AnchorPoint: "above" 807 1520 basechar 0
AnchorPoint: "below" 807 0 basechar 0
LayerCount: 2
Fore
SplineSet
117 780 m 1,0,-1
 1284 780 l 17,1,2
 1284 1048 1284 1048 1146.5 1201 c 128,-1,3
 1009 1354 1009 1354 735 1354 c 0,4,5
 596 1354 596 1354 470 1306 c 128,-1,6
 344 1258 344 1258 232 1163 c 1,7,-1
 232 1378 l 1,8,9
 343 1448 343 1448 474.5 1484 c 128,-1,10
 606 1520 606 1520 752 1520 c 0,11,12
 1102 1520 1102 1520 1299.5 1315.5 c 128,-1,13
 1497 1111 1497 1111 1497 745 c 24,14,15
 1497 392 1497 392 1309 181.5 c 128,-1,16
 1121 -29 1121 -29 807 -29 c 24,17,18
 478 -29 478 -29 297.5 190.5 c 128,-1,19
 117 410 117 410 117 780 c 1,0,-1
337 614 m 17,20,21
 350 419 350 419 477.5 277 c 128,-1,22
 605 135 605 135 807 135 c 152,-1,23
 1009 135 1009 135 1136.5 277 c 128,-1,24
 1264 419 1264 419 1277 614 c 9,25,-1
 337 614 l 17,20,21
EndSplineSet
EndChar
StartChar: uni0190
Encoding: 400 400 400
Width: 1258
Flags: W
AnchorPoint: "cedilla" 708 0 basechar 0
AnchorPoint: "below" 708 0 basechar 0
AnchorPoint: "half" 0 1520 basechar 0
AnchorPoint: "above" 708 1520 basechar 0
LayerCount: 2
Fore
SplineSet
472 805 m 1,0,1
 341 838 341 838 270 923.5 c 128,-1,2
 199 1009 199 1009 199 1133 c 0,3,4
 199 1311 199 1311 333 1415.5 c 128,-1,5
 467 1520 467 1520 697 1520 c 0,6,7
 786 1520 786 1520 886.5 1504 c 128,-1,8
 987 1488 987 1488 1102 1456 c 1,9,-1
 1102 1276 l 1,10,11
 988 1314 988 1314 893 1332 c 128,-1,12
 798 1350 798 1350 715 1350 c 0,13,14
 563 1350 563 1350 481.5 1288.5 c 128,-1,15
 400 1227 400 1227 400 1112 c 0,16,17
 400 1000 400 1000 479 940.5 c 128,-1,18
 558 881 558 881 707 881 c 2,19,-1
 889 881 l 1,20,-1
 889 715 l 1,21,-1
 715 715 l 2,22,23
 550 715 550 715 457.5 640.5 c 128,-1,24
 365 566 365 566 365 434 c 0,25,26
 365 291 365 291 464.5 216 c 128,-1,27
 564 141 564 141 754 141 c 0,28,29
 863 141 863 141 963 166 c 128,-1,30
 1063 191 1063 191 1147 240 c 1,31,-1
 1147 45 l 1,32,33
 1041 8 1041 8 941.5 -10.5 c 128,-1,34
 842 -29 842 -29 748 -29 c 0,35,36
 468 -29 468 -29 316 92 c 128,-1,37
 164 213 164 213 164 434 c 0,38,39
 164 578 164 578 245.5 676 c 128,-1,40
 327 774 327 774 472 805 c 1,0,1
EndSplineSet
EndChar
StartChar: uni0191
Encoding: 401 401 401
Width: 1178
Flags: W
AnchorPoint: "above" 670 1520 basechar 0
LayerCount: 2
Fore
SplineSet
201 1493 m 1,0,-1
 1059 1493 l 1,1,-1
 1059 1323 l 1,2,-1
 403 1323 l 1,3,-1
 403 883 l 1,4,-1
 995 883 l 1,5,-1
 995 713 l 1,6,-1
 403 713 l 1,7,-1
 403 104 l 2,8,9
 403 -166.005 403 -166.005 300.5 -288 c 128,-1,10
 197.996 -410 197.996 -410 -29 -410 c 2,11,-1
 -106 -410 l 1,12,-1
 -106 -240 l 1,13,-1
 -43 -240 l 2,14,15
 91 -240 91 -240 146 -165 c 128,-1,16
 201 -90.0007 201 -90.0007 201 104 c 2,17,-1
 201 1493 l 1,0,-1
EndSplineSet
EndChar
StartChar: florin
Encoding: 402 402 402
Width: 721
Flags: W
AnchorPoint: "below" 311 -430 basechar 0
AnchorPoint: "above" 315 1520 basechar 0
LayerCount: 2
Fore
SplineSet
760 1556 m 1,0,-1
 760 1403 l 1,1,-1
 584 1403 l 2,2,3
 484.996 1403 484.996 1403 446.5 1363 c 128,-1,4
 408 1322.99 408 1322.99 408 1219 c 2,5,-1
 408 1120 l 1,6,-1
 711 1120 l 1,7,-1
 711 977 l 1,8,-1
 408 977 l 1,9,-1
 408 -68 l 2,10,11
 408 -255 408 -255 321 -340.5 c 128,-1,12
 234 -426 234 -426 45 -426 c 2,13,-1
 -129 -426 l 1,14,-1
 -129 -273 l 1,15,-1
 47 -273 l 2,16,17
 146.004 -273 146.004 -273 184.5 -233 c 128,-1,18
 223 -192.996 223 -192.996 223 -89 c 2,19,-1
 223 977 l 1,20,-1
 47 977 l 1,21,-1
 47 1120 l 1,22,-1
 223 1120 l 1,23,-1
 223 1198 l 2,24,25
 223 1385 223 1385 310 1470.5 c 128,-1,26
 397 1556 397 1556 586 1556 c 2,27,-1
 760 1556 l 1,0,-1
EndSplineSet
EndChar
StartChar: uni0193
Encoding: 403 403 403
Width: 1587
Flags: W
AnchorPoint: "above" 860 1520 basechar 0
LayerCount: 2
Fore
SplineSet
1219 213 m 1,0,-1
 1219 614 l 1,1,-1
 889 614 l 1,2,-1
 889 780 l 1,3,-1
 1419 780 l 1,4,-1
 1419 139 l 1,5,6
 1302 56.0001 1302 56.0001 1161 13.5 c 128,-1,7
 1020 -29 1020 -29 860 -29 c 0,8,9
 510 -29 510 -29 312.5 175.5 c 128,-1,10
 115 379.999 115 379.999 115 745 c 0,11,12
 115 1111.01 115 1111.01 312.5 1315.5 c 128,-1,13
 510.014 1520 510.014 1520 860 1520 c 24,14,15
 950.52 1520 950.52 1520 1032.05 1507.4 c 128,-1,16
 1113.58 1494.8 1113.58 1494.8 1182 1470 c 1,17,18
 1182 1658 1182 1658 1282.5 1775 c 128,-1,19
 1383 1892 1383 1892 1610 1892 c 2,20,-1
 1687 1892 l 1,21,-1
 1687 1722 l 1,22,-1
 1624 1722 l 2,23,24
 1490.01 1722 1490.01 1722 1435 1647 c 128,-1,25
 1380 1572.01 1380 1572.01 1380 1378 c 2,26,-1
 1380 1163 l 1,27,28
 1267.95 1258.02 1267.95 1258.02 1142 1306 c 128,-1,29
 1015.98 1354 1015.98 1354 877 1354 c 0,30,31
 603 1354 603 1354 465.5 1201 c 128,-1,32
 328 1048 328 1048 328 745 c 0,33,34
 328 443 328 443 465.5 290 c 128,-1,35
 603 137 603 137 877 137 c 0,36,37
 983.998 137 983.998 137 1068 155.5 c 128,-1,38
 1151.99 173.997 1151.99 173.997 1219 213 c 1,0,-1
EndSplineSet
EndChar
StartChar: uni0194
Encoding: 404 404 404
Width: 1406
Flags: W
AnchorPoint: "above" 703 1520 basechar 0
LayerCount: 2
Fore
SplineSet
703 -259 m 152,-1,1
 757.403 -259 757.403 -259 801 -227.176 c 0,2,3
 829 -207.291 829 -207.291 829 -141 c 0,4,5
 829 -84 829 -84 798 -11 c 0,6,7
 746.72 110.078 746.72 110.078 702.788 201.775 c 1,8,9
 659.28 110.078 659.28 110.078 608 -11 c 0,10,11
 577 -84 577 -84 577 -141 c 0,12,13
 577 -207.291 577 -207.291 605 -227.176 c 0,14,0
 648.597 -259 648.597 -259 703 -259 c 152,-1,1
703 630.685 m 1,15,-1
 1176 1493 l 1,16,-1
 1398 1493 l 1,17,-1
 816.331 420.432 l 1,18,19
 919.822 219.788 919.822 219.788 987 46 c 0,20,21
 1033 -73.0001 1033 -73.0001 1033 -139 c 0,22,23
 1033 -278.499 1033 -278.499 958 -343.25 c 0,24,25
 857.52 -430 857.52 -430 703 -430 c 152,-1,26
 548.48 -430 548.48 -430 448 -343.25 c 0,27,28
 373 -278.498 373 -278.498 373 -139 c 0,29,30
 373 -73 373 -73 419 46 c 0,31,32
 486.178 219.788 486.178 219.788 589.669 420.432 c 1,33,-1
 8 1493 l 1,34,-1
 230 1493 l 1,35,-1
 703 630.685 l 1,15,-1
EndSplineSet
EndChar
StartChar: uni0195
Encoding: 405 405 405
Width: 2015
Flags: W
LayerCount: 2
Fore
SplineSet
1356 156 m 2,0,1
 1505 156 1505 156 1589 254 c 0,2,3
 1676 355 1676 355 1676 510 c 0,4,5
 1676 732 1676 732 1602 844 c 0,6,7
 1540 939 1540 939 1419 972 c 1,8,-1
 1419 1120 l 1,9,10
 1643 1091 1643 1091 1752 948 c 0,11,12
 1863 803 1863 803 1863 527 c 0,13,14
 1863 282 1863 282 1719 141 c 128,-1,15
 1575 0 1575 0 1354 0 c 2,16,-1
 1284 0 l 2,17,18
 1097 0 1097 0 1018.5 100 c 128,-1,19
 940 200 940 200 940 406 c 2,20,-1
 940 670 l 2,21,22
 940 829 940 829 878 908 c 128,-1,23
 816 987 816 987 692 987 c 0,24,25
 543 987 543 987 457 892 c 128,-1,26
 371 797 371 797 371 633 c 2,27,-1
 371 0 l 1,28,-1
 186 0 l 1,29,-1
 186 1556 l 1,30,-1
 371 1556 l 1,31,-1
 371 946 l 1,32,33
 437 1047 437 1047 526.5 1097 c 128,-1,34
 616 1147 616 1147 733 1147 c 0,35,36
 926 1147 926 1147 1025 1027.5 c 128,-1,37
 1124 908 1124 908 1124 676 c 2,38,-1
 1124 406 l 2,39,40
 1124 259 1124 259 1162 207.5 c 128,-1,41
 1200 156 1200 156 1305 156 c 2,42,-1
 1356 156 l 2,0,1
EndSplineSet
EndChar
StartChar: uni0196
Encoding: 406 406 406
Width: 724
Flags: W
AnchorPoint: "above" 303 1520 basechar 0
LayerCount: 2
Fore
SplineSet
201 1493 m 1,0,-1
 403 1493 l 1,1,-1
 403 514 l 2,2,3
 403 319.999 403 319.999 458 245 c 128,-1,4
 513 170 513 170 647 170 c 2,5,-1
 710 170 l 1,6,-1
 710 0 l 1,7,-1
 633 0 l 2,8,9
 406 0 406 0 303.5 122 c 128,-1,10
 201 244 201 244 201 514 c 2,11,-1
 201 1493 l 1,0,-1
EndSplineSet
EndChar
StartChar: uni0197
Encoding: 407 407 407
Width: 866
Flags: W
AnchorPoint: "cedilla" 303 0 basechar 0
AnchorPoint: "half" 0 1520 basechar 0
AnchorPoint: "ogonek" 344 0 basechar 0
AnchorPoint: "below" 303 0 basechar 0
AnchorPoint: "above" 303 1520 basechar 0
LayerCount: 2
Fore
SplineSet
131 1493 m 1,0,-1
 735 1493 l 1,1,-1
 735 1323 l 1,2,-1
 534 1323 l 1,3,-1
 534 747 l 1,4,-1
 725 747 l 1,5,-1
 725 577 l 1,6,-1
 534 577 l 1,7,-1
 534 170 l 1,8,-1
 735 170 l 1,9,-1
 735 0 l 1,10,-1
 131 0 l 1,11,-1
 131 170 l 1,12,-1
 332 170 l 1,13,-1
 332 577 l 1,14,-1
 141 577 l 1,15,-1
 141 747 l 1,16,-1
 332 747 l 1,17,-1
 332 1323 l 1,18,-1
 131 1323 l 1,19,-1
 131 1493 l 1,0,-1
EndSplineSet
EndChar
StartChar: uni0198
Encoding: 408 408 408
Width: 1527
Flags: W
LayerCount: 2
Fore
SplineSet
1527 1096 m 25,0,-1
 1357 1096 l 25,1,-1
 1357 1217 l 18,2,3
 1357 1271 1357 1271 1320.5 1311 c 128,-1,4
 1284 1351 1284 1351 1246 1351 c 0,5,6
 1175.89 1351 1175.89 1351 1139 1316 c 2,7,-1
 592 797 l 1,8,-1
 1386 0 l 1,9,-1
 1120 0 l 1,10,-1
 403 719 l 1,11,-1
 403 0 l 1,12,-1
 201 0 l 1,13,-1
 201 1493 l 1,14,-1
 403 1493 l 1,15,-1
 403 862 l 1,16,-1
 1023 1441 l 2,17,18
 1107.59 1520 1107.59 1520 1221 1520 c 0,19,20
 1357 1520 1357 1520 1442 1428 c 0,21,22
 1527 1337 1527 1337 1527 1227 c 10,23,-1
 1527 1096 l 25,0,-1
EndSplineSet
EndChar
StartChar: uni0199
Encoding: 409 409 409
Width: 1186
Flags: W
AnchorPoint: "above" 279 1520 basechar 0
LayerCount: 2
Fore
SplineSet
185 1150 m 2,0,1
 185 1364 185 1364 266.5 1460 c 128,-1,2
 348 1556 348 1556 529 1556 c 2,3,-1
 720 1556 l 1,4,-1
 720 1400 l 1,5,-1
 552 1400 l 2,6,7
 447 1400 447 1400 409 1351.5 c 128,-1,8
 371 1303 371 1303 371 1150 c 2,9,-1
 371 637 l 1,10,-1
 920 1120 l 1,11,-1
 1155 1120 l 1,12,-1
 561 596 l 1,13,-1
 1180 0 l 1,14,-1
 940 0 l 1,15,-1
 371 547 l 1,16,-1
 371 0 l 1,17,-1
 186 0 l 1,18,-1
 185 1150 l 2,0,1
EndSplineSet
EndChar
StartChar: uni019A
Encoding: 410 410 410
Width: 569
Flags: W
AnchorPoint: "above" 278 1520 basechar 0
LayerCount: 2
Fore
SplineSet
193 1520 m 1,0,-1
 377 1556 l 1,1,-1
 377 844 l 1,2,-1
 554 844 l 1,3,-1
 554 700 l 1,4,-1
 377 700 l 1,5,-1
 377 0 l 1,6,-1
 193 0 l 1,7,-1
 193 700 l 1,8,-1
 10 700 l 1,9,-1
 10 844 l 1,10,-1
 193 844 l 1,11,-1
 193 1520 l 1,0,-1
EndSplineSet
EndChar
StartChar: uni019B
Encoding: 411 411 411
Width: 1212
Flags: W
AnchorPoint: "above" 642 1520 basechar 0
LayerCount: 2
Fore
SplineSet
61 0 m 1,0,-1
 552 1074 l 1,1,-1
 481 1262 l 1,2,-1
 181 1161 l 1,3,-1
 148 1260 l 1,4,-1
 445 1359 l 1,5,-1
 370 1556 l 1,6,-1
 570 1556 l 1,7,-1
 622 1418 l 1,8,-1
 936 1522 l 1,9,-1
 969 1425 l 1,10,-1
 658 1321 l 1,11,-1
 1151 0 l 1,12,-1
 956 0 l 1,13,-1
 642 828 l 1,14,-1
 256 0 l 1,15,-1
 61 0 l 1,0,-1
EndSplineSet
EndChar
StartChar: uni019C
Encoding: 412 412 412
Width: 1995
Flags: W
CounterMasks: 1 1c
LayerCount: 2
Fore
SplineSet
934 213 m 1,0,1
 865 89 865 89 769 30 c 128,-1,2
 673 -29 673 -29 543 -29 c 0,3,4
 368 -29 368 -29 273 94 c 0,5,6
 178 216 178 216 178 442 c 2,7,-1
 178 1493 l 1,8,-1
 381 1493 l 1,9,-1
 381 452 l 2,10,11
 381 266 381 266 420 213 c 0,12,13
 477 135 477 135 594 135 c 0,14,15
 737 135 737 135 820 230 c 128,-1,16
 903 325 903 325 903 489 c 2,17,-1
 903 1493 l 1,18,-1
 1106 1493 l 1,19,-1
 1106 452 l 2,20,21
 1106 290 1106 290 1163 212 c 0,22,23
 1220 135 1220 135 1339 135 c 0,24,25
 1462 135 1462 135 1545 230 c 0,26,27
 1628 326 1628 326 1628 489 c 2,28,-1
 1628 1493 l 1,29,-1
 1831 1493 l 1,30,-1
 1831 -2 l 1,31,-1
 1628 -2 l 1,32,-1
 1628 172 l 1,33,34
 1565 69 1565 69 1477 20 c 128,-1,35
 1389 -29 1389 -29 1268 -29 c 0,36,37
 1146 -29 1146 -29 1060 33 c 0,38,39
 975 95 975 95 934 213 c 1,0,1
EndSplineSet
EndChar
StartChar: uni019D
Encoding: 413 413 413
Width: 1532
Flags: W
AnchorPoint: "above" 757 1520 basechar 0
LayerCount: 2
Fore
SplineSet
201 1493 m 1,0,-1
 473 1493 l 1,1,-1
 1135 244 l 1,2,-1
 1135 1493 l 1,3,-1
 1331 1493 l 1,4,-1
 1331 0 l 1,5,-1
 1059 0 l 1,6,-1
 397 1249 l 1,7,-1
 397 104 l 2,8,9
 397 -166 397 -166 294.5 -288 c 128,-1,10
 192 -410 192 -410 -34.9961 -410 c 2,11,-1
 -106 -410 l 1,12,-1
 -106 -240 l 1,13,-1
 -43 -240 l 2,14,15
 91 -240 91 -240 146 -165 c 128,-1,16
 201 -90.0007 201 -90.0007 201 104 c 2,17,-1
 201 1493 l 1,0,-1
EndSplineSet
EndChar
StartChar: uni019F
Encoding: 415 415 415
Width: 1612
Flags: W
AnchorPoint: "above" 807 1520 basechar 0
AnchorPoint: "below" 807 0 basechar 0
AnchorPoint: "cedilla" 807 0 basechar 0
AnchorPoint: "half" 0 1520 basechar 0
AnchorPoint: "ogonek" 808 0 basechar 0
LayerCount: 2
Fore
SplineSet
115 745 m 128,-1,1
 115 1099 115 1099 303.5 1309.5 c 128,-1,2
 492 1520 492 1520 806.5 1520 c 128,-1,3
 1121 1520 1121 1520 1309 1309.5 c 128,-1,4
 1497 1099 1497 1099 1497 745.5 c 128,-1,5
 1497 392 1497 392 1309 181.5 c 128,-1,6
 1121 -29 1121 -29 806.5 -29 c 128,-1,7
 492 -29 492 -29 303.5 181 c 128,-1,0
 115 391 115 391 115 745 c 128,-1,1
807.5 1356 m 152,-1,9
 605.5 1356 605.5 1356 478 1214 c 128,-1,10
 350.5 1072 350.5 1072 337.5 877 c 9,11,-1
 1277.5 877 l 17,12,13
 1264.5 1072 1264.5 1072 1137 1214 c 128,-1,8
 1009.5 1356 1009.5 1356 807.5 1356 c 152,-1,9
328 710 m 1,14,15
 336 453 336 453 461.5 294 c 128,-1,16
 587 135 587 135 807 135 c 128,-1,17
 1027 135 1027 135 1151 293.5 c 128,-1,18
 1275 452 1275 452 1283 710 c 9,19,-1
 328 710 l 1,14,15
EndSplineSet
EndChar
StartChar: uni01A2
Encoding: 418 418 418
Width: 1943
Flags: W
LayerCount: 2
Fore
SplineSet
1541 0 m 1,0,-1
 1541 979 l 2,1,2
 1541 1173 1541 1173 1486 1248 c 128,-1,3
 1431 1323 1431 1323 1309 1323 c 1,4,-1
 1309 182 l 1,5,6
 1121 -29 1121 -29 806 -29 c 0,7,8
 492 -29 492 -29 303.5 181 c 128,-1,9
 115 391 115 391 115 745 c 128,-1,10
 115 1099 115 1099 303.5 1309.5 c 128,-1,11
 492 1520 492 1520 807 1520 c 0,12,13
 919 1520 919 1520 1016 1493 c 1,14,-1
 1311 1493 l 2,15,16
 1538 1493 1538 1493 1640.5 1371 c 128,-1,17
 1743 1249 1743 1249 1743 979 c 2,18,-1
 1743 0 l 1,19,-1
 1541 0 l 1,0,-1
807 1356 m 0,20,21
 587 1356 587 1356 457.5 1192 c 128,-1,22
 328 1028 328 1028 328 746 c 0,23,24
 328 463 328 463 457.5 299 c 128,-1,25
 587 135 587 135 807 135 c 0,26,27
 982 135 982 135 1110 238 c 1,28,-1
 1110 1286 l 1,29,30
 972 1356 972 1356 807 1356 c 0,20,21
EndSplineSet
EndChar
StartChar: uni01A3
Encoding: 419 419 419
Width: 1555
Flags: W
LayerCount: 2
Fore
SplineSet
1185 -426 m 1,0,-1
 1185 714 l 2,1,2
 1185 867 1185 867 1147 916 c 0,3,4
 1109 964 1109 964 1004 964 c 1,5,-1
 1004 128 l 1,6,7
 867 -29 867 -29 627 -29 c 0,8,9
 386 -29 386 -29 249.5 127.5 c 128,-1,10
 113 284 113 284 113 559 c 0,11,12
 113 835 113 835 249.5 991 c 128,-1,13
 386 1147 386 1147 627 1147 c 0,14,15
 727 1147 727 1147 809 1120 c 1,16,-1
 1025 1120 l 2,17,18
 1206 1120 1206 1120 1288 1024 c 0,19,20
 1369 928 1369 928 1369 714 c 2,21,-1
 1369 -426 l 1,22,-1
 1185 -426 l 1,0,-1
627 991 m 0,23,24
 479 991 479 991 393 875.5 c 128,-1,25
 307 760 307 760 307 559 c 128,-1,26
 307 358 307 358 392.5 242.5 c 128,-1,27
 478 127 478 127 627 127 c 0,28,29
 756 127 756 127 820 184.85 c 1,30,-1
 820 936.85 l 1,31,32
 736 991 736 991 627 991 c 0,23,24
EndSplineSet
EndChar
StartChar: uni01A4
Encoding: 420 420 420
Width: 1335
Flags: W
AnchorPoint: "above" 770 1520 basechar 0
LayerCount: 2
Fore
SplineSet
503 1327 m 1,0,-1
 503 766 l 1,1,-1
 757 766 l 2,2,3
 898 766 898 766 975 839 c 128,-1,4
 1052 912 1052 912 1052 1047 c 0,5,6
 1052 1180.99 1052 1180.99 975 1254 c 128,-1,7
 898.008 1327 898.008 1327 757 1327 c 2,8,-1
 503 1327 l 1,0,-1
301 1493 m 2,9,-1
 757 1493 l 2,10,11
 1008.01 1493 1008.01 1493 1136.5 1379.5 c 128,-1,12
 1265 1265.99 1265 1265.99 1265 1047 c 0,13,14
 1265 825.995 1265 825.995 1136.5 713 c 128,-1,15
 1007.99 600 1007.99 600 757 600 c 2,16,-1
 503 600 l 1,17,-1
 503 0 l 1,18,-1
 301 0 l 1,19,-1
 301.358 1327.52 l 1,20,21
 169.399 1327.52 169.399 1327.52 110.198 1280.25 c 128,-1,22
 51 1232.99 51 1232.99 51 1128 c 2,23,-1
 51 1079 l 1,24,-1
 -105 1079 l 1,25,-1
 -105 1149 l 2,26,27
 -105 1330.01 -105 1330.01 -9 1411.5 c 128,-1,28
 87.0078 1493 87.0078 1493 301 1493 c 2,9,-1
EndSplineSet
EndChar
StartChar: uni01A5
Encoding: 421 421 421
Width: 1300
Flags: W
LayerCount: 2
Fore
SplineSet
371 168 m 1,0,-1
 371 -426 l 1,1,-1
 185 -426 l 1,2,-1
 185 1150 l 2,3,4
 185 1363.83 185 1363.83 266.5 1459.92 c 128,-1,5
 348 1556 348 1556 529 1556 c 2,6,-1
 783 1556 l 1,7,-1
 783 1400 l 1,8,-1
 552 1400 l 2,9,10
 447 1400 447 1400 409 1351.5 c 128,-1,11
 371 1303 371 1303 371 1150 c 10,12,-1
 371 950 l 1,13,14
 429 1050.01 429 1050.01 517.5 1098.5 c 128,-1,15
 606.027 1147 606.027 1147 729 1147 c 0,16,17
 933 1147 933 1147 1060.5 985 c 128,-1,18
 1188 823 1188 823 1188 559 c 128,-1,19
 1188 295 1188 295 1060.5 133 c 128,-1,20
 933 -29 933 -29 729 -29 c 0,21,22
 606 -29 606 -29 517.5 19.5 c 128,-1,23
 429 68 429 68 371 168 c 1,0,-1
997 559 m 128,-1,25
 997 762 997 762 913.5 877.5 c 128,-1,26
 830 993 830 993 684 993 c 128,-1,27
 538 993 538 993 454.5 877.5 c 128,-1,28
 371 762 371 762 371 559 c 128,-1,29
 371 356 371 356 454.5 240.5 c 128,-1,30
 538 125 538 125 684 125 c 128,-1,31
 830 125 830 125 913.5 240.5 c 128,-1,24
 997 356 997 356 997 559 c 128,-1,25
EndSplineSet
EndChar
StartChar: uni01A6
Encoding: 422 422 422
Width: 1423
Flags: W
LayerCount: 2
Fore
SplineSet
909 436 m 1,0,1
 974 414 974 414 1035.5 342 c 128,-1,2
 1097 270 1097 270 1159 144 c 1,3,-1
 1364 -264 l 1,4,-1
 1147 -264 l 1,5,-1
 956 119 l 1,6,7
 882 269 882 269 812.5 318 c 128,-1,8
 743 367 743 367 623 367 c 2,9,-1
 403 367 l 1,10,-1
 403 0 l 1,11,-1
 201 0 l 1,12,-1
 201 1493 l 1,13,-1
 403 1493 l 1,14,-1
 403 1229 l 1,15,-1
 657 1229 l 2,16,17
 913 1229 913 1229 1039 1122 c 128,-1,18
 1165 1015 1165 1015 1165 799 c 0,19,20
 1165 658 1165 658 1099.5 565 c 128,-1,21
 1034 472 1034 472 909 436 c 1,0,1
403 1063 m 1,22,-1
 403 504 l 1,23,-1
 657 504 l 2,24,25
 798 504 798 504 875 577 c 128,-1,26
 952 650 952 650 952 784 c 128,-1,27
 952 918 952 918 875.5 990.5 c 128,-1,28
 799 1063 799 1063 657 1063 c 2,29,-1
 403 1063 l 1,22,-1
EndSplineSet
EndChar
StartChar: uni01A7
Encoding: 423 423 423
Width: 1300
Flags: W
AnchorPoint: "above" 704 1520 basechar 0
LayerCount: 2
Fore
SplineSet
204 1444 m 1,0,1
 432 1520 432 1520 659 1520 c 128,-1,2
 886 1520 886 1520 1025.5 1406 c 128,-1,3
 1165 1292 1165 1292 1165 1107.5 c 128,-1,4
 1165 923 1165 923 1064 827 c 128,-1,5
 963 731 963 731 737 686 c 2,6,-1
 614 662 l 2,7,8
 460 631 460 631 392.5 569 c 128,-1,9
 325 507 325 507 325 389 c 128,-1,10
 325 271 325 271 419 203 c 128,-1,11
 513 135 513 135 686 135 c 0,12,13
 911.217 135 911.217 135 1159 274 c 1,14,-1
 1159 66 l 1,15,16
 900.277 -29 900.277 -29 686 -29 c 0,17,18
 405 -29 405 -29 259 83 c 0,19,20
 114 195 114 195 114 412 c 0,21,22
 114 594 114 594 221.5 702.5 c 128,-1,23
 329 811 329 811 555 854 c 2,24,-1
 677 879 l 2,25,26
 843 910 843 910 903 960 c 0,27,28
 962 1011 962 1011 962 1119.5 c 128,-1,29
 962 1228 962 1228 873 1292 c 0,30,31
 783 1356 783 1356 607.455 1356 c 128,-1,32
 431.909 1356 431.909 1356 204 1247 c 1,33,-1
 204 1444 l 1,0,1
EndSplineSet
EndChar
StartChar: uni01A8
Encoding: 424 424 424
Width: 1067
Flags: W
AnchorPoint: "above" 551 1147 basechar 0
LayerCount: 2
Fore
SplineSet
160 1087 m 1,0,1
 236 1117 236 1117 326 1132 c 128,-1,2
 416 1147 416 1147 518 1147 c 0,3,4
 724 1147 724 1147 836 1061 c 128,-1,5
 948 975 948 975 948 817 c 0,6,7
 948 687 948 687 872 612.5 c 128,-1,8
 796 538 796 538 625 502 c 1,9,-1
 561 487 l 2,10,11
 390 450 390 450 339.5 410 c 128,-1,12
 289 370 289 370 289 295 c 0,13,14
 289 214 289 214 359 169.5 c 128,-1,15
 429 125 429 125 559 125 c 0,16,17
 656 125 656 125 755 151.5 c 128,-1,18
 854 178 854 178 956 231 c 1,19,-1
 956 41 l 1,20,21
 848 6 848 6 750.5 -11.5 c 128,-1,22
 653 -29 653 -29 563 -29 c 0,23,24
 347 -29 347 -29 223.5 62 c 128,-1,25
 100 153 100 153 100 309 c 0,26,27
 100 446 100 446 182.5 522.5 c 128,-1,28
 265 599 265 599 461 641 c 2,29,-1
 524 655 l 2,30,31
 672 688 672 688 721 724.5 c 128,-1,32
 770 761 770 761 770 825 c 0,33,34
 770 909 770 909 701.5 951 c 128,-1,35
 633 993 633 993 496 993 c 0,36,37
 406 993 406 993 322 973 c 128,-1,38
 238 953 238 953 160 913 c 1,39,-1
 160 1087 l 1,0,1
EndSplineSet
EndChar
StartChar: uni01AA
Encoding: 426 426 426
Width: 688
Flags: W
AnchorPoint: "above" 278 1520 basechar 0
AnchorPoint: "below" 278 -390 basechar 0
LayerCount: 2
Fore
SplineSet
375 1130 m 1,0,-1
 375 -89 l 2,1,2
 375 -193 375 -193 413.5 -233 c 128,-1,3
 452 -273 452 -273 551 -273 c 2,4,-1
 727 -273 l 1,5,-1
 727 -426 l 1,6,-1
 553 -426 l 2,7,8
 364 -426 364 -426 277 -340.5 c 128,-1,9
 190 -255 190 -255 190 -68 c 2,10,-1
 190 1130 l 1,11,-1
 0 1130 l 2,12,13
 -270 1130 -270 1130 -270 1340 c 0,14,15
 -270 1556 -270 1556 33 1556 c 0,16,17
 214 1556 214 1556 296 1460 c 0,18,19
 349 1396 349 1396 367 1285 c 1,20,-1
 558 1285 l 1,21,-1
 558 1130 l 1,22,-1
 375 1130 l 1,0,-1
180 1284 m 1,23,24
 171.548 1327.93 171.548 1327.93 155 1352 c 0,25,26
 122 1400 122 1400 12 1400 c 0,27,28
 -112 1400 -112 1400 -115 1335 c 0,29,30
 -118 1284 -118 1284 1 1284 c 2,31,-1
 180 1284 l 1,23,24
EndSplineSet
EndChar
StartChar: uni01AB
Encoding: 427 427 427
Width: 803
Flags: W
AnchorPoint: "above" 282 1520 basechar 0
LayerCount: 2
Fore
SplineSet
375 1438 m 1,0,-1
 375 1120 l 1,1,-1
 754 1120 l 1,2,-1
 754 977 l 1,3,-1
 375 977 l 1,4,-1
 375 369 l 2,5,6
 375 232 375 232 412.5 193 c 128,-1,7
 450 154 450 154 565 154 c 2,8,-1
 754 154 l 1,9,-1
 754 -20 l 2,10,11
 754 -234 754 -234 672 -330 c 128,-1,12
 590 -426 590 -426 410 -426 c 2,13,-1
 340 -426 l 1,14,-1
 340 -270 l 1,15,-1
 388 -270 l 2,16,17
 494 -270 494 -270 532 -222 c 0,18,19
 570 -173 570 -173 570 -20 c 2,20,-1
 570 0 l 1,21,22
 357 0 357 0 273.5 79.5 c 128,-1,23
 190 159 190 159 190 369 c 2,24,-1
 190 977 l 1,25,-1
 55 977 l 1,26,-1
 55 1120 l 1,27,-1
 190 1120 l 1,28,-1
 190 1438 l 1,29,-1
 375 1438 l 1,0,-1
EndSplineSet
EndChar
StartChar: uni01AC
Encoding: 428 428 428
Width: 1251
Flags: W
AnchorPoint: "above" 627 1520 basechar 0
LayerCount: 2
Fore
SplineSet
430 1493 m 10,0,-1
 1257 1493 l 1,1,-1
 1257 1323 l 1,2,-1
 727 1323 l 1,3,-1
 727 0 l 1,4,-1
 524 0 l 1,5,-1
 524 1323 l 1,6,-1
 430 1323 l 18,7,8
 298.041 1323 298.041 1323 239.021 1278 c 128,-1,9
 180 1232.99 180 1232.99 180 1128 c 2,10,-1
 180 1079 l 1,11,-1
 24 1079 l 1,12,-1
 24 1149 l 2,13,14
 24 1330.01 24 1330.01 120 1411.5 c 128,-1,15
 216.008 1493 216.008 1493 430 1493 c 10,0,-1
EndSplineSet
EndChar
StartChar: uni01AD
Encoding: 429 429 429
Width: 803
Flags: W
AnchorPoint: "above" 282 1520 basechar 0
LayerCount: 2
Fore
SplineSet
375 1219 m 2,0,-1
 375 1120 l 1,1,-1
 754 1120 l 1,2,-1
 754 977 l 1,3,-1
 375 977 l 1,4,-1
 375 369 l 2,5,6
 375 232 375 232 412.5 193 c 128,-1,7
 450 154 450 154 565 154 c 2,8,-1
 754 154 l 1,9,-1
 754 0 l 1,10,-1
 565 0 l 2,11,12
 352 0 352 0 271 79.5 c 128,-1,13
 190 159 190 159 190 369 c 2,14,-1
 190 977 l 1,15,-1
 55 977 l 1,16,-1
 55 1120 l 1,17,-1
 190 1120 l 1,18,-1
 190 1198 l 2,19,20
 190 1385 190 1385 277 1470.5 c 128,-1,21
 364 1556 364 1556 553 1556 c 2,22,-1
 727 1556 l 1,23,-1
 727 1403 l 1,24,-1
 551 1403 l 2,25,26
 451.996 1403 451.996 1403 413.498 1362.69 c 128,-1,27
 375 1322.37 375 1322.37 375 1219 c 2,0,-1
EndSplineSet
EndChar
StartChar: uni01AE
Encoding: 430 430 430
Width: 1251
Flags: W
AnchorPoint: "above" 627 1520 basechar 0
LayerCount: 2
Fore
SplineSet
-6 1493 m 1,0,-1
 1257 1493 l 1,1,-1
 1257 1323 l 1,2,-1
 727 1323 l 1,3,-1
 727 104 l 2,4,5
 727 -90 727 -90 782 -165 c 128,-1,6
 837 -240 837 -240 971 -240 c 2,7,-1
 1034 -240 l 1,8,-1
 1034 -410 l 1,9,-1
 956 -410 l 2,10,11
 729 -410 729 -410 626.5 -288 c 128,-1,12
 524 -166 524 -166 524 104 c 2,13,-1
 524 1323 l 1,14,-1
 -6 1323 l 1,15,-1
 -6 1493 l 1,0,-1
EndSplineSet
EndChar
StartChar: uni01B1
Encoding: 433 433 433
Width: 1565
Flags: W
LayerCount: 2
Fore
SplineSet
1487 1304 m 1,0,-1
 1167 1304 l 1,1,2
 1328.01 1162.98 1328.01 1162.98 1399 1015 c 128,-1,3
 1470 866.989 1470 866.989 1470 673 c 0,4,5
 1470 364.01 1470 364.01 1277.5 167.5 c 128,-1,6
 1085.01 -29 1085.01 -29 782 -29 c 0,7,8
 477.005 -29 477.005 -29 285.5 168 c 128,-1,9
 94 364.99 94 364.99 94 683 c 0,10,11
 94.001 867 94.001 867 166.5 1016 c 128,-1,12
 238.999 1165 238.999 1165 397 1304 c 1,13,-1
 78 1304 l 1,14,-1
 78 1482 l 1,15,-1
 678 1482 l 1,16,-1
 678 1304 l 1,17,18
 499.999 1207 499.999 1207 400.5 1041 c 128,-1,19
 301 874.999 301 874.999 301 673 c 0,20,21
 301 434 301 434 433.5 288.5 c 128,-1,22
 566 143 566 143 782 143 c 128,-1,23
 998.005 143 998.005 143 1130 288 c 128,-1,24
 1262 433.01 1262 433.01 1262 673 c 0,25,26
 1262 875 1262 875 1163 1041 c 128,-1,27
 1064 1207 1064 1207 887 1304 c 1,28,-1
 887 1482 l 1,29,-1
 1487 1482 l 1,30,-1
 1487 1304 l 1,0,-1
EndSplineSet
EndChar
StartChar: uni01B2
Encoding: 434 434 434
Width: 1476
Flags: W
AnchorPoint: "above" 679 1520 basechar 0
LayerCount: 2
Fore
SplineSet
710 141 m 0,0,1
 926 141 926 141 1058 286 c 128,-1,2
 1190 431 1190 431 1190 671 c 0,3,4
 1190 873 1190 873 1091 1039 c 0,5,6
 1026 1148 1026 1148 916 1235 c 1,7,-1
 916 1303 l 1,8,-1
 1095 1302 l 1,9,10
 1256 1161 1256 1161 1327 1013 c 128,-1,11
 1398 865 1398 865 1398 671 c 0,12,13
 1398 362 1398 362 1206 165 c 0,14,15
 1014.97 -31 1014.97 -31 710 -31 c 0,16,-1
 633 -29 l 2,17,18
 400.978 -22.9734 400.978 -22.9734 304 93 c 0,19,20
 201 215 201 215 201 485 c 2,21,-1
 201 1493 l 1,22,-1
 403 1493 l 1,23,-1
 403 485 l 2,24,25
 403 291 403 291 458 216 c 128,-1,26
 513 141 513 141 647 141 c 2,27,-1
 710 141 l 0,0,1
EndSplineSet
EndChar
StartChar: uni01B3
Encoding: 435 435 435
Width: 1523
Flags: W
AnchorPoint: "above" 626 1520 basechar 0
LayerCount: 2
Fore
SplineSet
1239 1351 m 0,0,1
 1182 1351 1182 1351 1161 1337 c 0,2,3
 1123.5 1313.14 1123.5 1313.14 1106.83 1287.82 c 10,4,-1
 727 711 l 1,5,-1
 727 0 l 1,6,-1
 524 0 l 1,7,-1
 524 711 l 1,8,-1
 -4 1493 l 1,9,-1
 213 1493 l 1,10,-1
 627 879 l 1,11,-1
 960.832 1383.82 l 2,12,13
 1050.88 1520 1050.88 1520 1214 1520 c 24,14,15
 1350 1520 1350 1520 1435 1428 c 0,16,17
 1520 1337 1520 1337 1520 1227 c 10,18,-1
 1520 1096 l 25,19,-1
 1350 1096 l 25,20,-1
 1350 1217 l 18,21,22
 1350 1271 1350 1271 1313.5 1311 c 128,-1,23
 1277 1351 1277 1351 1239 1351 c 0,0,1
EndSplineSet
EndChar
StartChar: uni01B4
Encoding: 436 436 436
Width: 1496
Flags: W
AnchorPoint: "above" 608 1147 basechar 0
AnchorPoint: "below" 608 -430 basechar 0
LayerCount: 2
Fore
SplineSet
659 -104 m 1,0,1
 581 -304 581 -304 507 -365 c 128,-1,2
 433 -426 433 -426 309 -426 c 2,3,-1
 162 -426 l 1,4,-1
 162 -272 l 1,5,-1
 270 -272 l 2,6,7
 346 -272 346 -272 388 -236 c 128,-1,8
 430 -200 430 -200 481 -66 c 1,9,-1
 514 18 l 1,10,-1
 61 1120 l 1,11,-1
 256 1120 l 1,12,-1
 606 244 l 1,13,-1
 888 948 l 2,14,15
 908.746 999.792 908.746 999.792 957 1051 c 0,16,17
 1045 1147 1045 1147 1180 1147 c 0,18,19
 1311 1147 1311 1147 1403.5 1051.5 c 128,-1,20
 1496 956 1496 956 1496 822 c 2,21,-1
 1496 708 l 25,22,-1
 1318 708 l 25,23,-1
 1318 822 l 2,24,25
 1318 880 1318 880 1277.5 922 c 128,-1,26
 1237 964 1237 964 1180 964 c 128,-1,27
 1123 964 1123 964 1082 922 c 0,28,29
 1062.03 902.025 1062.03 902.025 1052 877 c 2,30,-1
 659 -104 l 1,0,1
EndSplineSet
EndChar
StartChar: uni01B5
Encoding: 437 437 437
Width: 1403
Flags: W
AnchorPoint: "above" 702 1520 basechar 0
LayerCount: 2
Fore
SplineSet
115 1493 m 1,0,-1
 1288 1493 l 1,1,-1
 1288 1339 l 1,2,-1
 888 844 l 1,3,-1
 1169 844 l 1,4,-1
 1169 700 l 1,5,-1
 772 700 l 1,6,-1
 344 170 l 1,7,-1
 1311 170 l 1,8,-1
 1311 0 l 1,9,-1
 92 0 l 1,10,-1
 92 154 l 1,11,-1
 533 700 l 1,12,-1
 234 700 l 1,13,-1
 234 844 l 1,14,-1
 649 844 l 1,15,-1
 1036 1323 l 1,16,-1
 115 1323 l 1,17,-1
 115 1493 l 1,0,-1
EndSplineSet
EndChar
StartChar: uni01B6
Encoding: 438 438 438
Width: 1075
Flags: W
AnchorPoint: "above" 535 1147 basechar 0
LayerCount: 2
Fore
SplineSet
113 1120 m 1,0,-1
 987 1120 l 1,1,-1
 987 952 l 1,2,-1
 736 660 l 1,3,-1
 930 660 l 1,4,-1
 930 516 l 1,5,-1
 612 516 l 1,6,-1
 295 147 l 1,7,-1
 987 147 l 1,8,-1
 987 0 l 1,9,-1
 88 0 l 1,10,-1
 88 168 l 1,11,-1
 387 516 l 1,12,-1
 175 516 l 1,13,-1
 175 660 l 1,14,-1
 511 660 l 1,15,-1
 780 973 l 1,16,-1
 113 973 l 1,17,-1
 113 1120 l 1,0,-1
EndSplineSet
EndChar
StartChar: uni01B7
Encoding: 439 439 439
Width: 1364
Flags: W
AnchorPoint: "cedilla" 702 0 basechar 0
AnchorPoint: "ogonek" 702 0 basechar 0
AnchorPoint: "half" 0 1520 basechar 0
AnchorPoint: "below" 702 0 basechar 0
AnchorPoint: "above" 702 1520 basechar 0
LayerCount: 2
Fore
SplineSet
680 107 m 8,0,1
 872 107 872 107 971 182 c 0,2,3
 1071 257 1071 257 1071 400 c 0,4,5
 1071 534 1071 534 979 607 c 0,6,7
 886 681 886 681 721 681 c 2,8,-1
 547 681 l 1,9,-1
 547 833 l 1,10,-1
 932 1323 l 1,11,-1
 160 1323 l 1,12,-1
 160 1493 l 1,13,-1
 1184 1493 l 1,14,-1
 1184 1339 l 1,15,-1
 773 849 l 1,16,17
 879 849 879 849 1007 793 c 0,18,19
 1105 751 1105 751 1191 642 c 0,20,21
 1272 538 1272 538 1272 400 c 0,22,23
 1272 179.6 1272 179.6 1120 58 c 0,24,25
 968 -63 968 -63 688 -63 c 16,26,27
 569 -63 569 -63 444 -44 c 0,28,29
 318 -26 318 -26 184 11 c 1,30,-1
 184 206 l 1,31,32
 290 157 290 157 417 132 c 0,33,34
 543 107 543 107 680 107 c 8,0,1
EndSplineSet
EndChar
StartChar: uni01B8
Encoding: 440 440 440
Width: 1364
Flags: W
AnchorPoint: "above" 662 1520 basechar 0
AnchorPoint: "below" 662 0 basechar 0
AnchorPoint: "half" 0 1520 basechar 0
AnchorPoint: "ogonek" 662 0 basechar 0
AnchorPoint: "cedilla" 662 0 basechar 0
LayerCount: 2
Fore
SplineSet
684 107 m 16,0,1
 821 107 821 107 947 132 c 0,2,3
 1074 157 1074 157 1180 206 c 1,4,-1
 1180 11 l 1,5,6
 1046 -26 1046 -26 920 -44 c 0,7,8
 795 -63 795 -63 676 -63 c 8,9,10
 396 -63 396 -63 244 58 c 0,11,12
 92 179.6 92 179.6 92 400 c 0,13,14
 92 538 92 538 173 642 c 0,15,16
 259 751 259 751 357 793 c 0,17,18
 485 849 485 849 591 849 c 1,19,-1
 180 1339 l 1,20,-1
 180 1493 l 1,21,-1
 1204 1493 l 1,22,-1
 1204 1323 l 1,23,-1
 432 1323 l 1,24,-1
 817 833 l 1,25,-1
 817 681 l 1,26,-1
 643 681 l 2,27,28
 478 681 478 681 385 607 c 0,29,30
 293 534 293 534 293 400 c 0,31,32
 293 257 293 257 393 182 c 0,33,34
 492 107 492 107 684 107 c 16,0,1
EndSplineSet
EndChar
StartChar: uni01B9
Encoding: 441 441 441
Width: 1183
Flags: W
AnchorPoint: "above" 648 1147 basechar 0
AnchorPoint: "below" 648 -430 basechar 0
AnchorPoint: "ogonek" 648 -430 basechar 0
AnchorPoint: "cedilla" 648 -430 basechar 0
AnchorPoint: "half" 0 1520 basechar 0
LayerCount: 2
Fore
SplineSet
603 476 m 1,0,-1
 192 952 l 1,1,-1
 192 1120 l 1,2,-1
 1066 1120 l 1,3,-1
 1066 973 l 1,4,-1
 399 973 l 1,5,-1
 829 474 l 1,6,-1
 829 308 l 1,7,-1
 655 308 l 2,8,9
 490 308 490 308 397 234 c 0,10,11
 305 159 305 159 305 27 c 0,12,13
 305 -116 305 -116 405 -191 c 0,14,15
 504 -266 504 -266 694 -266 c 0,16,17
 803 -266 803 -266 903 -241 c 128,-1,18
 1003 -216 1003 -216 1087 -167 c 1,19,-1
 1087 -362 l 1,20,21
 981 -399 981 -399 881 -418 c 0,22,23
 782 -436 782 -436 688 -436 c 0,24,25
 408 -436 408 -436 256 -315 c 128,-1,26
 104 -194 104 -194 104 27 c 0,27,28
 104 165 104 165 185 269 c 0,29,30
 271 378 271 378 369 420 c 0,31,32
 497 476 497 476 603 476 c 1,0,-1
EndSplineSet
EndChar
StartChar: uni01BA
Encoding: 442 442 442
Width: 1075
Flags: W
LayerCount: 2
Fore
SplineSet
639 -274 m 0,0,1
 723 -274 723 -274 800 -253 c 0,2,3
 879 -232 879 -232 960 -188 c 1,4,-1
 960 -367 l 1,5,6
 873 -399 873 -399 793 -412 c 0,7,8
 707 -426 707 -426 610 -426 c 24,9,10
 130 -426 130 -426 130 -145 c 0,11,12
 130 93 130 93 536 146 c 0,13,14
 820 183 820 183 820 281 c 0,15,16
 820 405 820 405 585 405 c 2,17,18
 585 405 585 405 295 405 c 9,19,-1
 780 973 l 1,20,-1
 113 973 l 1,21,-1
 113 1120 l 1,22,-1
 987 1120 l 1,23,-1
 987 952 l 1,24,-1
 633 540 l 17,25,26
 1000 540 1000 540 1000 311 c 0,27,28
 1000 35 1000 35 536 -14 c 0,29,30
 310 -38 310 -38 310 -135 c 0,31,32
 310 -274 310 -274 639 -274 c 0,0,1
EndSplineSet
EndChar
StartChar: uni01BB
Encoding: 443 443 443
Width: 1303
Flags: W
LayerCount: 2
Fore
SplineSet
393 170 m 1,0,-1
 1098 170 l 1,1,-1
 1098 0 l 1,2,-1
 150 0 l 1,3,-1
 150 170 l 1,4,-1
 464 490 l 1,5,-1
 579 607 l 1,6,-1
 234 607 l 1,7,-1
 234 751 l 1,8,-1
 716 751 l 1,9,10
 811 860 811 860 848 932 c 0,11,12
 887 1008 887 1008 887 1081 c 0,13,14
 887 1200 887 1200 804 1275 c 0,15,16
 720 1350 720 1350 586 1350 c 0,17,18
 491 1350 491 1350 386 1317 c 0,19,20
 280 1284 280 1284 160 1217 c 1,21,-1
 160 1421 l 1,22,23
 282 1470 282 1470 388 1495 c 128,-1,24
 494 1520 494 1520 582 1520 c 0,25,26
 814 1520 814 1520 952 1404 c 128,-1,27
 1090 1288 1090 1288 1090 1094 c 0,28,29
 1090 1002 1090 1002 1056 920 c 0,30,31
 1025 847 1025 847 951 751 c 1,32,-1
 1055 751 l 1,33,-1
 1055 607 l 1,34,-1
 819 607 l 1,35,-1
 771 558 l 1,36,-1
 393 170 l 1,0,-1
EndSplineSet
EndChar
StartChar: uni01BC
Encoding: 444 444 444
Width: 1364
Flags: W
LayerCount: 2
Fore
SplineSet
294 400 m 1,0,1
 294 107 294 107 683 107 c 128,-1,2
 1072 107 1072 107 1072 400 c 0,3,4
 1072 534 1072 534 979.5 607.5 c 128,-1,5
 887 681 887 681 722 681 c 2,6,-1
 201 681 l 1,7,-1
 201 1493 l 1,8,-1
 1130 1493 l 1,9,-1
 1130 1323 l 1,10,-1
 403 1323 l 1,11,-1
 403 848 l 1,12,-1
 774 849 l 2,13,14
 1030.24 849.691 1030.24 849.691 1192 642 c 0,15,16
 1273 538 1273 538 1273 394.196 c 128,-1,17
 1273 250.393 1273 250.393 1214 164 c 2,18,-1
 1186 123 l 2,19,20
 1166.43 94.344 1166.43 94.344 1121 58 c 0,21,22
 969 -63 969 -63 683 -63 c 152,-1,23
 397 -63 397 -63 245 57.9998 c 128,-1,24
 93.0006 179 93.0006 179 93 400 c 1,25,-1
 294 400 l 1,0,1
EndSplineSet
EndChar
StartChar: uni01BD
Encoding: 445 445 445
Width: 1183
Flags: W
LayerCount: 2
Fore
SplineSet
104 -167 m 1,0,1
 273.714 -266 273.714 -266 480.357 -266 c 0,2,3
 886 -266 886 -266 886 27 c 0,4,5
 886 161 886 161 793.5 234.5 c 128,-1,6
 701 308 701 308 536 308 c 2,7,-1
 183 308 l 1,8,-1
 183 1120 l 1,9,-1
 976 1120 l 1,10,-1
 976 950 l 1,11,-1
 367 950 l 1,12,-1
 367 476 l 1,13,-1
 588 476 l 2,14,15
 693 476 693 476 807 426.5 c 128,-1,16
 921 377 921 377 1004 271 c 128,-1,17
 1087 165 1087 165 1087 21.1964 c 128,-1,18
 1087 -122.607 1087 -122.607 1028 -209 c 2,19,-1
 1000 -250 l 2,20,21
 980.43 -278.656 980.43 -278.656 935 -315 c 0,22,23
 783 -436 783 -436 503 -436 c 0,24,25
 316 -436 316 -436 104 -362 c 1,26,-1
 104 -167 l 1,0,1
EndSplineSet
EndChar
StartChar: uni01BE
Encoding: 446 446 446
Width: 1045
Flags: W
LayerCount: 2
Fore
SplineSet
545 998 m 1,0,-1
 543 873 l 1,1,2
 713 843 713 843 825 724 c 0,3,4
 933 609 933 609 933 439 c 0,5,6
 933 253 933 253 823 128 c 0,7,8
 686 -29 686 -29 411 -29 c 0,9,10
 326 -29 326 -29 245 -11 c 0,11,12
 164 6 164 6 88 41 c 1,13,-1
 88 213 l 1,14,15
 161 173 161 173 245 149 c 0,16,17
 323 127 323 127 403 127 c 0,18,19
 582 127 582 127 681 241 c 0,20,21
 738 306 738 306 739 439 c 0,22,23
 739 537 739 537 681 613 c 0,24,25
 595 727 595 727 403 727 c 2,26,-1
 341 727 l 1,27,-1
 343 998 l 1,28,-1
 114 998 l 1,29,-1
 114 1162 l 1,30,-1
 343 1162 l 1,31,-1
 343 1438 l 1,32,-1
 545 1438 l 1,33,-1
 545 1162 l 1,34,-1
 776 1162 l 1,35,-1
 776 998 l 1,36,-1
 545 998 l 1,0,-1
EndSplineSet
EndChar
StartChar: uni01BF
Encoding: 447 447 447
Width: 1300
Flags: W
LayerCount: 2
Fore
SplineSet
371 -122 m 1,0,-1
 371 -426 l 1,1,-1
 186 -426 l 1,2,-1
 186 1120 l 1,3,-1
 371 1120 l 1,4,-1
 371 950 l 1,5,6
 423 1016 423 1016 558 1098 c 0,7,8
 639 1147 639 1147 849 1147 c 0,9,10
 1033 1147 1033 1147 1110 1035 c 0,11,12
 1188 922 1188 922 1188 769 c 0,13,14
 1188 344 1188 344 371 -122 c 1,0,-1
371 60 m 17,15,16
 997 460 997 460 997 709 c 0,17,18
 997 842 997 842 940 908 c 0,19,20
 884 973 884 973 764 973 c 0,21,22
 544 973 544 973 371 734 c 1,23,-1
 371 60 l 17,15,16
EndSplineSet
EndChar
StartChar: uni01C0
Encoding: 448 448 448
Width: 604
Flags: W
LayerCount: 2
Fore
SplineSet
201 1493 m 1,0,-1
 403 1493 l 1,1,-1
 403 -426 l 1,2,-1
 201 -426 l 1,3,-1
 201 1493 l 1,0,-1
EndSplineSet
EndChar
StartChar: uni01C2
Encoding: 450 450 450
Width: 940
Flags: W
LayerCount: 2
Fore
SplineSet
371 1493 m 1,0,-1
 573 1493 l 1,1,-1
 573 876 l 1,2,-1
 924 876 l 1,3,-1
 924 708 l 1,4,-1
 573 708 l 1,5,-1
 573 468 l 1,6,-1
 924 468 l 1,7,-1
 924 298 l 1,8,-1
 573 298 l 1,9,-1
 573 -426 l 1,10,-1
 371 -426 l 1,11,-1
 371 298 l 1,12,-1
 20 298 l 1,13,-1
 20 468 l 1,14,-1
 371 468 l 1,15,-1
 371 708 l 1,16,-1
 20 708 l 1,17,-1
 20 876 l 1,18,-1
 371 876 l 1,19,-1
 371 1493 l 1,0,-1
EndSplineSet
EndChar
StartChar: uni01E4
Encoding: 484 484 484
Width: 1587
Flags: W
LayerCount: 2
Fore
SplineSet
1419 780 m 1,0,-1
 1419 482 l 1,1,-1
 1540 482 l 1,2,-1
 1540 394 l 1,3,-1
 1419 394 l 1,4,-1
 1419 139 l 1,5,6
 1302 56 1302 56 1161 13.5 c 128,-1,7
 1020 -29 1020 -29 860 -29 c 0,8,9
 510 -29 510 -29 312.5 175.5 c 128,-1,10
 115 380 115 380 115 745 c 0,11,12
 115 1111 115 1111 312.5 1315.5 c 128,-1,13
 510 1520 510 1520 860 1520 c 0,14,15
 1006 1520 1006 1520 1137.5 1484 c 128,-1,16
 1269 1448 1269 1448 1380 1378 c 1,17,-1
 1380 1163 l 1,18,19
 1268 1258 1268 1258 1142 1306 c 128,-1,20
 1016 1354 1016 1354 877 1354 c 0,21,22
 603 1354 603 1354 465.5 1201 c 128,-1,23
 328 1048 328 1048 328 745 c 0,24,25
 328 443 328 443 465.5 290 c 128,-1,26
 603 137 603 137 877 137 c 0,27,28
 984 137 984 137 1068 155.5 c 128,-1,29
 1152 174 1152 174 1219 213 c 1,30,-1
 1219 394 l 1,31,-1
 966 394 l 1,32,-1
 966 482 l 1,33,-1
 1219 482 l 1,34,-1
 1219 614 l 1,35,-1
 889 614 l 1,36,-1
 889 780 l 1,37,-1
 1419 780 l 1,0,-1
EndSplineSet
EndChar
StartChar: uni01E5
Encoding: 485 485 485
Width: 1300
Flags: W
LayerCount: 2
Fore
SplineSet
930 573 m 0,0,1
 930 773 930 773 847.5 883 c 128,-1,2
 765 993 765 993 616 993 c 0,3,4
 468 993 468 993 385.5 883 c 128,-1,5
 303 773 303 773 303 573 c 0,6,7
 303 374 303 374 385.5 264 c 128,-1,8
 468 154 468 154 616 154 c 0,9,10
 765 154 765 154 847.5 264 c 128,-1,11
 930 374 930 374 930 573 c 0,0,1
1114 139 m 2,12,13
 1114 29 1114 29 1095 -59 c 1,14,-1
 1274 -59 l 1,15,-1
 1274 -129 l 1,16,-1
 1076 -129 l 1,17,18
 1045 -222 1045 -222 987 -286 c 0,19,20
 860 -426 860 -426 598 -426 c 0,21,22
 501 -426 501 -426 415 -411.5 c 128,-1,23
 329 -397 329 -397 248 -367 c 1,24,-1
 248 -188 l 1,25,26
 329 -232 329 -232 408 -253 c 128,-1,27
 487 -274 487 -274 569 -274 c 0,28,29
 750 -274 750 -274 840 -179 c 0,30,31
 861 -156 861 -156 878 -128 c 1,32,-1
 242 -128 l 1,33,-1
 242 -59 l 1,34,-1
 908 -59 l 1,35,36
 930 12 930 12 930 106 c 2,37,-1
 930 197 l 1,38,39
 873 98 873 98 784 49 c 128,-1,40
 695 0 695 0 571 0 c 0,41,42
 365 0 365 0 239 157 c 128,-1,43
 113 314 113 314 113 573 c 0,44,45
 113 833 113 833 239 990 c 128,-1,46
 365 1147 365 1147 571 1147 c 0,47,48
 695 1147 695 1147 784 1098 c 128,-1,49
 873 1049 873 1049 930 950 c 1,50,-1
 930 1120 l 1,51,-1
 1114 1120 l 1,52,-1
 1114 139 l 2,12,13
EndSplineSet
EndChar
StartChar: uni01F6
Encoding: 502 502 502
Width: 2279
Flags: W
LayerCount: 2
Fore
SplineSet
201 1493 m 25,0,-1
 403 1493 l 1,1,-1
 403 881 l 1,2,-1
 1137 881 l 1,3,-1
 1137 1493 l 1,4,-1
 1339 1493 l 1,5,-1
 1339 449 l 2,6,7
 1339 290 1339 290 1401 210 c 0,8,9
 1462 132 1462 132 1615 131 c 0,10,11
 1763 131 1763 131 1829 210 c 0,12,13
 1891 285 1891 285 1891 449 c 2,14,-1
 1891 1120 l 1,15,-1
 2093 1120 l 1,16,-1
 2093 442 l 2,17,18
 2093 219 2093 219 1993 91 c 0,19,20
 1897 -29 1897 -29 1615 -29 c 0,21,22
 1340 -29 1340 -29 1237 91 c 0,23,24
 1137 209 1137 209 1137 442 c 2,25,-1
 1137 711 l 1,26,-1
 403 711 l 1,27,-1
 403 0 l 1,28,-1
 201 0 l 1,29,-1
 201 1493 l 25,0,-1
EndSplineSet
EndChar
StartChar: uni01F7
Encoding: 503 503 503
Width: 1397
Flags: W
LayerCount: 2
Fore
SplineSet
403 156 m 1,0,-1
 403 -426 l 1,1,-1
 201 -426 l 1,2,-1
 201 1493 l 1,3,-1
 403 1493 l 1,4,-1
 403 1308 l 1,5,6
 459 1380 459 1380 604 1467 c 0,7,8
 691 1520 691 1520 917 1520 c 0,9,10
 1115 1520 1115 1520 1198 1400 c 0,11,12
 1282 1278 1282 1278 1282 1114 c 0,13,14
 1282 657 1282 657 403 156 c 1,0,-1
403 351 m 17,15,16
 1076 781 1076 781 1076 1049 c 0,17,18
 1076 1192 1076 1192 1015 1263 c 0,19,20
 955 1333 955 1333 826 1333 c 0,21,22
 589 1333 589 1333 403 1076 c 1,23,-1
 403 351 l 17,15,16
EndSplineSet
EndChar
StartChar: uni021C
Encoding: 540 540 540
Width: 1284
Flags: W
LayerCount: 2
Fore
SplineSet
831 674 m 1,0,1
 1139 607 1139 607 1139 314 c 0,2,3
 1139 202 1139 202 1083.5 99 c 128,-1,4
 1028 -4 1028 -4 935.5 -84 c 128,-1,5
 843 -164 843 -164 715 -232 c 128,-1,6
 587 -300 587 -300 448 -348 c 128,-1,7
 309 -396 309 -396 156 -430 c 1,8,-1
 156 -270 l 1,9,10
 356 -215 356 -215 508.5 -145 c 128,-1,11
 661 -75 661 -75 753.5 1.5 c 128,-1,12
 846 78 846 78 892 156.5 c 128,-1,13
 938 235 938 235 938 314 c 0,14,15
 938 415 938 415 875.5 481 c 128,-1,16
 813 547 813 547 701 547 c 0,17,18
 606 547 606 547 491 496 c 2,19,-1
 328 424 l 1,20,-1
 328 595 l 1,21,-1
 576 701 l 2,22,23
 636 727 636 727 687 759.5 c 128,-1,24
 738 792 738 792 790 841.5 c 128,-1,25
 842 891 842 891 872.5 960.5 c 128,-1,26
 903 1030 903 1030 903 1112 c 0,27,28
 903 1167 903 1167 885.5 1210 c 128,-1,29
 868 1253 868 1253 840.5 1278.5 c 128,-1,30
 813 1304 813 1304 775.5 1321 c 128,-1,31
 738 1338 738 1338 702 1344 c 128,-1,32
 666 1350 666 1350 628 1350 c 0,33,34
 444 1350 444 1350 201 1166 c 1,35,-1
 201 1356 l 1,36,37
 440 1520 440 1520 646 1520 c 0,38,39
 777 1520 777 1520 878.5 1477 c 128,-1,40
 980 1434 980 1434 1042 1343 c 128,-1,41
 1104 1252 1104 1252 1104 1124 c 0,42,43
 1104 1064 1104 1064 1092.5 1013 c 128,-1,44
 1081 962 1081 962 1052 905.5 c 128,-1,45
 1023 849 1023 849 968 791 c 128,-1,46
 913 733 913 733 831 674 c 1,0,1
EndSplineSet
EndChar
StartChar: uni021D
Encoding: 541 541 541
Width: 1068
Flags: W
LayerCount: 2
Fore
SplineSet
679 461 m 1,0,1
 749 453 749 453 805 419 c 128,-1,2
 861 385 861 385 892 340 c 128,-1,3
 923 295 923 295 939.5 251 c 128,-1,4
 956 207 956 207 956 170 c 0,5,6
 956 95 956 95 923 26 c 128,-1,7
 890 -43 890 -43 836 -97 c 128,-1,8
 782 -151 782 -151 706 -199.5 c 128,-1,9
 630 -248 630 -248 551.5 -283 c 128,-1,10
 473 -318 473 -318 383.5 -348.5 c 128,-1,11
 294 -379 294 -379 219.5 -398.5 c 128,-1,12
 145 -418 145 -418 71 -433 c 1,13,-1
 71 -303 l 1,14,15
 233 -257 233 -257 355.5 -209 c 128,-1,16
 478 -161 478 -161 557 -115.5 c 128,-1,17
 636 -70 636 -70 685.5 -21 c 128,-1,18
 735 28 735 28 755 73.5 c 128,-1,19
 775 119 775 119 775 170 c 0,20,21
 775 258 775 258 716 314 c 128,-1,22
 657 370 657 370 564 370 c 0,23,24
 505 370 505 370 442 345 c 2,25,-1
 226 259 l 1,26,-1
 226 398 l 1,27,-1
 449 483 l 2,28,29
 483 496 483 496 515.5 512 c 128,-1,30
 548 528 548 528 591.5 558 c 128,-1,31
 635 588 635 588 666.5 622.5 c 128,-1,32
 698 657 698 657 720.5 708 c 128,-1,33
 743 759 743 759 743 816 c 0,34,35
 743 860 743 860 727.5 895 c 128,-1,36
 712 930 712 930 687.5 951 c 128,-1,37
 663 972 663 972 629.5 985.5 c 128,-1,38
 596 999 596 999 563.5 1004 c 128,-1,39
 531 1009 531 1009 496 1009 c 0,40,41
 427 1009 427 1009 343 979.5 c 128,-1,42
 259 950 259 950 112 860 c 1,43,-1
 112 1014 l 1,44,45
 378 1147 378 1147 512 1147 c 0,46,47
 624 1147 624 1147 716 1111.5 c 128,-1,48
 808 1076 808 1076 866 1003 c 128,-1,49
 924 930 924 930 924 833 c 0,50,51
 924 723 924 723 872.5 646.5 c 128,-1,52
 821 570 821 570 679 461 c 1,0,1
EndSplineSet
EndChar
StartChar: uni0220
Encoding: 544 544 544
Width: 1506
Flags: W
LayerCount: 2
Fore
SplineSet
1104 895 m 2,0,1
 1104 1109.65 1104 1109.65 1027.23 1216.33 c 128,-1,2
 950.45 1323 950.45 1323 797 1323 c 0,3,4
 618 1323 618 1323 510.5 1195.5 c 128,-1,5
 403 1068 403 1068 403 846 c 2,6,-1
 403 0 l 1,7,-1
 201 0 l 1,8,-1
 201 1493 l 1,9,-1
 403 1493 l 1,10,-1
 403 1252 l 1,11,12
 483.52 1386.58 483.52 1386.58 585.94 1453.88 c 128,-1,13
 688.36 1521.17 688.36 1521.17 845 1520 c 0,14,15
 1072 1520 1072 1520 1188.5 1360.5 c 128,-1,16
 1305 1201 1305 1201 1305 893 c 2,17,-1
 1305 -426 l 17,18,-1
 1104 -426 l 25,19,-1
 1104 895 l 2,0,1
EndSplineSet
EndChar
StartChar: uni0221
Encoding: 545 545 545
Width: 1716
Flags: W
LayerCount: 2
Fore
SplineSet
1206 130 m 9,0,1
 1223 125 1223 125 1260 125 c 0,2,3
 1420 125 1420 125 1420 300 c 0,4,5
 1420 345 1420 345 1368 346 c 0,6,7
 1316 346 1316 346 1206 130 c 9,0,1
1114 314 m 1,8,9
 1224 498 1224 498 1360 498 c 0,10,11
 1604 498 1604 498 1604 292 c 0,12,13
 1604 -29 1604 -29 1262 -29 c 0,14,15
 1189 -29 1189 -29 1136 -14 c 1,16,17
 1102 -86 1102 -86 1078 -144 c 1,18,-1
 882 -144 l 1,19,20
 911 -75 911 -75 978 72 c 1,21,22
 930 132 930 132 930 168 c 1,23,24
 872 68 872 68 784 20 c 0,25,26
 695 -29 695 -29 571 -29 c 0,27,28
 368 -29 368 -29 240 133 c 0,29,30
 113 295 113 295 113 559 c 128,-1,31
 113 823 113 823 240 985 c 0,32,33
 368 1147 368 1147 571 1147 c 0,34,35
 695 1147 695 1147 784 1098 c 0,36,37
 872 1050 872 1050 930 950 c 1,38,-1
 930 1556 l 1,39,-1
 1114 1556 l 1,40,-1
 1114 314 l 1,8,9
303 559 m 128,-1,42
 303 356 303 356 386 240 c 0,43,44
 470 125 470 125 616 125 c 128,-1,45
 762 125 762 125 846 240 c 0,46,47
 930 356 930 356 930 559 c 128,-1,48
 930 762 930 762 846 878 c 0,49,50
 762 993 762 993 616 993 c 128,-1,51
 470 993 470 993 386 878 c 0,52,41
 303 762 303 762 303 559 c 128,-1,42
EndSplineSet
EndChar
StartChar: uni0222
Encoding: 546 546 546
Width: 1430
Flags: W
LayerCount: 2
Fore
SplineSet
715 709 m 0,0,1
 531 709 531 709 425 632 c 0,2,3
 318 555 318 555 318 420 c 128,-1,4
 318 285 318 285 425 208 c 0,5,6
 531 131 531 131 715 131 c 128,-1,7
 899 131 899 131 1006 208 c 0,8,9
 1113 286 1113 286 1113 420 c 0,10,11
 1113 555 1113 555 1007 632 c 128,-1,12
 901 709 901 709 715 709 c 0,0,1
657 1260 m 17,13,14
 527 1257 527 1257 442 1195 c 128,-1,15
 357 1133 357 1133 357 1054 c 0,16,17
 357 985 357 985 452 913 c 0,18,19
 511 868 511 868 715 868 c 0,20,21
 883 868 883 868 978 933 c 0,22,23
 1074 998 1074 998 1074 1134 c 0,24,25
 1074 1292 1074 1292 998 1335 c 0,26,27
 889 1412 889 1412 759 1420 c 9,28,-1
 759 1520 l 1,29,30
 987 1520 987 1520 1137 1416 c 0,31,32
 1276 1319 1276 1319 1276 1133 c 0,33,34
 1276 1005 1276 1005 1191 916 c 128,-1,35
 1106 827 1106 827 954 795 c 1,36,37
 1126 761 1126 761 1221 662 c 0,38,39
 1317 563 1317 563 1317 420 c 0,40,41
 1317 203 1317 203 1161 87 c 0,42,43
 1006 -29 1006 -29 715 -29 c 128,-1,44
 424 -29 424 -29 269 87 c 0,45,46
 113 203 113 203 113 420 c 0,47,48
 113 563 113 563 209 662 c 0,49,50
 306 761 306 761 477 795 c 1,51,52
 306 826 306 826 239 896 c 0,53,54
 154 985 154 985 154 1073 c 0,55,56
 154 1203 154 1203 284 1286 c 0,57,58
 400 1360 400 1360 657 1360 c 1,59,-1
 657 1260 l 17,13,14
EndSplineSet
EndChar
StartChar: uni0223
Encoding: 547 547 547
Width: 1250
Flags: W
LayerCount: 2
Fore
SplineSet
625 709 m 0,0,1
 481 709 481 709 398 632 c 0,2,3
 316 555 316 555 316 420 c 128,-1,4
 316 285 316 285 398 208 c 0,5,6
 481 131 481 131 625 131 c 128,-1,7
 769 131 769 131 852 208 c 0,8,9
 935 286 935 286 935 420 c 0,10,11
 935 555 935 555 852 632 c 0,12,13
 770 709 770 709 625 709 c 0,0,1
1024 1295 m 17,14,15
 1082 1231 1082 1231 1082 1133 c 0,16,17
 1082 980 1082 980 1030 916 c 0,18,19
 957.861 827.214 957.861 827.214 828 795 c 1,20,21
 974 761 974 761 1056 662 c 0,22,23
 1137 563 1137 563 1137 420 c 0,24,25
 1137 203 1137 203 1004 87 c 0,26,27
 872 -29 872 -29 625 -29 c 128,-1,28
 378 -29 378 -29 246 87 c 0,29,30
 113 203 113 203 113 420 c 0,31,32
 113 563 113 563 195 662 c 128,-1,33
 277 761 277 761 423 795 c 1,34,35
 279.344 830.408 279.344 830.408 220 916 c 0,36,37
 168 991 168 991 168 1133 c 0,38,39
 168 1222 168 1222 231 1295 c 9,40,-1
 392 1295 l 17,41,42
 349 1230 349 1230 349 1114 c 128,-1,43
 349 998 349 998 422 933 c 0,44,45
 494 868 494 868 625 868 c 0,46,47
 755 868 755 868 828 933 c 0,48,49
 902 998 902 998 902 1114 c 0,50,51
 902 1233 902 1233 858 1295 c 9,52,-1
 1024 1295 l 17,14,15
EndSplineSet
EndChar
StartChar: uni0224
Encoding: 548 548 548
Width: 1403
Flags: W
LayerCount: 2
Fore
SplineSet
1311 -20 m 2,0,1
 1311 -309 1311 -309 1153 -389 c 0,2,3
 1081 -426 1081 -426 967 -426 c 2,4,-1
 713 -426 l 1,5,-1
 713 -270 l 1,6,-1
 946 -270 l 2,7,8
 1051 -270 1051 -270 1089 -222 c 0,9,10
 1127 -173 1127 -173 1127 -20 c 2,11,-1
 1127 0 l 1,12,-1
 92 0 l 1,13,-1
 92 154 l 1,14,-1
 1036 1323 l 1,15,-1
 115 1323 l 1,16,-1
 115 1493 l 1,17,-1
 1288 1493 l 1,18,-1
 1288 1339 l 1,19,-1
 344 170 l 1,20,-1
 1311 170 l 1,21,-1
 1311 -20 l 2,0,1
EndSplineSet
EndChar
StartChar: uni0225
Encoding: 549 549 549
Width: 1075
Flags: W
LayerCount: 2
Fore
SplineSet
987 -20 m 2,0,1
 987 -309 987 -309 829 -389 c 0,2,3
 757 -426 757 -426 643 -426 c 2,4,-1
 389 -426 l 1,5,-1
 389 -270 l 1,6,-1
 622 -270 l 2,7,8
 727 -270 727 -270 765 -222 c 0,9,10
 803 -173 803 -173 803 -20 c 2,11,-1
 803 0 l 1,12,-1
 88 0 l 1,13,-1
 88 168 l 1,14,-1
 780 973 l 1,15,-1
 113 973 l 1,16,-1
 113 1120 l 1,17,-1
 987 1120 l 1,18,-1
 987 952 l 1,19,-1
 295 147 l 1,20,-1
 987 147 l 1,21,-1
 987 -20 l 2,0,1
EndSplineSet
EndChar
StartChar: uni0234
Encoding: 564 564 564
Width: 972
Flags: W
AnchorPoint: "above" 271 1520 basechar 0
AnchorPoint: "below" 271 0 basechar 0
LayerCount: 2
Fore
SplineSet
462 130 m 9,0,1
 479 125 479 125 516 125 c 0,2,3
 676 125 676 125 676 300 c 0,4,5
 676 345 676 345 624 346 c 0,6,7
 572 346 572 346 462 130 c 9,0,1
370 314 m 1,8,9
 480 498 480 498 616 498 c 0,10,11
 860 498 860 498 860 292 c 0,12,13
 860 -29 860 -29 518 -29 c 0,14,15
 445 -29 445 -29 392 -14 c 1,16,17
 358 -86 358 -86 334 -144 c 1,18,-1
 138 -144 l 1,19,20
 167 -75 167 -75 234 72 c 1,21,22
 185 132 185 132 186 222 c 2,23,-1
 186 1550 l 1,24,-1
 370 1550 l 1,25,-1
 370 314 l 1,8,9
EndSplineSet
EndChar
StartChar: uni0235
Encoding: 565 565 565
Width: 1726
Flags: W
AnchorPoint: "above" 649 1147 basechar 0
AnchorPoint: "below" 678 0 basechar 0
LayerCount: 2
Fore
SplineSet
1216 130 m 9,0,1
 1233 125 1233 125 1270 125 c 0,2,3
 1430 125 1430 125 1430 300 c 0,4,5
 1430 345 1430 345 1378 346 c 0,6,7
 1326 346 1326 346 1216 130 c 9,0,1
1124 314 m 1,8,9
 1234 498 1234 498 1370 498 c 0,10,11
 1614 498 1614 498 1614 292 c 0,12,13
 1614 -29 1614 -29 1272 -29 c 0,14,15
 1199 -29 1199 -29 1146 -14 c 1,16,17
 1112 -86 1112 -86 1088 -144 c 1,18,-1
 892 -144 l 1,19,20
 921 -75 921 -75 988 72 c 1,21,22
 939 132 939 132 940 222 c 1,23,-1
 940 670 l 1,24,25
 940 829 940 829 878 908 c 128,-1,26
 816 987 816 987 692 987 c 0,27,28
 543 987 543 987 457 892 c 128,-1,29
 371 797 371 797 371 633 c 2,30,-1
 371 0 l 1,31,-1
 186 0 l 1,32,-1
 186 1120 l 1,33,-1
 371 1120 l 1,34,-1
 371 946 l 1,35,36
 437 1047 437 1047 526 1097 c 0,37,38
 616 1147 616 1147 733 1147 c 0,39,40
 926 1147 926 1147 1025 1028 c 0,41,42
 1124 908 1124 908 1124 676 c 2,43,-1
 1124 314 l 1,8,9
EndSplineSet
EndChar
StartChar: uni0236
Encoding: 566 566 566
Width: 977
Flags: W
AnchorPoint: "above" 282 1520 basechar 0
AnchorPoint: "below" 500 0 basechar 0
LayerCount: 2
Fore
SplineSet
467 130 m 9,0,1
 484 125 484 125 521 125 c 0,2,3
 681 125 681 125 681 300 c 0,4,5
 681 345 681 345 629 346 c 0,6,7
 577 346 577 346 467 130 c 9,0,1
375 314 m 17,8,9
 485 498 485 498 621 498 c 0,10,11
 865 498 865 498 865 292 c 0,12,13
 865 -29 865 -29 523 -29 c 0,14,15
 450 -29 450 -29 396 -14 c 1,16,17
 363 -86 363 -86 339 -144 c 1,18,-1
 143 -144 l 1,19,20
 172 -75 172 -75 239 72 c 1,21,22
 190 132 190 132 190 222 c 1,23,-1
 190 977 l 1,24,-1
 55 977 l 1,25,-1
 55 1120 l 1,26,-1
 190 1120 l 1,27,-1
 190 1438 l 1,28,-1
 375 1438 l 1,29,-1
 375 1120 l 1,30,-1
 754 1120 l 1,31,-1
 754 977 l 1,32,-1
 375 977 l 1,33,-1
 375 314 l 17,8,9
EndSplineSet
EndChar
StartChar: dotlessj
Encoding: 567 567 567
Width: 569
Flags: W
AnchorPoint: "above" 287 1147 basechar 0
LayerCount: 2
Fore
SplineSet
193 1120 m 1,0,-1
 377 1120 l 1,1,-1
 377 -20 l 2,2,3
 377 -234 377 -234 295.5 -330 c 128,-1,4
 214 -426 214 -426 33 -426 c 2,5,-1
 -37 -426 l 1,6,-1
 -37 -270 l 1,7,-1
 12 -270 l 2,8,9
 117 -270 117 -270 155 -221.5 c 128,-1,10
 193 -173 193 -173 193 -20 c 2,11,-1
 193 1120 l 1,0,-1
EndSplineSet
EndChar
StartChar: uni0238
Encoding: 568 568 568
Width: 2044
Flags: W
LayerCount: 2
Fore
SplineSet
303 559 m 128,-1,1
 303 356 303 356 386 240 c 0,2,3
 470 125 470 125 616 125 c 128,-1,4
 762 125 762 125 846 240.5 c 128,-1,5
 930 356 930 356 930 559 c 128,-1,6
 930 762 930 762 846 877.5 c 128,-1,7
 762 993 762 993 616 993 c 128,-1,8
 470 993 470 993 386 878 c 0,9,0
 303 762 303 762 303 559 c 128,-1,1
571 1147 m 0,10,11
 815.74 1147 815.74 1147 930 950 c 1,12,-1
 930 1556 l 1,13,-1
 1115 1556 l 1,14,-1
 1115 950 l 1,15,16
 1229.26 1147 1229.26 1147 1473 1147 c 0,17,18
 1677 1147 1677 1147 1804.5 985 c 128,-1,19
 1932 823 1932 823 1932 559 c 128,-1,20
 1932 295 1932 295 1804.5 133 c 128,-1,21
 1677 -29 1677 -29 1473 -29 c 0,22,23
 1229.26 -29 1229.26 -29 1115 168 c 1,24,-1
 1115 0 l 1,25,-1
 930 0 l 1,26,-1
 930 168 l 1,27,28
 815.74 -29 815.74 -29 571 -29 c 0,29,30
 368 -29 368 -29 240 133 c 0,31,32
 113 295 113 295 113 559 c 128,-1,33
 113 823 113 823 240 985 c 0,34,35
 368 1147 368 1147 571 1147 c 0,10,11
1741 559 m 128,-1,37
 1741 762 1741 762 1658 878 c 0,38,39
 1574 993 1574 993 1428 993 c 128,-1,40
 1282 993 1282 993 1198 878 c 0,41,42
 1115 762 1115 762 1115 559 c 128,-1,43
 1115 356 1115 356 1198 240 c 0,44,45
 1282 125 1282 125 1428 125 c 128,-1,46
 1574 125 1574 125 1658 240 c 0,47,36
 1741 356 1741 356 1741 559 c 128,-1,37
EndSplineSet
EndChar
StartChar: uni0239
Encoding: 569 569 569
Width: 2044
Flags: W
LayerCount: 2
Fore
SplineSet
1741 559 m 128,-1,1
 1741 762 1741 762 1658 878 c 0,2,3
 1574 993 1574 993 1428 993 c 128,-1,4
 1282 993 1282 993 1198 878 c 0,5,6
 1115 762 1115 762 1115 559 c 128,-1,7
 1115 356 1115 356 1198 240 c 0,8,9
 1282 125 1282 125 1428 125 c 128,-1,10
 1574 125 1574 125 1658 240 c 0,11,0
 1741 356 1741 356 1741 559 c 128,-1,1
1473 -29 m 0,12,13
 1229.26 -29 1229.26 -29 1115 168 c 1,14,-1
 1115 -426 l 1,15,-1
 930 -426 l 1,16,-1
 930 168 l 1,17,18
 815.74 -29 815.74 -29 571 -29 c 0,19,20
 368 -29 368 -29 240 133 c 0,21,22
 113 295 113 295 113 559 c 128,-1,23
 113 823 113 823 240 985 c 0,24,25
 368 1147 368 1147 571 1147 c 0,26,27
 815.74 1147 815.74 1147 930 950 c 1,28,-1
 930 1120 l 1,29,-1
 1115 1120 l 1,30,-1
 1115 950 l 1,31,32
 1229.26 1147 1229.26 1147 1473 1147 c 0,33,34
 1677 1147 1677 1147 1804.5 985 c 128,-1,35
 1932 823 1932 823 1932 559 c 128,-1,36
 1932 295 1932 295 1804.5 133 c 128,-1,37
 1677 -29 1677 -29 1473 -29 c 0,12,13
303 559 m 128,-1,39
 303 356 303 356 386 240 c 0,40,41
 470 125 470 125 616 125 c 128,-1,42
 762 125 762 125 846 240.5 c 128,-1,43
 930 356 930 356 930 559 c 128,-1,44
 930 762 930 762 846 877.5 c 128,-1,45
 762 993 762 993 616 993 c 128,-1,46
 470 993 470 993 386 878 c 0,47,38
 303 762 303 762 303 559 c 128,-1,39
EndSplineSet
EndChar
StartChar: uni023A
Encoding: 570 570 570
Width: 1401
Flags: W
LayerCount: 2
Fore
SplineSet
586 1493 m 1,0,-1
 815 1493 l 1,1,-1
 949 1142 l 1,2,-1
 1302 1559 l 1,3,-1
 1404 1470 l 1,4,-1
 1004 997 l 1,5,-1
 1384 0 l 1,6,-1
 1174 0 l 1,7,-1
 1038 383 l 1,8,-1
 484 383 l 1,9,-1
 279 142 l 1,10,-1
 229 0 l 1,11,-1
 159 0 l 1,12,-1
 100 -70 l 1,13,-1
 18 0 l 1,14,-1
 16 0 l 1,15,-1
 17 1 l 1,16,-1
 -3 18 l 1,17,-1
 44 74 l 1,18,-1
 586 1493 l 1,0,-1
700 1294 m 1,19,-1
 426 551 l 1,20,-1
 448 551 l 1,21,-1
 815 984 l 1,22,-1
 700 1294 l 1,19,-1
626 551 m 1,23,-1
 975 551 l 1,24,-1
 869 838 l 1,25,-1
 626 551 l 1,23,-1
EndSplineSet
EndChar
StartChar: uni023B
Encoding: 571 571 571
Width: 1430
Flags: W
LayerCount: 2
Fore
SplineSet
114 -70 m 1,0,-1
 12 18 l 1,1,-1
 232 279 l 1,2,3
 115 466 115 466 115 745 c 0,4,5
 115 1105 115 1105 310 1312 c 0,6,7
 505 1520 505 1520 844 1520 c 0,8,9
 978 1520 978 1520 1096 1484 c 0,10,11
 1157 1466 1157 1466 1215 1439 c 1,12,-1
 1316 1559 l 1,13,-1
 1418 1470 l 1,14,-1
 1319 1352 l 1,15,-1
 1319 1165 l 1,16,17
 1273 1208 1273 1208 1224 1241 c 1,18,-1
 444 319 l 1,19,20
 453 306 453 306 464 294 c 0,21,22
 600 137 600 137 856 137 c 0,23,24
 986 137 986 137 1102 184 c 0,25,26
 1217 231 1217 231 1319 326 c 1,27,-1
 1319 115 l 1,28,29
 1213 43 1213 43 1094 7 c 0,30,31
 976 -29 976 -29 844 -29 c 0,32,33
 512 -29 512 -29 318 170 c 1,34,-1
 114 -70 l 1,0,-1
375 447 m 1,35,-1
 1103 1307 l 1,36,-1
 1102 1307 l 2,37,38
 986 1354 986 1354 856 1354 c 0,39,40
 600 1354 600 1354 464 1198 c 0,41,42
 328 1041 328 1041 328 745 c 0,43,44
 328 572 328 572 375 447 c 1,35,-1
EndSplineSet
EndChar
StartChar: uni023C
Encoding: 572 572 572
Width: 1126
Flags: W
LayerCount: 2
Fore
SplineSet
105 -94 m 1,0,-1
 9 -16 l 1,1,-1
 198 214 l 1,2,3
 113 355 113 355 113 559 c 0,4,5
 113 833 113 833 264 990 c 0,6,7
 414 1147 414 1147 676 1147 c 0,8,9
 761 1147 761 1147 842 1130 c 0,10,11
 888 1120 888 1120 933 1104 c 1,12,-1
 1022 1212 l 1,13,-1
 1117 1133 l 1,14,-1
 999 990 l 1,15,-1
 999 905 l 1,16,17
 974 919 974 919 950 930 c 1,18,-1
 393 256 l 1,19,20
 400 248 400 248 406 240 c 0,21,22
 505 127 505 127 684 127 c 0,23,24
 764 127 764 127 842 148 c 0,25,26
 921 170 921 170 999 213 c 1,27,-1
 999 43 l 1,28,29
 922 7 922 7 840 -11 c 0,30,31
 757 -29 757 -29 664 -29 c 0,32,33
 424 -29 424 -29 277 115 c 1,34,-1
 105 -94 l 1,0,-1
332 376 m 1,35,-1
 826 974 l 1,36,37
 755 991 755 991 684 991 c 0,38,39
 505 991 505 991 406 878 c 0,40,41
 307 764 307 764 307 559 c 0,42,43
 307 456 307 456 332 376 c 1,35,-1
EndSplineSet
EndChar
StartChar: uni023D
Encoding: 573 573 573
Width: 1141
Flags: W
LayerCount: 2
Fore
SplineSet
201 1493 m 1,0,-1
 403 1493 l 1,1,-1
 403 844 l 1,2,-1
 594 844 l 1,3,-1
 594 700 l 1,4,-1
 403 700 l 1,5,-1
 403 170 l 1,6,-1
 1130 170 l 1,7,-1
 1130 0 l 1,8,-1
 201 0 l 1,9,-1
 201 700 l 1,10,-1
 10 700 l 1,11,-1
 10 844 l 1,12,-1
 201 844 l 1,13,-1
 201 1493 l 1,0,-1
EndSplineSet
EndChar
StartChar: uni023E
Encoding: 574 574 574
Width: 1251
Flags: W
LayerCount: 2
Fore
SplineSet
1257 1385 m 1,0,-1
 1257 1323 l 1,1,-1
 1205 1323 l 1,2,-1
 727 759 l 1,3,-1
 727 0 l 1,4,-1
 524 0 l 1,5,-1
 524 519 l 1,6,-1
 25 -70 l 1,7,-1
 -78 18 l 1,8,-1
 524 729 l 1,9,-1
 524 1323 l 1,10,-1
 -6 1323 l 1,11,-1
 -6 1493 l 1,12,-1
 1171 1493 l 1,13,-1
 1227 1559 l 1,14,-1
 1329 1470 l 1,15,-1
 1257 1385 l 1,0,-1
727 969 m 1,16,-1
 1027 1323 l 1,17,-1
 727 1323 l 1,18,-1
 727 969 l 1,16,-1
EndSplineSet
EndChar
StartChar: uni023F
Encoding: 575 575 575
Width: 1067
Flags: W
LayerCount: 2
Fore
SplineSet
778 295 m 0,0,1
 778 370 778 370 728 410 c 0,2,3
 677 450 677 450 506 487 c 2,4,-1
 442 502 l 2,5,6
 271 538 271 538 195 612 c 0,7,8
 119 687 119 687 119 817 c 0,9,10
 119 975 119 975 231 1061 c 128,-1,11
 343 1147 343 1147 549 1147 c 0,12,13
 651 1147 651 1147 741 1132 c 128,-1,14
 831 1117 831 1117 907 1087 c 1,15,-1
 907 913 l 1,16,17
 829 953 829 953 745 973 c 128,-1,18
 661 993 661 993 571 993 c 0,19,20
 434 993 434 993 366 951 c 0,21,22
 297 909 297 909 297 825 c 0,23,24
 297 761 297 761 346 724 c 0,25,26
 395 688 395 688 543 655 c 2,27,-1
 606 641 l 2,28,29
 804 597 804 597 884 522 c 0,30,31
 967 446 967 446 967 309 c 0,32,33
 967 153 967 153 844 62 c 0,34,35
 757 -2 757 -2 625 -21 c 1,36,-1
 784 -180 l 1,37,-1
 931 -306 l 2,38,39
 973 -342 973 -342 1049 -342 c 1,40,-1
 1049 -496 l 1,41,-1
 1010 -496 l 2,42,43
 926 -496 926 -496 812 -435 c 0,44,45
 741 -397 741 -397 652 -306 c 2,46,-1
 415 -63 l 2,47,48
 385 -33 385 -33 349 -17 c 0,49,50
 333 -14 333 -14 316 -12 c 0,51,52
 219 6 219 6 111 41 c 1,53,-1
 111 231 l 1,54,55
 213 178 213 178 312 152 c 0,56,57
 411 125 411 125 508 125 c 0,58,59
 638 125 638 125 708 170 c 0,60,61
 778 214 778 214 778 295 c 0,0,1
EndSplineSet
EndChar
StartChar: uni0240
Encoding: 576 576 576
Width: 1075
Flags: W
LayerCount: 2
Fore
SplineSet
113 1120 m 1,0,-1
 987 1120 l 1,1,-1
 987 952 l 1,2,-1
 297 149 l 1,3,4
 389 133 389 133 438 84 c 2,5,-1
 702 -180 l 1,6,-1
 849 -306 l 2,7,8
 891 -342 891 -342 967 -342 c 2,9,-1
 1075 -342 l 1,10,-1
 1075 -496 l 1,11,-1
 928 -496 l 2,12,13
 844 -496 844 -496 730 -435 c 0,14,15
 659 -397 659 -397 570 -306 c 2,16,-1
 333 -63 l 2,17,18
 272 0 272 0 182 0 c 0,19,-1
 88 0 l 1,20,-1
 88 156 l 1,21,-1
 88 168 l 1,22,-1
 780 973 l 1,23,-1
 113 973 l 1,24,-1
 113 1120 l 1,0,-1
EndSplineSet
EndChar
StartChar: uni0241
Encoding: 577 577 577
Width: 1235
Flags: W
LayerCount: 2
Fore
SplineSet
657 602 m 2,0,-1
 618 602 l 1,1,-1
 618 0 l 1,2,-1
 416 0 l 1,3,-1
 416 768 l 1,4,-1
 657 768 l 2,5,6
 798 768 798 768 875 840.5 c 128,-1,7
 952 913 952 913 952 1048 c 0,8,9
 952 1184 952 1184 875 1255.5 c 128,-1,10
 798 1327 798 1327 657 1327 c 2,11,-1
 403 1327 l 2,12,13
 334 1327 334 1327 246.5 1306 c 128,-1,14
 159 1285 159 1285 80 1241 c 1,15,-1
 80 1423 l 1,16,17
 232 1493 232 1493 403 1493 c 2,18,-1
 657 1493 l 2,19,20
 901 1493 901 1493 1033 1383 c 128,-1,21
 1165 1273 1165 1273 1165 1048 c 0,22,23
 1165 833.012 1165 833.012 1032.44 717.506 c 128,-1,24
 899.872 602 899.872 602 657 602 c 2,0,-1
EndSplineSet
EndChar
StartChar: uni0242
Encoding: 578 578 578
Width: 981
Flags: W
LayerCount: 2
Fore
SplineSet
303 422 m 1,0,-1
 403 422 l 2,1,2
 544 422 544 422 621 494.5 c 128,-1,3
 698 567 698 567 698 702 c 0,4,5
 698 843 698 843 622 908 c 0,6,7
 537.265 980.335 537.265 980.335 403 980.335 c 0,8,9
 330.267 980.335 330.267 980.335 244 959 c 0,10,11
 158 938 158 938 80 895 c 1,12,-1
 80 1077 l 1,13,14
 232 1147 232 1147 403 1147 c 0,15,16
 654.167 1147 654.167 1147 779 1037 c 0,17,18
 911 920.685 911 920.685 911 702 c 0,19,20
 911 489.037 911 489.037 804.938 374.519 c 128,-1,21
 698.875 260 698.875 260 505 260 c 1,22,-1
 505 0 l 1,23,-1
 303 0 l 1,24,-1
 303 422 l 1,0,-1
EndSplineSet
EndChar
StartChar: uni0243
Encoding: 579 579 579
Width: 1405
Flags: W
AnchorPoint: "above" 700 1520 basechar 0
AnchorPoint: "below" 700 0 basechar 0
LayerCount: 2
Fore
SplineSet
403 713 m 1,0,-1
 403 512 l 1,1,-1
 750 512 l 1,2,-1
 750 368 l 1,3,-1
 403 368 l 1,4,-1
 403 166 l 1,5,-1
 727 166 l 2,6,7
 890 166 890 166 968.5 233.5 c 128,-1,8
 1047 301 1047 301 1047 440 c 0,9,10
 1047 580 1047 580 968.5 646.5 c 128,-1,11
 890 713 890 713 727 713 c 2,12,-1
 403 713 l 1,0,-1
403 1327 m 1,13,-1
 403 877 l 1,14,-1
 702 877 l 2,15,16
 850 877 850 877 922.5 932.5 c 128,-1,17
 995 988 995 988 995 1102 c 0,18,19
 995 1215 995 1215 922.5 1271 c 128,-1,20
 850 1327 850 1327 702 1327 c 2,21,-1
 403 1327 l 1,13,-1
201 1493 m 1,22,-1
 717 1493 l 2,23,24
 948 1493 948 1493 1073 1397 c 128,-1,25
 1198 1301 1198 1301 1198 1124 c 0,26,27
 1198 987 1198 987 1134 906 c 128,-1,28
 1070 825 1070 825 946 805 c 1,29,30
 1095 773 1095 773 1177.5 671.5 c 128,-1,31
 1260 570 1260 570 1260 418 c 0,32,33
 1260 218 1260 218 1124 109 c 128,-1,34
 988 0 988 0 737 0 c 2,35,-1
 201 0 l 1,36,-1
 201 368 l 1,37,-1
 10 368 l 1,38,-1
 10 512 l 1,39,-1
 201 512 l 1,40,-1
 201 1493 l 1,22,-1
EndSplineSet
EndChar
StartChar: uni0244
Encoding: 580 580 580
Width: 1499
Flags: W
AnchorPoint: "above" 750 1520 basechar 0
AnchorPoint: "below" 750 0 basechar 0
LayerCount: 2
Fore
SplineSet
178 1493 m 1,0,-1
 381 1493 l 1,1,-1
 381 875 l 1,2,-1
 1118 875 l 1,3,-1
 1118 1493 l 1,4,-1
 1321 1493 l 1,5,-1
 1321 875 l 1,6,-1
 1486 875 l 1,7,-1
 1486 711 l 1,8,-1
 1321 711 l 1,9,-1
 1321 561 l 2,10,11
 1321 269 1321 269 1176.5 120 c 128,-1,12
 1032 -29 1032 -29 750 -29 c 0,13,14
 467 -29 467 -29 322.5 120 c 128,-1,15
 178 269 178 269 178 561 c 2,16,-1
 178 711 l 1,17,-1
 12 711 l 1,18,-1
 12 875 l 1,19,-1
 178 875 l 1,20,-1
 178 1493 l 1,0,-1
1118 711 m 1,21,-1
 381 711 l 1,22,-1
 381 586 l 2,23,24
 381 346 381 346 468 240.5 c 128,-1,25
 555 135 555 135 750 135 c 0,26,27
 944 135 944 135 1031 240.5 c 128,-1,28
 1118 346 1118 346 1118 586 c 2,29,-1
 1118 711 l 1,21,-1
EndSplineSet
EndChar
StartChar: uni0246
Encoding: 582 582 582
Width: 1294
Flags: W
AnchorPoint: "below" 670 0 basechar 0
AnchorPoint: "above" 670 1520 basechar 0
LayerCount: 2
Fore
SplineSet
952 1683 m 1,0,-1
 1122 1683 l 1,1,-1
 1057.08 1493 l 1,2,-1
 1145 1493 l 1,3,-1
 1145 1323 l 1,4,-1
 998.989 1323 l 1,5,-1
 847.958 881 l 1,6,-1
 1114 881 l 1,7,-1
 1114 711 l 1,8,-1
 789.87 711 l 1,9,-1
 605.011 170 l 1,10,-1
 1163 170 l 1,11,-1
 1163 0 l 1,12,-1
 546.923 2.08167e-14 l 1,13,-1
 482 -190 l 1,14,-1
 312 -190 l 1,15,-1
 376.923 -5.17641e-15 l 1,16,-1
 201 0 l 1,17,-1
 201 1493 l 1,18,-1
 887.077 1493 l 1,19,-1
 952 1683 l 1,0,-1
435.011 170 m 1,20,-1
 619.87 711 l 1,21,-1
 403 711 l 1,22,-1
 403 170 l 1,23,-1
 435.011 170 l 1,20,-1
677.958 881 m 1,24,-1
 828.989 1323 l 1,25,-1
 403 1323 l 1,26,-1
 403 881 l 1,27,-1
 677.958 881 l 1,24,-1
EndSplineSet
EndChar
StartChar: uni0247
Encoding: 583 583 583
Width: 1260
Flags: W
AnchorPoint: "below" 660 0 basechar 0
AnchorPoint: "above" 653 1147 basechar 0
LayerCount: 2
Fore
SplineSet
967 660 m 1,0,1
 965 811 965 811 882.5 901 c 0,2,3
 868.014 916.803 868.014 916.803 851.878 929.832 c 1,4,-1
 740.925 659.655 l 1,5,-1
 967 660 l 1,0,1
1151 606 m 2,6,-1
 1151 516 l 1,7,-1
 681.931 516 l 1,8,-1
 533.656 154.941 l 1,9,10
 608.025 127 608.025 127 705 127 c 0,11,12
 811 127 811 127 910.5 153 c 128,-1,13
 1010 179 1010 179 1108 231 c 1,14,-1
 1108 57 l 1,15,16
 1009 15 1009 15 905 -7 c 128,-1,17
 801 -29 801 -29 694 -29 c 0,18,19
 571.068 -29 571.068 -29 471.597 3.82337 c 1,20,-1
 392 -190 l 1,21,-1
 222 -190 l 1,22,-1
 330.796 74.9247 l 1,23,24
 298.265 98.3274 298.265 98.3274 269.5 127 c 0,25,26
 113 283 113 283 113 549 c 0,27,28
 113 824 113 824 261.5 985.5 c 128,-1,29
 410 1147 410 1147 662 1147 c 0,30,31
 717.582 1147 717.582 1147 767.447 1138.2 c 1,32,-1
 838 1310 l 1,33,-1
 1008 1310 l 1,34,-1
 915.827 1085.55 l 1,35,36
 973.456 1052.45 973.456 1052.45 1019.5 1001.5 c 0,37,38
 1151 856 1151 856 1151 606 c 2,6,-1
570.819 659.396 m 1,39,-1
 706.056 988.707 l 1,40,41
 685.709 991 685.709 991 664 991 c 0,42,43
 510 991 510 991 417.5 904 c 128,-1,44
 325 817 325 817 311 659 c 1,45,-1
 570.819 659.396 l 1,39,-1
401.046 245.987 m 1,46,-1
 511.931 516 l 1,47,-1
 305 516 l 1,48,49
 315.873 343.844 315.873 343.844 401.046 245.987 c 1,46,-1
EndSplineSet
EndChar
StartChar: uni0248
Encoding: 584 584 584
Width: 604
Flags: W
AnchorPoint: "below" 302 -430 basechar 0
AnchorPoint: "above" 302 1520 basechar 0
LayerCount: 2
Fore
SplineSet
594 631 m 1,0,-1
 403 631 l 1,1,-1
 403 104 l 2,2,3
 403 -166 403 -166 300.5 -288 c 128,-1,4
 198 -410 198 -410 -29 -410 c 2,5,-1
 -106 -410 l 1,6,-1
 -106 -240 l 1,7,-1
 -43 -240 l 2,8,9
 91 -240 91 -240 146 -165 c 128,-1,10
 201 -90 201 -90 201 104 c 2,11,-1
 201 631 l 1,12,-1
 10 631 l 1,13,-1
 10 797 l 1,14,-1
 201 797 l 1,15,-1
 201 1493 l 1,16,-1
 403 1493 l 1,17,-1
 403 797 l 1,18,-1
 594 797 l 1,19,-1
 594 631 l 1,0,-1
EndSplineSet
EndChar
StartChar: uni0249
Encoding: 585 585 585
Width: 569
Flags: W
AnchorPoint: "above" 287 1583 basechar 0
AnchorPoint: "below" 287 -430 basechar 0
LayerCount: 2
Fore
SplineSet
193 1120 m 1,0,-1
 377 1120 l 1,1,-1
 377 616 l 1,2,-1
 540 616 l 1,3,-1
 540 452 l 1,4,-1
 377 452 l 1,5,-1
 377 -20 l 2,6,7
 377 -234 377 -234 295.5 -330 c 128,-1,8
 214 -426 214 -426 33 -426 c 2,9,-1
 -37 -426 l 1,10,-1
 -37 -270 l 1,11,-1
 12 -270 l 2,12,13
 117 -270 117 -270 155 -221.5 c 128,-1,14
 193 -173 193 -173 193 -20 c 2,15,-1
 193 452 l 1,16,-1
 12 452 l 1,17,-1
 12 616 l 1,18,-1
 193 616 l 1,19,-1
 193 1120 l 1,0,-1
193 1556 m 1,20,-1
 377 1556 l 1,21,-1
 377 1323 l 1,22,-1
 193 1323 l 1,23,-1
 193 1556 l 1,20,-1
EndSplineSet
Substitution2: "Single Substitution - Dotless Form" uni025F
EndChar
StartChar: uni024A
Encoding: 586 586 586
Width: 1600
Flags: W
AnchorPoint: "above" 807 1520 basechar 0
AnchorPoint: "below" 807 0 basechar 0
LayerCount: 2
Fore
SplineSet
1203 1261 m 1,0,-1
 1203 1493 l 1,1,-1
 1399 1493 l 1,2,-1
 1399 104 l 2,3,4
 1399 -90 1399 -90 1454 -165 c 128,-1,5
 1509 -240 1509 -240 1643 -240 c 2,6,-1
 1712 -240 l 1,7,-1
 1712 -410 l 1,8,-1
 1635 -410 l 2,9,10
 1408 -410 1408 -410 1305.5 -288 c 128,-1,11
 1203 -166 1203 -166 1203 104 c 2,12,-1
 1203 231 l 1,13,14
 1126 99 1126 99 1008 35 c 128,-1,15
 890 -29 890 -29 725 -29 c 0,16,17
 455 -29 455 -29 285 184.5 c 128,-1,18
 115 398 115 398 115 746 c 128,-1,19
 115 1094 115 1094 285 1307.5 c 128,-1,20
 455 1521 455 1521 725 1521 c 0,21,22
 890 1521 890 1521 1008 1457 c 128,-1,23
 1126 1393 1126 1393 1203 1261 c 1,0,-1
325 745 m 128,-1,25
 325 460 325 460 442 297.5 c 128,-1,26
 559 135 559 135 763 135 c 0,27,28
 968 135 968 135 1085.5 297.5 c 128,-1,29
 1203 460 1203 460 1203 745 c 128,-1,30
 1203 1030 1203 1030 1085.5 1192.5 c 128,-1,31
 968 1355 968 1355 763 1355 c 0,32,33
 559 1355 559 1355 442 1192.5 c 128,-1,24
 325 1030 325 1030 325 745 c 128,-1,25
EndSplineSet
EndChar
StartChar: uni024B
Encoding: 587 587 587
Width: 1300
Flags: W
LayerCount: 2
Fore
SplineSet
1344 -426 m 1,0,-1
 1274 -426 l 2,1,2
 1093 -426 1093 -426 1011.5 -330 c 128,-1,3
 930 -234 930 -234 930 -20 c 2,4,-1
 930 168 l 1,5,6
 872 68 872 68 783.5 19.5 c 128,-1,7
 695 -29 695 -29 571 -29 c 0,8,9
 368 -29 368 -29 240.5 133 c 128,-1,10
 113 295 113 295 113 559 c 128,-1,11
 113 823 113 823 240.5 985 c 128,-1,12
 368 1147 368 1147 571 1147 c 0,13,14
 695 1147 695 1147 783.5 1098.5 c 128,-1,15
 872 1050 872 1050 930 950 c 1,16,-1
 930 1120 l 1,17,-1
 1114 1120 l 1,18,-1
 1114 -20 l 2,19,20
 1114 -173 1114 -173 1152 -221.5 c 128,-1,21
 1190 -270 1190 -270 1295 -270 c 2,22,-1
 1344 -270 l 1,23,-1
 1344 -426 l 1,0,-1
303 559 m 128,-1,25
 303 356 303 356 386.5 240.5 c 128,-1,26
 470 125 470 125 616 125 c 128,-1,27
 762 125 762 125 846 240.5 c 128,-1,28
 930 356 930 356 930 559 c 128,-1,29
 930 762 930 762 846 877.5 c 128,-1,30
 762 993 762 993 616 993 c 128,-1,31
 470 993 470 993 386.5 877.5 c 128,-1,24
 303 762 303 762 303 559 c 128,-1,25
EndSplineSet
EndChar
StartChar: uni024C
Encoding: 588 588 588
Width: 1423
Flags: W
AnchorPoint: "above" 637 1520 basechar 0
AnchorPoint: "below" 637 0 basechar 0
LayerCount: 2
Fore
SplineSet
909 700 m 1,0,1
 974 678 974 678 1035.5 606 c 128,-1,2
 1097 534 1097 534 1159 408 c 1,3,-1
 1364 0 l 1,4,-1
 1147 0 l 1,5,-1
 956 383 l 1,6,7
 882 533 882 533 812.5 582 c 128,-1,8
 743 631 743 631 623 631 c 2,9,-1
 403 631 l 1,10,-1
 403 0 l 1,11,-1
 201 0 l 9,12,-1
 201 631 l 17,13,-1
 10 631 l 1,14,-1
 10 797 l 1,15,-1
 201 797 l 9,16,-1
 201 1493 l 17,17,-1
 657 1493 l 2,18,19
 913 1493 913 1493 1039 1386 c 128,-1,20
 1165 1279 1165 1279 1165 1063 c 0,21,22
 1165 922 1165 922 1099.5 829 c 128,-1,23
 1034 736 1034 736 909 700 c 1,0,1
403 1327 m 1,24,-1
 403 797 l 1,25,-1
 657 797 l 2,26,27
 803 797 803 797 877.5 864.5 c 128,-1,28
 952 932 952 932 952 1063 c 128,-1,29
 952 1194 952 1194 877.5 1260.5 c 128,-1,30
 803 1327 803 1327 657 1327 c 2,31,-1
 403 1327 l 1,24,-1
EndSplineSet
EndChar
StartChar: uni024D
Encoding: 589 589 589
Width: 842
Flags: W
AnchorPoint: "above" 535 1147 basechar 0
AnchorPoint: "below" 535 0 basechar 0
LayerCount: 2
Fore
SplineSet
542 616 m 1,0,-1
 542 452 l 1,1,-1
 371 452 l 1,2,-1
 371 0 l 1,3,-1
 186 0 l 1,4,-1
 186 452 l 1,5,-1
 14 452 l 1,6,-1
 14 616 l 1,7,-1
 186 616 l 1,8,-1
 186 1120 l 1,9,-1
 371 1120 l 1,10,-1
 371 946 l 1,11,12
 429 1048 429 1048 522 1097.5 c 128,-1,13
 615 1147 615 1147 748 1147 c 0,14,15
 767 1147 767 1147 790 1144.5 c 128,-1,16
 813 1142 813 1142 841 1137 c 1,17,-1
 842 948 l 1,18,19
 811 966 811 966 774.5 974.5 c 128,-1,20
 738 983 738 983 694 983 c 0,21,22
 538 983 538 983 454.5 880 c 128,-1,23
 371 777 371 777 371 616 c 1,24,-1
 542 616 l 1,0,-1
EndSplineSet
EndChar
StartChar: uni024E
Encoding: 590 590 590
Width: 1251
Flags: W
AnchorPoint: "below" 626 0 basechar 0
AnchorPoint: "above" 626 1520 basechar 0
LayerCount: 2
Fore
SplineSet
-4 1493 m 1,0,-1
 213 1493 l 1,1,-1
 364 1269 l 1,2,-1
 888 1269 l 1,3,-1
 1038 1493 l 1,4,-1
 1255 1493 l 1,5,-1
 1104 1269 l 1,6,-1
 1260 1269 l 1,7,-1
 1260 1105 l 1,8,-1
 993 1105 l 1,9,-1
 727 711 l 1,10,-1
 727 0 l 1,11,-1
 524 0 l 1,12,-1
 524 711 l 1,13,-1
 258 1105 l 1,14,-1
 -10 1105 l 1,15,-1
 -10 1269 l 1,16,-1
 147 1269 l 1,17,-1
 -4 1493 l 1,0,-1
778 1105 m 1,18,-1
 475 1105 l 1,19,-1
 627 879 l 1,20,-1
 778 1105 l 1,18,-1
EndSplineSet
EndChar
StartChar: uni024F
Encoding: 591 591 591
Width: 1212
Flags: W
AnchorPoint: "below" 608 -430 basechar 0
AnchorPoint: "above" 608 1147 basechar 0
LayerCount: 2
Fore
SplineSet
659 -104 m 2,0,1
 581 -304 581 -304 507 -365 c 128,-1,2
 433 -426 433 -426 309 -426 c 2,3,-1
 162 -426 l 1,4,-1
 162 -272 l 1,5,-1
 270 -272 l 2,6,7
 346 -272 346 -272 388 -236 c 128,-1,8
 430 -200 430 -200 481 -66 c 2,9,-1
 514 18 l 1,10,-1
 309 516 l 1,11,-1
 11 516 l 1,12,-1
 11 659 l 1,13,-1
 251 659 l 1,14,-1
 61 1120 l 1,15,-1
 256 1120 l 1,16,-1
 440 659 l 1,17,-1
 772 659 l 1,18,-1
 956 1120 l 1,19,-1
 1151 1120 l 1,20,-1
 966 659 l 1,21,-1
 1205 659 l 1,22,-1
 1205 516 l 1,23,-1
 908 516 l 1,24,-1
 659 -104 l 2,0,1
715 516 m 1,25,-1
 497 516 l 1,26,-1
 606 244 l 1,27,-1
 715 516 l 1,25,-1
EndSplineSet
EndChar
StartChar: uni0250
Encoding: 592 592 592
Width: 1229
Flags: W
AnchorPoint: "half" 0 1520 basechar 0
AnchorPoint: "cedilla" 647 0 basechar 0
AnchorPoint: "ogonek" 647 0 basechar 0
AnchorPoint: "above" 647 1147 basechar 0
AnchorPoint: "below" 647 0 basechar 0
LayerCount: 2
Fore
SplineSet
541 555 m 2,0,1
 764 555 764 555 850 606 c 128,-1,2
 936 657 936 657 936 780 c 0,3,4
 936 878 936 878 871.5 935.5 c 128,-1,5
 807 993 807 993 696 993 c 0,6,7
 543 993 543 993 450.5 884.5 c 128,-1,8
 358 776 358 776 358 596 c 2,9,-1
 358 555 l 1,10,-1
 541 555 l 2,0,1
174 479 m 2,11,-1
 174 1118 l 1,12,-1
 358 1118 l 1,13,-1
 358 948 l 1,14,15
 421 1050 421 1050 515 1098.5 c 128,-1,16
 609 1147 609 1147 745 1147 c 0,17,18
 917 1147 917 1147 1018.5 1050.5 c 128,-1,19
 1120 954 1120 954 1120 792 c 0,20,21
 1120 603 1120 603 993.5 507 c 128,-1,22
 867 411 867 411 616 411 c 2,23,-1
 358 411 l 1,24,-1
 358 393 l 2,25,26
 358 266 358 266 441.5 196.5 c 128,-1,27
 525 127 525 127 676 127 c 0,28,29
 772 127 772 127 863 150 c 128,-1,30
 954 173 954 173 1038 219 c 1,31,-1
 1038 49 l 1,32,33
 937 10 937 10 842 -9.5 c 128,-1,34
 747 -29 747 -29 657 -29 c 0,35,36
 414 -29 414 -29 294 97 c 128,-1,37
 174 223 174 223 174 479 c 2,11,-1
EndSplineSet
EndChar
StartChar: uni0251
Encoding: 593 593 593
Width: 1300
Flags: W
AnchorPoint: "below" 596 0 basechar 0
AnchorPoint: "above" 596 1147 basechar 0
LayerCount: 2
Fore
SplineSet
930 950 m 1,0,-1
 930 1120 l 1,1,-1
 1114 1120 l 1,2,-1
 1114 0 l 1,3,-1
 930 0 l 1,4,-1
 930 168 l 1,5,6
 872 68 872 68 783.5 19.5 c 128,-1,7
 695 -29 695 -29 571 -29 c 0,8,9
 368 -29 368 -29 240.5 133 c 128,-1,10
 113 295 113 295 113 559 c 128,-1,11
 113 823 113 823 240.5 985 c 128,-1,12
 368 1147 368 1147 571 1147 c 0,13,14
 695 1147 695 1147 783.5 1098.5 c 128,-1,15
 872 1050 872 1050 930 950 c 1,0,-1
303 559 m 128,-1,17
 303 356 303 356 386.5 240.5 c 128,-1,18
 470 125 470 125 616 125 c 128,-1,19
 762 125 762 125 846 240.5 c 128,-1,20
 930 356 930 356 930 559 c 128,-1,21
 930 762 930 762 846 877.5 c 128,-1,22
 762 993 762 993 616 993 c 128,-1,23
 470 993 470 993 386.5 877.5 c 128,-1,16
 303 762 303 762 303 559 c 128,-1,17
EndSplineSet
EndChar
StartChar: uni0252
Encoding: 594 594 594
Width: 1300
Flags: W
AnchorPoint: "below" 726 0 basechar 0
AnchorPoint: "above" 726 1147 basechar 0
LayerCount: 2
Fore
SplineSet
997 559 m 128,-1,1
 997 762 997 762 913.5 877.5 c 128,-1,2
 830 993 830 993 684 993 c 128,-1,3
 538 993 538 993 454 877.5 c 128,-1,4
 370 762 370 762 370 559 c 128,-1,5
 370 356 370 356 454 240.5 c 128,-1,6
 538 125 538 125 684 125 c 128,-1,7
 830 125 830 125 913.5 240.5 c 128,-1,0
 997 356 997 356 997 559 c 128,-1,1
370 950 m 1,8,9
 428 1050 428 1050 516.5 1098.5 c 128,-1,10
 605 1147 605 1147 729 1147 c 0,11,12
 932 1147 932 1147 1059.5 985 c 128,-1,13
 1187 823 1187 823 1187 559 c 128,-1,14
 1187 295 1187 295 1059.5 133 c 128,-1,15
 932 -29 932 -29 729 -29 c 0,16,17
 605 -29 605 -29 516.5 19.5 c 128,-1,18
 428 68 428 68 370 168 c 1,19,-1
 370 -2 l 1,20,-1
 186 -2 l 1,21,-1
 186 1118 l 1,22,-1
 370 1118 l 1,23,-1
 370 950 l 1,8,9
EndSplineSet
EndChar
StartChar: uni0253
Encoding: 595 595 595
Width: 1300
Flags: W
AnchorPoint: "below" 653 0 basechar 0
AnchorPoint: "above" 278 1520 basechar 0
LayerCount: 2
Fore
SplineSet
997 559 m 128,-1,1
 997 762 997 762 913.5 877.5 c 128,-1,2
 830 993 830 993 684 993 c 128,-1,3
 538 993 538 993 454.5 877.5 c 128,-1,4
 371 762 371 762 371 559 c 128,-1,5
 371 356 371 356 454.5 240.5 c 128,-1,6
 538 125 538 125 684 125 c 128,-1,7
 830 125 830 125 913.5 240.5 c 128,-1,0
 997 356 997 356 997 559 c 128,-1,1
371 950 m 1,8,9
 429 1050 429 1050 517.5 1098.5 c 128,-1,10
 606 1147 606 1147 729 1147 c 0,11,12
 933 1147 933 1147 1060.5 985 c 128,-1,13
 1188 823 1188 823 1188 559 c 128,-1,14
 1188 295 1188 295 1060.5 133 c 128,-1,15
 933 -29 933 -29 729 -29 c 0,16,17
 606 -29 606 -29 517.5 19.5 c 128,-1,18
 429 68 429 68 371 168 c 1,19,-1
 371 0 l 1,20,-1
 186 0 l 1,21,-1
 186 1150 l 2,22,23
 186 1345 186 1345 275.5 1450.5 c 128,-1,24
 365 1556 365 1556 530 1556 c 2,25,-1
 784 1556 l 1,26,-1
 784 1400 l 1,27,-1
 551 1400 l 2,28,29
 461 1400 461 1400 415.5 1337.5 c 128,-1,30
 370 1275 370 1275 370 1150 c 2,31,-1
 371 950 l 1,8,9
EndSplineSet
EndChar
StartChar: uni0254
Encoding: 596 596 596
Width: 1125
Flags: W
AnchorPoint: "half" 0 1520 basechar 0
AnchorPoint: "ogonek" 450 0 basechar 0
AnchorPoint: "cedilla" 450 0 basechar 0
AnchorPoint: "below" 450 0 basechar 0
AnchorPoint: "above" 462 1147 basechar 0 3
LayerCount: 2
Fore
SplineSet
127 1075 m 1,0,1
 204 1111 204 1111 286.5 1129 c 128,-1,2
 369 1147 369 1147 462 1147 c 0,3,4
 715 1147 715 1147 864 988 c 128,-1,5
 1013 829 1013 829 1013 559 c 0,6,7
 1013 285 1013 285 862.5 128 c 128,-1,8
 712 -29 712 -29 450 -29 c 0,9,10
 365 -29 365 -29 284 -11.5 c 128,-1,11
 203 6 203 6 127 41 c 1,12,-1
 127 213 l 1,13,14
 205 170 205 170 283.5 148.5 c 128,-1,15
 362 127 362 127 442 127 c 0,16,17
 621 127 621 127 720 240.5 c 128,-1,18
 819 354 819 354 819 559 c 128,-1,19
 819 764 819 764 720 877.5 c 128,-1,20
 621 991 621 991 442 991 c 0,21,22
 362 991 362 991 283.5 969.5 c 128,-1,23
 205 948 205 948 127 905 c 1,24,-1
 127 1075 l 1,0,1
EndSplineSet
EndChar
StartChar: uni0255
Encoding: 597 597 597
Width: 1126
Flags: W
AnchorPoint: "below" 678 0 basechar 0
AnchorPoint: "above" 678 1147 basechar 0
LayerCount: 2
Fore
SplineSet
998.979 1077 m 1,0,-1
 998.979 905 l 1,1,2
 920.99 948 920.99 948 842.479 969.5 c 128,-1,3
 763.99 991 763.99 991 683.979 991 c 0,4,5
 504.98 991 504.98 991 405.979 877.5 c 128,-1,6
 306.979 764 306.979 764 306.979 559 c 152,-1,7
 306.979 354 306.979 354 406 240 c 0,8,9
 412.611 232.389 412.611 232.389 419 226 c 1,10,11
 457.646 306.974 457.646 306.974 520 350.693 c 0,12,13
 593.175 402 593.175 402 699 402 c 0,14,15
 861.523 402 861.523 402 936 329.803 c 0,16,17
 999 268.731 999 268.731 999 180 c 0,18,19
 999 55.0511 999 55.0511 904 8.02117 c 0,20,21
 821.138 -33 821.138 -33 666 -33 c 0,22,23
 586 -33 586 -33 513 -16 c 1,24,25
 507 -73 507 -73 507 -141 c 1,26,-1
 354 -141 l 1,27,28
 354 -37 354 -37 366 44 c 1,29,30
 309.461 78.7171 309.461 78.7171 262 130 c 0,31,32
 113 291 113 291 113 559 c 24,33,34
 113 833 113 833 263.5 990 c 128,-1,35
 414 1147 414 1147 676 1147 c 0,36,37
 761.011 1147 761.011 1147 842 1129.5 c 128,-1,38
 922.99 1112 922.99 1112 998.979 1077 c 1,0,-1
549 146 m 1,39,40
 607 127 607 127 684 127 c 0,41,42
 830 127 830 127 830 184 c 0,43,44
 830 259 830 259 698 259 c 0,45,46
 597 259 597 259 549 146 c 1,39,40
EndSplineSet
EndChar
